<mxfile host="app.diagrams.net" agent="Mozilla/5.0 (Macintosh; Intel Mac OS X 10_15_7) AppleWebKit/537.36 (KHTML, like Gecko) Chrome/135.0.0.0 Safari/537.36 Edg/135.0.0.0" version="26.2.14">
  <diagram name="Σελίδα-1" id="_XwGBr_CwOBUYXXtja8u">
    <mxGraphModel dx="3240" dy="4795" grid="0" gridSize="10" guides="1" tooltips="1" connect="1" arrows="1" fold="1" page="0" pageScale="1" pageWidth="827" pageHeight="1169" math="0" shadow="0">
      <root>
        <mxCell id="0" />
        <mxCell id="1" parent="0" />
        <mxCell id="s5jDc6gKKT0ccCfi1KdD-1" value="User" style="swimlane;fontStyle=1;childLayout=stackLayout;horizontal=1;startSize=26;horizontalStack=0;resizeParent=1;resizeParentMax=0;resizeLast=0;collapsible=1;marginBottom=0;align=center;fontSize=14;fillColor=#ffe6cc;strokeColor=#d79b00;strokeWidth=2;" vertex="1" parent="1">
          <mxGeometry x="4483" y="-721" width="430" height="700" as="geometry">
            <mxRectangle x="1950" y="-330" width="60" height="30" as="alternateBounds" />
          </mxGeometry>
        </mxCell>
        <mxCell id="s5jDc6gKKT0ccCfi1KdD-2" value="&lt;p class=&quot;MsoNormal&quot; style=&quot;margin: 0in 0in 8pt 0.5in; line-height: normal; font-size: 12pt; font-family: Aptos, sans-serif;&quot;&gt;- id: UUID&lt;/p&gt;&lt;p class=&quot;MsoNormal&quot; style=&quot;margin: 0in 0in 8pt 0.5in; line-height: normal; font-size: 12pt; font-family: Aptos, sans-serif;&quot;&gt;- name: String&lt;/p&gt;&lt;p class=&quot;MsoNormal&quot; style=&quot;margin: 0in 0in 8pt 0.5in; line-height: normal; font-size: 12pt; font-family: Aptos, sans-serif;&quot;&gt;- email: String&lt;/p&gt;&lt;p class=&quot;MsoNormal&quot; style=&quot;margin: 0in 0in 8pt 0.5in; line-height: normal; font-size: 12pt; font-family: Aptos, sans-serif;&quot;&gt;- phone: String&lt;/p&gt;&lt;p class=&quot;MsoNormal&quot; style=&quot;margin: 0in 0in 8pt 0.5in; line-height: normal; font-size: 12pt; font-family: Aptos, sans-serif;&quot;&gt;- profileStats: UserProfileStats&lt;/p&gt;&lt;p class=&quot;MsoNormal&quot; style=&quot;margin: 0in 0in 8pt 0.5in; line-height: normal; font-size: 12pt; font-family: Aptos, sans-serif;&quot;&gt;- accountVerification: AccountVerification&lt;/p&gt;&lt;p class=&quot;MsoNormal&quot; style=&quot;margin: 0in 0in 8pt 0.5in; line-height: normal; font-size: 12pt; font-family: Aptos, sans-serif;&quot;&gt;- role: enum { Owner, Tenant }&lt;/p&gt;&lt;p class=&quot;MsoNormal&quot; style=&quot;margin: 0in 0in 8pt 0.5in; line-height: normal; font-size: 12pt; font-family: Aptos, sans-serif;&quot;&gt;- ratingProfile: RatingProfile&lt;/p&gt;&lt;p class=&quot;MsoNormal&quot; style=&quot;margin: 0in 0in 8pt 0.5in; line-height: normal; font-size: 12pt; font-family: Aptos, sans-serif;&quot;&gt;- wallet: Wallet&lt;/p&gt;&lt;p class=&quot;MsoNormal&quot; style=&quot;margin: 0in 0in 8pt; line-height: normal; font-size: 12pt; font-family: Aptos, sans-serif;&quot;&gt;&amp;nbsp;&lt;/p&gt;" style="text;strokeColor=none;fillColor=none;spacingLeft=4;spacingRight=4;overflow=hidden;rotatable=0;points=[[0,0.5],[1,0.5]];portConstraint=eastwest;fontSize=12;whiteSpace=wrap;html=1;align=left;" vertex="1" parent="s5jDc6gKKT0ccCfi1KdD-1">
          <mxGeometry y="26" width="430" height="264" as="geometry" />
        </mxCell>
        <mxCell id="s5jDc6gKKT0ccCfi1KdD-3" value="&lt;p style=&quot;margin: 0in 0in 8pt 0.5in; line-height: normal; font-size: 12pt; font-family: Aptos, sans-serif;&quot; class=&quot;MsoNormal&quot;&gt;+ getCompletedExperiences()&lt;/p&gt;&lt;p style=&quot;margin: 0in 0in 8pt 0.5in; line-height: normal; font-size: 12pt; font-family: Aptos, sans-serif;&quot; class=&quot;MsoNormal&quot;&gt;+ hasReviewed(userId, experienceId): Boolean&lt;/p&gt;&lt;p style=&quot;margin: 0in 0in 8pt 0.5in; line-height: normal; font-size: 12pt; font-family: Aptos, sans-serif;&quot; class=&quot;MsoNormal&quot;&gt;+ isVerified(): Boolean&lt;/p&gt;&lt;p style=&quot;margin: 0in 0in 8pt 0.5in; line-height: normal; font-size: 12pt; font-family: Aptos, sans-serif;&quot; class=&quot;MsoNormal&quot;&gt;+ requestVerification(): VerificationResult&lt;/p&gt;&lt;p style=&quot;margin: 0in 0in 8pt 0.5in; line-height: normal; font-size: 12pt; font-family: Aptos, sans-serif;&quot; class=&quot;MsoNormal&quot;&gt;+ getAvailability(): List&amp;lt;TimeSlot&amp;gt;&lt;/p&gt;&lt;p style=&quot;margin: 0in 0in 8pt 0.5in; line-height: normal; font-size: 12pt; font-family: Aptos, sans-serif;&quot; class=&quot;MsoNormal&quot;&gt;+ getWallet(): Wallet&lt;/p&gt;&lt;p style=&quot;margin: 0in 0in 8pt 0.5in; line-height: normal; font-size: 12pt; font-family: Aptos, sans-serif;&quot; class=&quot;MsoNormal&quot;&gt;+ getPaymentMethods(): List&amp;lt;PaymentMethod&amp;gt;&lt;/p&gt;&lt;p style=&quot;margin: 0in 0in 8pt 0.5in; line-height: normal; font-size: 12pt; font-family: Aptos, sans-serif;&quot; class=&quot;MsoNormal&quot;&gt;+ addPaymentMethod(method: PaymentMethod)&lt;/p&gt;&lt;p style=&quot;margin: 0in 0in 8pt 0.5in; line-height: normal; font-size: 12pt; font-family: Aptos, sans-serif;&quot; class=&quot;MsoNormal&quot;&gt;+ getMyListings(): List&amp;lt;Listing&amp;gt;&lt;/p&gt;&lt;p style=&quot;margin: 0in 0in 8pt 0.5in; line-height: normal; font-size: 12pt; font-family: Aptos, sans-serif;&quot; class=&quot;MsoNormal&quot;&gt;+ getRentalInterests(): List&amp;lt;RentalInterest&amp;gt;&lt;/p&gt;&lt;p style=&quot;margin: 0in 0in 8pt 0.5in; line-height: normal; font-size: 12pt; font-family: Aptos, sans-serif;&quot; class=&quot;MsoNormal&quot;&gt;+ createRentalRequest(tenants, terms)&lt;/p&gt;&lt;p style=&quot;margin: 0in 0in 8pt 0.5in; line-height: normal; font-size: 12pt; font-family: Aptos, sans-serif;&quot; class=&quot;MsoNormal&quot;&gt;+ finalizeRental(request: RentalInitiationRequest)&lt;/p&gt;&lt;p style=&quot;margin: 0in 0in 8pt 0.5in; line-height: normal; font-size: 12pt; font-family: Aptos, sans-serif;&quot; class=&quot;MsoNormal&quot;&gt;+ sendMessage(chat, content): Message&lt;/p&gt;&lt;p style=&quot;margin: 0in 0in 8pt 0.5in; line-height: normal; font-size: 12pt; font-family: Aptos, sans-serif;&quot; class=&quot;MsoNormal&quot;&gt;+ receiveNotification(notification): void&lt;/p&gt;" style="text;strokeColor=#8C7124;fillColor=none;spacingLeft=4;spacingRight=4;overflow=hidden;rotatable=0;points=[[0,0.5],[1,0.5]];portConstraint=eastwest;fontSize=12;whiteSpace=wrap;html=1;strokeWidth=2;" vertex="1" parent="s5jDc6gKKT0ccCfi1KdD-1">
          <mxGeometry y="290" width="430" height="410" as="geometry" />
        </mxCell>
        <mxCell id="s5jDc6gKKT0ccCfi1KdD-4" value="Owner" style="swimlane;fontStyle=1;childLayout=stackLayout;horizontal=1;startSize=26;horizontalStack=0;resizeParent=1;resizeParentMax=0;resizeLast=0;collapsible=1;marginBottom=0;align=center;fontSize=14;fillColor=#ffe6cc;strokeColor=#d79b00;strokeWidth=2;" vertex="1" parent="1">
          <mxGeometry x="4189" y="201.5" width="319" height="219" as="geometry">
            <mxRectangle x="1950" y="-330" width="60" height="30" as="alternateBounds" />
          </mxGeometry>
        </mxCell>
        <mxCell id="s5jDc6gKKT0ccCfi1KdD-5" value="&lt;p style=&quot;margin: 0in 0in 0in 0.5in; line-height: normal; font-size: 12pt; font-family: Aptos, sans-serif;&quot; class=&quot;MsoListParagraphCxSpFirst&quot;&gt;- id: UUID&lt;/p&gt;&lt;p style=&quot;margin: 0in 0in 0in 0.5in; line-height: normal; font-size: 12pt; font-family: Aptos, sans-serif;&quot; class=&quot;MsoListParagraphCxSpMiddle&quot;&gt;- name: String&lt;/p&gt;&lt;p style=&quot;margin: 0in 0in 0in 0.5in; line-height: normal; font-size: 12pt; font-family: Aptos, sans-serif;&quot; class=&quot;MsoListParagraphCxSpMiddle&quot;&gt;- email: String&lt;/p&gt;&lt;p style=&quot;margin: 0in 0in 0in 0.5in; line-height: normal; font-size: 12pt; font-family: Aptos, sans-serif;&quot; class=&quot;MsoListParagraphCxSpMiddle&quot;&gt;- phone: String&lt;/p&gt;&lt;p style=&quot;margin: 0in 0in 8pt 0.5in; line-height: normal; font-size: 12pt; font-family: Aptos, sans-serif;&quot; class=&quot;MsoListParagraphCxSpLast&quot;&gt;- activeListings: List&amp;lt;Listing&amp;gt;&lt;/p&gt;" style="text;strokeColor=none;fillColor=none;spacingLeft=4;spacingRight=4;overflow=hidden;rotatable=0;points=[[0,0.5],[1,0.5]];portConstraint=eastwest;fontSize=12;whiteSpace=wrap;html=1;align=left;" vertex="1" parent="s5jDc6gKKT0ccCfi1KdD-4">
          <mxGeometry y="26" width="319" height="103" as="geometry" />
        </mxCell>
        <mxCell id="s5jDc6gKKT0ccCfi1KdD-6" value="&lt;p style=&quot;margin: 0in 0in 0in 0.5in; line-height: normal; font-size: 12pt; font-family: Aptos, sans-serif;&quot; class=&quot;MsoListParagraphCxSpFirst&quot;&gt;+ createListing(): Listing&lt;/p&gt;&lt;p style=&quot;margin: 0in 0in 0in 0.5in; line-height: normal; font-size: 12pt; font-family: Aptos, sans-serif;&quot; class=&quot;MsoListParagraphCxSpMiddle&quot;&gt;+ canCreateNewListing(): Boolean&lt;/p&gt;&lt;p style=&quot;margin: 0in 0in 0in 0.5in; line-height: normal; font-size: 12pt; font-family: Aptos, sans-serif;&quot; class=&quot;MsoListParagraphCxSpMiddle&quot;&gt;+ getActiveListingsCount(): Int&lt;/p&gt;&lt;p style=&quot;margin: 0in 0in 8pt 0.5in; line-height: normal; font-size: 12pt; font-family: Aptos, sans-serif;&quot; class=&quot;MsoListParagraphCxSpLast&quot;&gt;+ getAvailability(): List&amp;lt;TimeSlot&amp;gt;&lt;/p&gt;" style="text;strokeColor=#8C7124;fillColor=none;spacingLeft=4;spacingRight=4;overflow=hidden;rotatable=0;points=[[0,0.5],[1,0.5]];portConstraint=eastwest;fontSize=12;whiteSpace=wrap;html=1;strokeWidth=2;" vertex="1" parent="s5jDc6gKKT0ccCfi1KdD-4">
          <mxGeometry y="129" width="319" height="90" as="geometry" />
        </mxCell>
        <mxCell id="s5jDc6gKKT0ccCfi1KdD-7" value="Tenant" style="swimlane;fontStyle=1;childLayout=stackLayout;horizontal=1;startSize=26;horizontalStack=0;resizeParent=1;resizeParentMax=0;resizeLast=0;collapsible=1;marginBottom=0;align=center;fontSize=14;fillColor=#ffe6cc;strokeColor=#d79b00;strokeWidth=2;" vertex="1" parent="1">
          <mxGeometry x="5091" y="-82" width="460" height="398" as="geometry">
            <mxRectangle x="1950" y="-330" width="60" height="30" as="alternateBounds" />
          </mxGeometry>
        </mxCell>
        <mxCell id="s5jDc6gKKT0ccCfi1KdD-8" value="&lt;p style=&quot;margin: 0in 0in 0in 0.5in; line-height: normal; font-size: 12pt; font-family: Aptos, sans-serif;&quot; class=&quot;MsoListParagraphCxSpFirst&quot;&gt;- id: UUID&lt;/p&gt;&lt;p style=&quot;margin: 0in 0in 0in 0.5in; line-height: normal; font-size: 12pt; font-family: Aptos, sans-serif;&quot; class=&quot;MsoListParagraphCxSpMiddle&quot;&gt;- name: String&lt;/p&gt;&lt;p style=&quot;margin: 0in 0in 0in 0.5in; line-height: normal; font-size: 12pt; font-family: Aptos, sans-serif;&quot; class=&quot;MsoListParagraphCxSpMiddle&quot;&gt;- email: String&lt;/p&gt;&lt;p style=&quot;margin: 0in 0in 0in 0.5in; line-height: normal; font-size: 12pt; font-family: Aptos, sans-serif;&quot; class=&quot;MsoListParagraphCxSpMiddle&quot;&gt;- preferences: UserPreferences&lt;/p&gt;&lt;p style=&quot;margin: 0in 0in 0in 0.5in; line-height: normal; font-size: 12pt; font-family: Aptos, sans-serif;&quot; class=&quot;MsoListParagraphCxSpMiddle&quot;&gt;- wallet: Wallet&lt;/p&gt;&lt;p style=&quot;margin: 0in 0in 0in 0.5in; line-height: normal; font-size: 12pt; font-family: Aptos, sans-serif;&quot; class=&quot;MsoListParagraphCxSpMiddle&quot;&gt;- activeContracts: List&amp;lt;RentalContract&amp;gt;&lt;/p&gt;&lt;p style=&quot;margin: 0in 0in 0in 0.5in; line-height: normal; font-size: 12pt; font-family: Aptos, sans-serif;&quot; class=&quot;MsoListParagraphCxSpMiddle&quot;&gt;- trustScore: TrustScore&lt;/p&gt;&lt;p style=&quot;margin: 0in 0in 8pt 0.5in; line-height: normal; font-size: 12pt; font-family: Aptos, sans-serif;&quot; class=&quot;MsoListParagraphCxSpLast&quot;&gt;- verification: AccountVerification&lt;/p&gt;" style="text;strokeColor=none;fillColor=none;spacingLeft=4;spacingRight=4;overflow=hidden;rotatable=0;points=[[0,0.5],[1,0.5]];portConstraint=eastwest;fontSize=12;whiteSpace=wrap;html=1;align=left;" vertex="1" parent="s5jDc6gKKT0ccCfi1KdD-7">
          <mxGeometry y="26" width="460" height="159" as="geometry" />
        </mxCell>
        <mxCell id="s5jDc6gKKT0ccCfi1KdD-9" value="&lt;p style=&quot;margin: 0in 0in 0in 0.5in; line-height: normal; font-size: 12pt; font-family: Aptos, sans-serif;&quot; class=&quot;MsoListParagraphCxSpFirst&quot;&gt;+ search(SearchCriteria)&lt;/p&gt;&lt;p style=&quot;margin: 0in 0in 0in 0.5in; line-height: normal; font-size: 12pt; font-family: Aptos, sans-serif;&quot; class=&quot;MsoListParagraphCxSpMiddle&quot;&gt;+ applySavedPreferences(SearchCriteria)&lt;/p&gt;&lt;p style=&quot;margin: 0in 0in 0in 0.5in; line-height: normal; font-size: 12pt; font-family: Aptos, sans-serif;&quot; class=&quot;MsoListParagraphCxSpMiddle&quot;&gt;+ submitInterest(Listing)&lt;/p&gt;&lt;p style=&quot;margin: 0in 0in 0in 0.5in; line-height: normal; font-size: 12pt; font-family: Aptos, sans-serif;&quot; class=&quot;MsoListParagraphCxSpMiddle&quot;&gt;+ selectAvailability(List&amp;lt;TimeSlot&amp;gt;)&lt;/p&gt;&lt;p style=&quot;margin: 0in 0in 0in 0.5in; line-height: normal; font-size: 12pt; font-family: Aptos, sans-serif;&quot; class=&quot;MsoListParagraphCxSpMiddle&quot;&gt;+ getCurrentRentContract()&lt;/p&gt;&lt;p style=&quot;margin: 0in 0in 0in 0.5in; line-height: normal; font-size: 12pt; font-family: Aptos, sans-serif;&quot; class=&quot;MsoListParagraphCxSpMiddle&quot;&gt;+ getWalletBalance(): Decimal&lt;/p&gt;&lt;p style=&quot;margin: 0in 0in 0in 0.5in; line-height: normal; font-size: 12pt; font-family: Aptos, sans-serif;&quot; class=&quot;MsoListParagraphCxSpMiddle&quot;&gt;+ acceptRentalRequest(RentalInitiationRequest):&lt;/p&gt;&lt;p style=&quot;margin: 0in 0in 0in 0.5in; line-height: normal; font-size: 12pt; font-family: Aptos, sans-serif;&quot; class=&quot;MsoListParagraphCxSpMiddle&quot;&gt;+ uploadDocuments(List&amp;lt;SubmittedDocument&amp;gt;)&lt;/p&gt;&lt;p style=&quot;margin: 0in 0in 0in 0.5in; line-height: normal; font-size: 12pt; font-family: Aptos, sans-serif;&quot; class=&quot;MsoListParagraphCxSpMiddle&quot;&gt;+ recalculateReliability()&lt;/p&gt;&lt;p style=&quot;margin: 0in 0in 0in 0.5in; line-height: normal; font-size: 12pt; font-family: Aptos, sans-serif;&quot; class=&quot;MsoListParagraphCxSpMiddle&quot;&gt;+ viewAppointments()&lt;/p&gt;&lt;p style=&quot;margin: 0in 0in 8pt 0.5in; line-height: normal; font-size: 12pt; font-family: Aptos, sans-serif;&quot; class=&quot;MsoListParagraphCxSpLast&quot;&gt;+ declareArrival(appointment, currentLocation): Boolean&lt;/p&gt;" style="text;strokeColor=#8C7124;fillColor=none;spacingLeft=4;spacingRight=4;overflow=hidden;rotatable=0;points=[[0,0.5],[1,0.5]];portConstraint=eastwest;fontSize=12;whiteSpace=wrap;html=1;strokeWidth=2;" vertex="1" parent="s5jDc6gKKT0ccCfi1KdD-7">
          <mxGeometry y="185" width="460" height="213" as="geometry" />
        </mxCell>
        <mxCell id="s5jDc6gKKT0ccCfi1KdD-10" value="Message" style="swimlane;fontStyle=1;childLayout=stackLayout;horizontal=1;startSize=26;horizontalStack=0;resizeParent=1;resizeParentMax=0;resizeLast=0;collapsible=1;marginBottom=0;align=center;fontSize=14;fillColor=#dae8fc;strokeColor=#6c8ebf;strokeWidth=2;" vertex="1" parent="1">
          <mxGeometry x="3834" y="409.5" width="238" height="190" as="geometry">
            <mxRectangle x="1950" y="-330" width="60" height="30" as="alternateBounds" />
          </mxGeometry>
        </mxCell>
        <mxCell id="s5jDc6gKKT0ccCfi1KdD-11" value="&lt;p style=&quot;margin: 0in 0in 0in 0.5in; line-height: 18.4px; font-size: 12pt; font-family: Aptos, sans-serif;&quot; class=&quot;MsoListParagraphCxSpFirst&quot;&gt;- id: UUID&lt;/p&gt;&lt;p style=&quot;margin: 0in 0in 0in 0.5in; line-height: 18.4px; font-size: 12pt; font-family: Aptos, sans-serif;&quot; class=&quot;MsoListParagraphCxSpMiddle&quot;&gt;- sender: User&lt;/p&gt;&lt;p style=&quot;margin: 0in 0in 0in 0.5in; line-height: 18.4px; font-size: 12pt; font-family: Aptos, sans-serif;&quot; class=&quot;MsoListParagraphCxSpMiddle&quot;&gt;- chat: Chat&lt;/p&gt;&lt;p style=&quot;margin: 0in 0in 0in 0.5in; line-height: 18.4px; font-size: 12pt; font-family: Aptos, sans-serif;&quot; class=&quot;MsoListParagraphCxSpMiddle&quot;&gt;- content: String&lt;/p&gt;&lt;p style=&quot;margin: 0in 0in 0in 0.5in; line-height: 18.4px; font-size: 12pt; font-family: Aptos, sans-serif;&quot; class=&quot;MsoListParagraphCxSpMiddle&quot;&gt;- timestamp: DateTime&lt;/p&gt;&lt;p style=&quot;margin: 0in 0in 8pt 0.5in; line-height: 18.4px; font-size: 12pt; font-family: Aptos, sans-serif;&quot; class=&quot;MsoListParagraphCxSpLast&quot;&gt;- isRead: Boolean&lt;/p&gt;" style="text;strokeColor=none;fillColor=none;spacingLeft=4;spacingRight=4;overflow=hidden;rotatable=0;points=[[0,0.5],[1,0.5]];portConstraint=eastwest;fontSize=12;whiteSpace=wrap;html=1;align=left;" vertex="1" parent="s5jDc6gKKT0ccCfi1KdD-10">
          <mxGeometry y="26" width="238" height="127" as="geometry" />
        </mxCell>
        <mxCell id="s5jDc6gKKT0ccCfi1KdD-12" value="&lt;p style=&quot;margin: 0in 0in 8pt 0.5in; line-height: 18.4px; font-size: 12pt; font-family: Aptos, sans-serif;&quot; class=&quot;MsoListParagraph&quot;&gt;+ markAsRead(): void&lt;/p&gt;" style="text;strokeColor=#000066;fillColor=none;spacingLeft=4;spacingRight=4;overflow=hidden;rotatable=0;points=[[0,0.5],[1,0.5]];portConstraint=eastwest;fontSize=12;whiteSpace=wrap;html=1;strokeWidth=2;" vertex="1" parent="s5jDc6gKKT0ccCfi1KdD-10">
          <mxGeometry y="153" width="238" height="37" as="geometry" />
        </mxCell>
        <mxCell id="s5jDc6gKKT0ccCfi1KdD-13" style="edgeStyle=orthogonalEdgeStyle;rounded=0;orthogonalLoop=1;jettySize=auto;html=1;" edge="1" parent="1" source="s5jDc6gKKT0ccCfi1KdD-14" target="s5jDc6gKKT0ccCfi1KdD-8">
          <mxGeometry relative="1" as="geometry">
            <Array as="points">
              <mxPoint x="3861" y="30" />
            </Array>
          </mxGeometry>
        </mxCell>
        <mxCell id="s5jDc6gKKT0ccCfi1KdD-14" value="Chat" style="swimlane;fontStyle=1;childLayout=stackLayout;horizontal=1;startSize=26;horizontalStack=0;resizeParent=1;resizeParentMax=0;resizeLast=0;collapsible=1;marginBottom=0;align=center;fontSize=14;fillColor=#d5e8d4;strokeColor=#82b366;strokeWidth=2;" vertex="1" parent="1">
          <mxGeometry x="3689" y="85" width="344" height="185" as="geometry">
            <mxRectangle x="1950" y="-330" width="60" height="30" as="alternateBounds" />
          </mxGeometry>
        </mxCell>
        <mxCell id="s5jDc6gKKT0ccCfi1KdD-15" value="&lt;p style=&quot;margin: 0in 0in 0in 0.5in; line-height: 18.4px; font-size: 12pt; font-family: Aptos, sans-serif;&quot; class=&quot;MsoListParagraphCxSpFirst&quot;&gt;- id: UUID&lt;/p&gt;&lt;p style=&quot;margin: 0in 0in 0in 0.5in; line-height: 18.4px; font-size: 12pt; font-family: Aptos, sans-serif;&quot; class=&quot;MsoListParagraphCxSpMiddle&quot;&gt;- rentalContract: RentalContract&lt;/p&gt;&lt;p style=&quot;margin: 0in 0in 0in 0.5in; line-height: 18.4px; font-size: 12pt; font-family: Aptos, sans-serif;&quot; class=&quot;MsoListParagraphCxSpMiddle&quot;&gt;- participants: List&amp;lt;User&amp;gt;&lt;/p&gt;&lt;p style=&quot;margin: 0in 0in 8pt 0.5in; line-height: 18.4px; font-size: 12pt; font-family: Aptos, sans-serif;&quot; class=&quot;MsoListParagraphCxSpLast&quot;&gt;- messages: List&amp;lt;Message&amp;gt;&lt;/p&gt;" style="text;strokeColor=none;fillColor=none;spacingLeft=4;spacingRight=4;overflow=hidden;rotatable=0;points=[[0,0.5],[1,0.5]];portConstraint=eastwest;fontSize=12;whiteSpace=wrap;html=1;align=left;" vertex="1" parent="s5jDc6gKKT0ccCfi1KdD-14">
          <mxGeometry y="26" width="344" height="90" as="geometry" />
        </mxCell>
        <mxCell id="s5jDc6gKKT0ccCfi1KdD-16" value="&lt;p style=&quot;margin: 0in 0in 0in 0.5in; line-height: 18.4px; font-size: 12pt; font-family: Aptos, sans-serif;&quot; class=&quot;MsoListParagraphCxSpFirst&quot;&gt;+ getMessageHistory(): List&amp;lt;Message&amp;gt;&lt;/p&gt;&lt;p style=&quot;margin: 0in 0in 0in 0.5in; line-height: 18.4px; font-size: 12pt; font-family: Aptos, sans-serif;&quot; class=&quot;MsoListParagraphCxSpMiddle&quot;&gt;+ addMessage(Message): void&lt;/p&gt;&lt;p style=&quot;margin: 0in 0in 8pt 0.5in; line-height: 18.4px; font-size: 12pt; font-family: Aptos, sans-serif;&quot; class=&quot;MsoListParagraphCxSpLast&quot;&gt;+ hasParticipant(User): Boolean&lt;/p&gt;" style="text;strokeColor=#006600;fillColor=none;spacingLeft=4;spacingRight=4;overflow=hidden;rotatable=0;points=[[0,0.5],[1,0.5]];portConstraint=eastwest;fontSize=12;whiteSpace=wrap;html=1;strokeWidth=2;" vertex="1" parent="s5jDc6gKKT0ccCfi1KdD-14">
          <mxGeometry y="116" width="344" height="69" as="geometry" />
        </mxCell>
        <mxCell id="s5jDc6gKKT0ccCfi1KdD-17" style="edgeStyle=orthogonalEdgeStyle;rounded=0;orthogonalLoop=1;jettySize=auto;html=1;" edge="1" parent="1" source="s5jDc6gKKT0ccCfi1KdD-15" target="s5jDc6gKKT0ccCfi1KdD-4">
          <mxGeometry relative="1" as="geometry" />
        </mxCell>
        <mxCell id="s5jDc6gKKT0ccCfi1KdD-18" value="Chat Notification" style="swimlane;fontStyle=1;childLayout=stackLayout;horizontal=1;startSize=26;horizontalStack=0;resizeParent=1;resizeParentMax=0;resizeLast=0;collapsible=1;marginBottom=0;align=center;fontSize=14;fillColor=#dae8fc;strokeColor=#6c8ebf;strokeWidth=2;" vertex="1" parent="1">
          <mxGeometry x="5670" y="-740" width="255" height="154" as="geometry">
            <mxRectangle x="1950" y="-330" width="60" height="30" as="alternateBounds" />
          </mxGeometry>
        </mxCell>
        <mxCell id="s5jDc6gKKT0ccCfi1KdD-19" value="&lt;p style=&quot;margin: 0in 0in 0in 0.5in; line-height: 18.4px; font-size: 12pt; font-family: Aptos, sans-serif;&quot; class=&quot;MsoListParagraphCxSpFirst&quot;&gt;- chat: Chat&lt;/p&gt;&lt;p style=&quot;margin: 0in 0in 0in 0.5in; line-height: 18.4px; font-size: 12pt; font-family: Aptos, sans-serif;&quot; class=&quot;MsoListParagraphCxSpMiddle&quot;&gt;- recipient: User&lt;/p&gt;&lt;p style=&quot;margin: 0in 0in 0in 0.5in; line-height: 18.4px; font-size: 12pt; font-family: Aptos, sans-serif;&quot; class=&quot;MsoListParagraphCxSpMiddle&quot;&gt;- messagePreview: String&lt;/p&gt;&lt;p style=&quot;margin: 0in 0in 8pt 0.5in; line-height: 18.4px; font-size: 12pt; font-family: Aptos, sans-serif;&quot; class=&quot;MsoListParagraphCxSpLast&quot;&gt;&lt;span lang=&quot;EL&quot;&gt;- createdAt: DateTime&lt;/span&gt;&lt;/p&gt;" style="text;strokeColor=none;fillColor=none;spacingLeft=4;spacingRight=4;overflow=hidden;rotatable=0;points=[[0,0.5],[1,0.5]];portConstraint=eastwest;fontSize=12;whiteSpace=wrap;html=1;align=left;" vertex="1" parent="s5jDc6gKKT0ccCfi1KdD-18">
          <mxGeometry y="26" width="255" height="91" as="geometry" />
        </mxCell>
        <mxCell id="s5jDc6gKKT0ccCfi1KdD-20" value="&lt;p style=&quot;margin: 0in 0in 8pt 0.5in; line-height: 18.4px; font-size: 12pt; font-family: Aptos, sans-serif;&quot; class=&quot;MsoListParagraph&quot;&gt;&lt;span lang=&quot;EL&quot;&gt;+ send(): void&lt;/span&gt;&lt;/p&gt;" style="text;strokeColor=#000066;fillColor=none;spacingLeft=4;spacingRight=4;overflow=hidden;rotatable=0;points=[[0,0.5],[1,0.5]];portConstraint=eastwest;fontSize=12;whiteSpace=wrap;html=1;strokeWidth=2;" vertex="1" parent="s5jDc6gKKT0ccCfi1KdD-18">
          <mxGeometry y="117" width="255" height="37" as="geometry" />
        </mxCell>
        <mxCell id="s5jDc6gKKT0ccCfi1KdD-21" value="User preferences" style="swimlane;fontStyle=1;childLayout=stackLayout;horizontal=1;startSize=26;horizontalStack=0;resizeParent=1;resizeParentMax=0;resizeLast=0;collapsible=1;marginBottom=0;align=center;fontSize=14;fillColor=#dae8fc;strokeColor=#6c8ebf;strokeWidth=2;" vertex="1" parent="1">
          <mxGeometry x="5060" y="-393.5" width="423" height="177" as="geometry">
            <mxRectangle x="1950" y="-330" width="60" height="30" as="alternateBounds" />
          </mxGeometry>
        </mxCell>
        <mxCell id="s5jDc6gKKT0ccCfi1KdD-22" value="&lt;p style=&quot;margin: 0in 0in 0in 0.5in; line-height: 18.4px; font-size: 12pt; font-family: Aptos, sans-serif;&quot; class=&quot;MsoListParagraphCxSpFirst&quot;&gt;&lt;span style=&quot;background-color: transparent; color: light-dark(rgb(0, 0, 0), rgb(255, 255, 255)); font-size: 12pt;&quot;&gt;- user: Tenant&lt;/span&gt;&lt;/p&gt;&lt;p style=&quot;margin: 0in 0in 0in 0.5in; line-height: 18.4px; font-size: 12pt; font-family: Aptos, sans-serif;&quot; class=&quot;MsoListParagraphCxSpMiddle&quot;&gt;- preferredRegions: List&amp;lt;String&amp;gt;&lt;/p&gt;&lt;p style=&quot;margin: 0in 0in 0in 0.5in; line-height: 18.4px; font-size: 12pt; font-family: Aptos, sans-serif;&quot; class=&quot;MsoListParagraphCxSpMiddle&quot;&gt;- preferredTypes: List&amp;lt;String&amp;gt;&lt;/p&gt;&lt;p style=&quot;margin: 0in 0in 8pt 0.5in; line-height: 18.4px; font-size: 12pt; font-family: Aptos, sans-serif;&quot; class=&quot;MsoListParagraphCxSpLast&quot;&gt;- allowsSharing: Boolean&lt;/p&gt;" style="text;strokeColor=none;fillColor=none;spacingLeft=4;spacingRight=4;overflow=hidden;rotatable=0;points=[[0,0.5],[1,0.5]];portConstraint=eastwest;fontSize=12;whiteSpace=wrap;html=1;align=left;" vertex="1" parent="s5jDc6gKKT0ccCfi1KdD-21">
          <mxGeometry y="26" width="423" height="89" as="geometry" />
        </mxCell>
        <mxCell id="s5jDc6gKKT0ccCfi1KdD-23" value="&lt;p style=&quot;margin: 0in 0in 0in 0.5in; line-height: 18.4px; font-size: 12pt; font-family: Aptos, sans-serif;&quot; class=&quot;MsoListParagraphCxSpFirst&quot;&gt;+ applyTo(criteria: SearchCriteria): SearchCriteria&lt;/p&gt;&lt;p style=&quot;margin: 0in 0in 8pt 0.5in; line-height: 18.4px; font-size: 12pt; font-family: Aptos, sans-serif;&quot; class=&quot;MsoListParagraphCxSpLast&quot;&gt;+ isAvailable(): Boolean&lt;/p&gt;" style="text;strokeColor=#000066;fillColor=none;spacingLeft=4;spacingRight=4;overflow=hidden;rotatable=0;points=[[0,0.5],[1,0.5]];portConstraint=eastwest;fontSize=12;whiteSpace=wrap;html=1;strokeWidth=2;" vertex="1" parent="s5jDc6gKKT0ccCfi1KdD-21">
          <mxGeometry y="115" width="423" height="62" as="geometry" />
        </mxCell>
        <mxCell id="s5jDc6gKKT0ccCfi1KdD-24" value="Rental Notification" style="swimlane;fontStyle=1;childLayout=stackLayout;horizontal=1;startSize=26;horizontalStack=0;resizeParent=1;resizeParentMax=0;resizeLast=0;collapsible=1;marginBottom=0;align=center;fontSize=14;fillColor=#dae8fc;strokeColor=#6c8ebf;strokeWidth=2;" vertex="1" parent="1">
          <mxGeometry x="5687" y="-520" width="299" height="154" as="geometry">
            <mxRectangle x="1950" y="-330" width="60" height="30" as="alternateBounds" />
          </mxGeometry>
        </mxCell>
        <mxCell id="s5jDc6gKKT0ccCfi1KdD-25" value="&lt;p style=&quot;margin: 0in 0in 0in 0.5in; line-height: 18.4px; font-size: 12pt; font-family: Aptos, sans-serif;&quot; class=&quot;MsoListParagraphCxSpFirst&quot;&gt;- recipient: Tenant&lt;/p&gt;&lt;p style=&quot;margin: 0in 0in 0in 0.5in; line-height: 18.4px; font-size: 12pt; font-family: Aptos, sans-serif;&quot; class=&quot;MsoListParagraphCxSpMiddle&quot;&gt;- message: String&lt;/p&gt;&lt;p style=&quot;margin: 0in 0in 0in 0.5in; line-height: 18.4px; font-size: 12pt; font-family: Aptos, sans-serif;&quot; class=&quot;MsoListParagraphCxSpMiddle&quot;&gt;- type: enum { RentalRequest }&lt;/p&gt;&lt;p style=&quot;margin: 0in 0in 8pt 0.5in; line-height: 18.4px; font-size: 12pt; font-family: Aptos, sans-serif;&quot; class=&quot;MsoListParagraphCxSpLast&quot;&gt;- createdAt: DateTime&lt;/p&gt;" style="text;strokeColor=none;fillColor=none;spacingLeft=4;spacingRight=4;overflow=hidden;rotatable=0;points=[[0,0.5],[1,0.5]];portConstraint=eastwest;fontSize=12;whiteSpace=wrap;html=1;align=left;" vertex="1" parent="s5jDc6gKKT0ccCfi1KdD-24">
          <mxGeometry y="26" width="299" height="91" as="geometry" />
        </mxCell>
        <mxCell id="s5jDc6gKKT0ccCfi1KdD-26" value="&lt;p style=&quot;margin: 0in 0in 8pt 0.5in; line-height: 18.4px; font-size: 12pt; font-family: Aptos, sans-serif;&quot; class=&quot;MsoListParagraph&quot;&gt;+ send(): void&lt;/p&gt;" style="text;strokeColor=#000066;fillColor=none;spacingLeft=4;spacingRight=4;overflow=hidden;rotatable=0;points=[[0,0.5],[1,0.5]];portConstraint=eastwest;fontSize=12;whiteSpace=wrap;html=1;strokeWidth=2;" vertex="1" parent="s5jDc6gKKT0ccCfi1KdD-24">
          <mxGeometry y="117" width="299" height="37" as="geometry" />
        </mxCell>
        <mxCell id="s5jDc6gKKT0ccCfi1KdD-27" value="Notification" style="swimlane;fontStyle=1;childLayout=stackLayout;horizontal=1;startSize=26;horizontalStack=0;resizeParent=1;resizeParentMax=0;resizeLast=0;collapsible=1;marginBottom=0;align=center;fontSize=14;fillColor=#dae8fc;strokeColor=#6c8ebf;strokeWidth=2;" vertex="1" parent="1">
          <mxGeometry x="5110" y="-730" width="422" height="190" as="geometry">
            <mxRectangle x="1950" y="-330" width="60" height="30" as="alternateBounds" />
          </mxGeometry>
        </mxCell>
        <mxCell id="s5jDc6gKKT0ccCfi1KdD-28" value="&lt;p style=&quot;margin: 0in 0in 0in 0.5in; line-height: 18.4px; font-size: 12pt; font-family: Aptos, sans-serif;&quot; class=&quot;MsoListParagraphCxSpFirst&quot;&gt;- recipient: User&lt;/p&gt;&lt;p style=&quot;margin: 0in 0in 0in 0.5in; line-height: 18.4px; font-size: 12pt; font-family: Aptos, sans-serif;&quot; class=&quot;MsoListParagraphCxSpMiddle&quot;&gt;- message: String&lt;/p&gt;&lt;p style=&quot;margin: 0in 0in 0in 0.5in; line-height: 18.4px; font-size: 12pt; font-family: Aptos, sans-serif;&quot; class=&quot;MsoListParagraphCxSpMiddle&quot;&gt;- recipient: User&lt;/p&gt;&lt;p style=&quot;margin: 0in 0in 0in 0.5in; line-height: 18.4px; font-size: 12pt; font-family: Aptos, sans-serif;&quot; class=&quot;MsoListParagraphCxSpMiddle&quot;&gt;- type: enum { ChatMessage, Rental, Payment }&lt;/p&gt;&lt;p style=&quot;margin: 0in 0in 0in 0.5in; line-height: 18.4px; font-size: 12pt; font-family: Aptos, sans-serif;&quot; class=&quot;MsoListParagraphCxSpMiddle&quot;&gt;- status: enum { Read, Unread }&lt;/p&gt;&lt;p style=&quot;margin: 0in 0in 8pt 0.5in; line-height: 18.4px; font-size: 12pt; font-family: Aptos, sans-serif;&quot; class=&quot;MsoListParagraphCxSpLast&quot;&gt;- createdAt: DateTime&lt;/p&gt;" style="text;strokeColor=none;fillColor=none;spacingLeft=4;spacingRight=4;overflow=hidden;rotatable=0;points=[[0,0.5],[1,0.5]];portConstraint=eastwest;fontSize=12;whiteSpace=wrap;html=1;align=left;" vertex="1" parent="s5jDc6gKKT0ccCfi1KdD-27">
          <mxGeometry y="26" width="422" height="127" as="geometry" />
        </mxCell>
        <mxCell id="s5jDc6gKKT0ccCfi1KdD-29" value="&lt;p style=&quot;margin: 0in 0in 8pt 0.5in; line-height: 18.4px; font-size: 12pt; font-family: Aptos, sans-serif;&quot; class=&quot;MsoListParagraph&quot;&gt;&lt;br&gt;&lt;/p&gt;" style="text;strokeColor=#000066;fillColor=none;spacingLeft=4;spacingRight=4;overflow=hidden;rotatable=0;points=[[0,0.5],[1,0.5]];portConstraint=eastwest;fontSize=12;whiteSpace=wrap;html=1;strokeWidth=2;" vertex="1" parent="s5jDc6gKKT0ccCfi1KdD-27">
          <mxGeometry y="153" width="422" height="37" as="geometry" />
        </mxCell>
        <mxCell id="s5jDc6gKKT0ccCfi1KdD-30" value="Database" style="swimlane;fontStyle=1;childLayout=stackLayout;horizontal=1;startSize=26;horizontalStack=0;resizeParent=1;resizeParentMax=0;resizeLast=0;collapsible=1;marginBottom=0;align=center;fontSize=14;fillColor=#e1d5e7;strokeColor=#9673a6;strokeWidth=2;" vertex="1" parent="1">
          <mxGeometry x="6115" y="-810" width="494" height="742" as="geometry">
            <mxRectangle x="1950" y="-330" width="60" height="30" as="alternateBounds" />
          </mxGeometry>
        </mxCell>
        <mxCell id="s5jDc6gKKT0ccCfi1KdD-31" value="&lt;p style=&quot;margin: 0in 0in 0in 0.5in; line-height: 18.4px; font-size: 12pt; font-family: Aptos, sans-serif;&quot; class=&quot;MsoListParagraphCxSpFirst&quot;&gt;&lt;br&gt;&lt;/p&gt;" style="text;strokeColor=none;fillColor=none;spacingLeft=4;spacingRight=4;overflow=hidden;rotatable=0;points=[[0,0.5],[1,0.5]];portConstraint=eastwest;fontSize=12;whiteSpace=wrap;html=1;align=left;" vertex="1" parent="s5jDc6gKKT0ccCfi1KdD-30">
          <mxGeometry y="26" width="494" height="24" as="geometry" />
        </mxCell>
        <mxCell id="s5jDc6gKKT0ccCfi1KdD-32" value="&lt;p style=&quot;margin: 0in 0in 0in 0.5in; line-height: 18.4px; font-size: 12pt; font-family: Aptos, sans-serif;&quot; class=&quot;MsoListParagraphCxSpFirst&quot;&gt;+ saveListing(listing)&lt;/p&gt;&lt;p style=&quot;margin: 0in 0in 0in 0.5in; line-height: 18.4px; font-size: 12pt; font-family: Aptos, sans-serif;&quot; class=&quot;MsoListParagraphCxSpMiddle&quot;&gt;+ fetchUserListings(userId)&lt;/p&gt;&lt;p style=&quot;margin: 0in 0in 0in 0.5in; line-height: 18.4px; font-size: 12pt; font-family: Aptos, sans-serif;&quot; class=&quot;MsoListParagraphCxSpMiddle&quot;&gt;+ getListingsByOwner(ownerId)&lt;/p&gt;&lt;p style=&quot;margin: 0in 0in 0in 0.5in; line-height: 18.4px; font-size: 12pt; font-family: Aptos, sans-serif;&quot; class=&quot;MsoListParagraphCxSpMiddle&quot;&gt;+ saveTemporaryLocation(ownerId, location)&lt;/p&gt;&lt;p style=&quot;margin: 0in 0in 0in 0.5in; line-height: 18.4px; font-size: 12pt; font-family: Aptos, sans-serif;&quot; class=&quot;MsoListParagraphCxSpMiddle&quot;&gt;+ getListingById(id): Listing&lt;/p&gt;&lt;p style=&quot;margin: 0in 0in 0in 0.5in; line-height: 18.4px; font-size: 12pt; font-family: Aptos, sans-serif;&quot; class=&quot;MsoListParagraphCxSpMiddle&quot;&gt;+ getUserAvailability(userId): UserAvailability&lt;/p&gt;&lt;p style=&quot;margin: 0in 0in 0in 0.5in; line-height: 18.4px; font-size: 12pt; font-family: Aptos, sans-serif;&quot; class=&quot;MsoListParagraphCxSpMiddle&quot;&gt;+ saveRentalInterest(interest): void&lt;/p&gt;&lt;p style=&quot;margin: 0in 0in 0in 0.5in; line-height: 18.4px; font-size: 12pt; font-family: Aptos, sans-serif;&quot; class=&quot;MsoListParagraphCxSpMiddle&quot;&gt;+ saveRentPayment(payment): void&lt;/p&gt;&lt;p style=&quot;margin: 0in 0in 0in 0.5in; line-height: 18.4px; font-size: 12pt; font-family: Aptos, sans-serif;&quot; class=&quot;MsoListParagraphCxSpMiddle&quot;&gt;+ saveReceipt(receipt): void&lt;/p&gt;&lt;p style=&quot;margin: 0in 0in 0in 0.5in; line-height: 18.4px; font-size: 12pt; font-family: Aptos, sans-serif;&quot; class=&quot;MsoListParagraphCxSpMiddle&quot;&gt;+ updateContractStatus(contract): void&lt;/p&gt;&lt;p style=&quot;margin: 0in 0in 0in 0.5in; line-height: 18.4px; font-size: 12pt; font-family: Aptos, sans-serif;&quot; class=&quot;MsoListParagraphCxSpMiddle&quot;&gt;+ saveTopUpTransaction(TopUpTransaction): void&lt;/p&gt;&lt;p style=&quot;margin: 0in 0in 0in 0.5in; line-height: 18.4px; font-size: 12pt; font-family: Aptos, sans-serif;&quot; class=&quot;MsoListParagraphCxSpMiddle&quot;&gt;+ updateWalletBalance(userId, newBalance): void&lt;/p&gt;&lt;p style=&quot;margin: 0in 0in 0in 0.5in; line-height: 18.4px; font-size: 12pt; font-family: Aptos, sans-serif;&quot; class=&quot;MsoListParagraphCxSpMiddle&quot;&gt;+ savePaymentMethod(method): void&lt;/p&gt;&lt;p style=&quot;margin: 0in 0in 0in 0.5in; line-height: 18.4px; font-size: 12pt; font-family: Aptos, sans-serif;&quot; class=&quot;MsoListParagraphCxSpMiddle&quot;&gt;+ linkMethodToWallet(walletId, methodId): void&lt;/p&gt;&lt;p style=&quot;margin: 0in 0in 0in 0.5in; line-height: 18.4px; font-size: 12pt; font-family: Aptos, sans-serif;&quot; class=&quot;MsoListParagraphCxSpMiddle&quot;&gt;+ getInterestsForOwner(ownerId)&lt;/p&gt;&lt;p style=&quot;margin: 0in 0in 0in 0.5in; line-height: 18.4px; font-size: 12pt; font-family: Aptos, sans-serif;&quot; class=&quot;MsoListParagraphCxSpMiddle&quot;&gt;+ saveRentalRequest(RentalInitiationRequest): void&lt;/p&gt;&lt;p style=&quot;margin: 0in 0in 0in 0.5in; line-height: 18.4px; font-size: 12pt; font-family: Aptos, sans-serif;&quot; class=&quot;MsoListParagraphCxSpMiddle&quot;&gt;+ createRentalNotifications(RentalInitiationRequest): void&lt;/p&gt;&lt;p style=&quot;margin: 0in 0in 0in 0.5in; line-height: 18.4px; font-size: 12pt; font-family: Aptos, sans-serif;&quot; class=&quot;MsoListParagraphCxSpMiddle&quot;&gt;+ updateRentalRequest(RentalInitiationRequest): void&lt;/p&gt;&lt;p style=&quot;margin: 0in 0in 0in 0.5in; line-height: 18.4px; font-size: 12pt; font-family: Aptos, sans-serif;&quot; class=&quot;MsoListParagraphCxSpMiddle&quot;&gt;+ storeDocuments( List&amp;lt;SubmittedDocument&amp;gt;): void&lt;/p&gt;&lt;p style=&quot;margin: 0in 0in 0in 0.5in; line-height: 18.4px; font-size: 12pt; font-family: Aptos, sans-serif;&quot; class=&quot;MsoListParagraphCxSpMiddle&quot;&gt;+ storeNotification(notification): void&lt;/p&gt;&lt;p style=&quot;margin: 0in 0in 0in 0.5in; line-height: 18.4px; font-size: 12pt; font-family: Aptos, sans-serif;&quot; class=&quot;MsoListParagraphCxSpMiddle&quot;&gt;+ updateListingStatus(listing): void&lt;/p&gt;&lt;p style=&quot;margin: 0in 0in 8pt 0.5in; line-height: 18.4px; font-size: 12pt; font-family: Aptos, sans-serif;&quot; class=&quot;MsoListParagraphCxSpLast&quot;&gt;+ updateRentalStatus(RentalContract): void&lt;/p&gt;&lt;p style=&quot;margin: 0in 0in 0in 0.5in; line-height: 18.4px; font-size: 12pt; font-family: Aptos, sans-serif;&quot; class=&quot;MsoListParagraphCxSpFirst&quot;&gt;+ deleteRelatedInterests(listingId): void&lt;/p&gt;&lt;p style=&quot;margin: 0in 0in 0in 0.5in; line-height: 18.4px; font-size: 12pt; font-family: Aptos, sans-serif;&quot; class=&quot;MsoListParagraphCxSpMiddle&quot;&gt;+ storeContract(RentalContract): void&lt;/p&gt;&lt;p style=&quot;margin: 0in 0in 0in 0.5in; line-height: 18.4px; font-size: 12pt; font-family: Aptos, sans-serif;&quot; class=&quot;MsoListParagraphCxSpMiddle&quot;&gt;+ storeNotifications(List&amp;lt;Notification&amp;gt;): void&lt;/p&gt;&lt;p style=&quot;margin: 0in 0in 0in 0.5in; line-height: 18.4px; font-size: 12pt; font-family: Aptos, sans-serif;&quot; class=&quot;MsoListParagraphCxSpMiddle&quot;&gt;+ updateContractStatus(RentalContract): void&lt;/p&gt;&lt;p style=&quot;margin: 0in 0in 0in 0.5in; line-height: 18.4px; font-size: 12pt; font-family: Aptos, sans-serif;&quot; class=&quot;MsoListParagraphCxSpMiddle&quot;&gt;+ updateListingStatus(listn: Listing): void&lt;/p&gt;&lt;p style=&quot;margin: 0in 0in 0in 0.5in; line-height: 18.4px; font-size: 12pt; font-family: Aptos, sans-serif;&quot; class=&quot;MsoListParagraphCxSpMiddle&quot;&gt;+ insertReliabilityScore( ReliabilityScore): void&lt;/p&gt;&lt;p style=&quot;margin: 0in 0in 0in 0.5in; line-height: 18.4px; font-size: 12pt; font-family: Aptos, sans-serif;&quot; class=&quot;MsoListParagraphCxSpMiddle&quot;&gt;+ saveNotifications(List&amp;lt;Notification&amp;gt;): void&lt;/p&gt;&lt;p style=&quot;margin: 0in 0in 0in 0.5in; line-height: 18.4px; font-size: 12pt; font-family: Aptos, sans-serif;&quot; class=&quot;MsoListParagraphCxSpMiddle&quot;&gt;+ saveMessage(Message): void&lt;/p&gt;&lt;p style=&quot;margin: 0in 0in 0in 0.5in; line-height: 18.4px; font-size: 12pt; font-family: Aptos, sans-serif;&quot; class=&quot;MsoListParagraphCxSpMiddle&quot;&gt;+ getChatByContract(contractId):&lt;/p&gt;&lt;p style=&quot;margin: 0in 0in 0in 0.5in; line-height: 18.4px; font-size: 12pt; font-family: Aptos, sans-serif;&quot; class=&quot;MsoListParagraphCxSpMiddle&quot;&gt;+ getMessages(chatId): List&amp;lt;Message&amp;gt;&lt;/p&gt;&lt;p style=&quot;margin: 0in 0in 0in 0.5in; line-height: 18.4px; font-size: 12pt; font-family: Aptos, sans-serif;&quot; class=&quot;MsoListParagraphCxSpMiddle&quot;&gt;+ storeChatNotification(ChatNotification): void&lt;/p&gt;&lt;p style=&quot;margin: 0in 0in 0in 0.5in; line-height: 18.4px; font-size: 12pt; font-family: Aptos, sans-serif;&quot; class=&quot;MsoListParagraphCxSpMiddle&quot;&gt;+ getAppointmentsForUser(userId)&lt;/p&gt;&lt;p style=&quot;margin: 0in 0in 0in 0.5in; line-height: 18.4px; font-size: 12pt; font-family: Aptos, sans-serif;&quot; class=&quot;MsoListParagraphCxSpMiddle&quot;&gt;+ updateAppointmentStatus(appId, status): void&lt;/p&gt;&lt;p style=&quot;margin: 0in 0in 8pt 0.5in; line-height: 18.4px; font-size: 12pt; font-family: Aptos, sans-serif;&quot; class=&quot;MsoListParagraphCxSpLast&quot;&gt;+ storeNotification(Notification): void&lt;/p&gt;" style="text;strokeColor=#4C0099;fillColor=none;spacingLeft=4;spacingRight=4;overflow=hidden;rotatable=0;points=[[0,0.5],[1,0.5]];portConstraint=eastwest;fontSize=12;whiteSpace=wrap;html=1;strokeWidth=2;" vertex="1" parent="s5jDc6gKKT0ccCfi1KdD-30">
          <mxGeometry y="50" width="494" height="692" as="geometry" />
        </mxCell>
        <mxCell id="s5jDc6gKKT0ccCfi1KdD-33" value="Email Service" style="swimlane;fontStyle=1;childLayout=stackLayout;horizontal=1;startSize=26;horizontalStack=0;resizeParent=1;resizeParentMax=0;resizeLast=0;collapsible=1;marginBottom=0;align=center;fontSize=14;fillColor=#e1d5e7;strokeColor=#9673a6;strokeWidth=2;" vertex="1" parent="1">
          <mxGeometry x="6140" y="20" width="492" height="88" as="geometry">
            <mxRectangle x="1950" y="-330" width="60" height="30" as="alternateBounds" />
          </mxGeometry>
        </mxCell>
        <mxCell id="s5jDc6gKKT0ccCfi1KdD-34" value="&lt;p style=&quot;margin: 0in 0in 0in 0.5in; line-height: 18.4px; font-size: 12pt; font-family: Aptos, sans-serif;&quot; class=&quot;MsoListParagraphCxSpFirst&quot;&gt;&lt;br&gt;&lt;/p&gt;" style="text;strokeColor=none;fillColor=none;spacingLeft=4;spacingRight=4;overflow=hidden;rotatable=0;points=[[0,0.5],[1,0.5]];portConstraint=eastwest;fontSize=12;whiteSpace=wrap;html=1;align=left;" vertex="1" parent="s5jDc6gKKT0ccCfi1KdD-33">
          <mxGeometry y="26" width="492" height="24" as="geometry" />
        </mxCell>
        <mxCell id="s5jDc6gKKT0ccCfi1KdD-35" value="&lt;p style=&quot;margin: 0in 0in 8pt 0.5in; line-height: normal; font-size: 12pt; font-family: Aptos, sans-serif;&quot; class=&quot;MsoNormal&quot;&gt;+ sendEmail(to, subject, body): Boolean&lt;b&gt;&lt;/b&gt;&lt;/p&gt;" style="text;strokeColor=#4C0099;fillColor=none;spacingLeft=4;spacingRight=4;overflow=hidden;rotatable=0;points=[[0,0.5],[1,0.5]];portConstraint=eastwest;fontSize=12;whiteSpace=wrap;html=1;strokeWidth=2;" vertex="1" parent="s5jDc6gKKT0ccCfi1KdD-33">
          <mxGeometry y="50" width="492" height="38" as="geometry" />
        </mxCell>
        <mxCell id="s5jDc6gKKT0ccCfi1KdD-36" value="User Profile Stats" style="swimlane;fontStyle=1;childLayout=stackLayout;horizontal=1;startSize=26;horizontalStack=0;resizeParent=1;resizeParentMax=0;resizeLast=0;collapsible=1;marginBottom=0;align=center;fontSize=14;fillColor=#dae8fc;strokeColor=#6c8ebf;strokeWidth=2;" vertex="1" parent="1">
          <mxGeometry x="3880" y="-721" width="424" height="271" as="geometry">
            <mxRectangle x="1950" y="-330" width="60" height="30" as="alternateBounds" />
          </mxGeometry>
        </mxCell>
        <mxCell id="s5jDc6gKKT0ccCfi1KdD-37" value="&lt;p style=&quot;margin: 0in 0in 8pt 0.5in; line-height: 18.4px; font-size: 12pt; font-family: Aptos, sans-serif;&quot; class=&quot;MsoNormal&quot;&gt;- averageRating: Float&lt;/p&gt;&lt;p style=&quot;margin: 0in 0in 8pt 0.5in; line-height: 18.4px; font-size: 12pt; font-family: Aptos, sans-serif;&quot; class=&quot;MsoNormal&quot;&gt;- totalReviews: Int&lt;/p&gt;&lt;p style=&quot;margin: 0in 0in 8pt 0.5in; line-height: 18.4px; font-size: 12pt; font-family: Aptos, sans-serif;&quot; class=&quot;MsoNormal&quot;&gt;- ratingVariance: Float&lt;/p&gt;&lt;p style=&quot;margin: 0in 0in 8pt 0.5in; line-height: 18.4px; font-size: 12pt; font-family: Aptos, sans-serif;&quot; class=&quot;MsoNormal&quot;&gt;- mostSelectedCharacteristics: List&amp;lt;String&amp;gt;&lt;/p&gt;&lt;p style=&quot;margin: 0in 0in 8pt 0.5in; line-height: 18.4px; font-size: 12pt; font-family: Aptos, sans-serif;&quot; class=&quot;MsoNormal&quot;&gt;- frequentCharacteristics: List&amp;lt;String&amp;gt;&lt;/p&gt;" style="text;strokeColor=none;fillColor=none;spacingLeft=4;spacingRight=4;overflow=hidden;rotatable=0;points=[[0,0.5],[1,0.5]];portConstraint=eastwest;fontSize=12;whiteSpace=wrap;html=1;align=left;" vertex="1" parent="s5jDc6gKKT0ccCfi1KdD-36">
          <mxGeometry y="26" width="424" height="150" as="geometry" />
        </mxCell>
        <mxCell id="s5jDc6gKKT0ccCfi1KdD-38" value="&lt;p style=&quot;margin: 0in 0in 8pt 0.5in; line-height: 18.4px; font-size: 12pt; font-family: Aptos, sans-serif;&quot; class=&quot;MsoNormal&quot;&gt;+ updateAfterReview(review: Review): void&lt;/p&gt;&lt;p style=&quot;margin: 0in 0in 8pt 0.5in; line-height: 18.4px; font-size: 12pt; font-family: Aptos, sans-serif;&quot; class=&quot;MsoNormal&quot;&gt;+ calculateVariance(): Float&lt;/p&gt;&lt;p style=&quot;margin: 0in 0in 8pt 0.5in; line-height: 18.4px; font-size: 12pt; font-family: Aptos, sans-serif;&quot; class=&quot;MsoNormal&quot;&gt;+ getFrequentTerms(): List&amp;lt;String&amp;gt;&lt;/p&gt;" style="text;strokeColor=#000066;fillColor=none;spacingLeft=4;spacingRight=4;overflow=hidden;rotatable=0;points=[[0,0.5],[1,0.5]];portConstraint=eastwest;fontSize=12;whiteSpace=wrap;html=1;strokeWidth=2;" vertex="1" parent="s5jDc6gKKT0ccCfi1KdD-36">
          <mxGeometry y="176" width="424" height="95" as="geometry" />
        </mxCell>
        <mxCell id="s5jDc6gKKT0ccCfi1KdD-39" value="Trust Score" style="swimlane;fontStyle=1;childLayout=stackLayout;horizontal=1;startSize=26;horizontalStack=0;resizeParent=1;resizeParentMax=0;resizeLast=0;collapsible=1;marginBottom=0;align=center;fontSize=14;fillColor=#dae8fc;strokeColor=#6c8ebf;strokeWidth=2;" vertex="1" parent="1">
          <mxGeometry x="3340" y="-721" width="458" height="155" as="geometry">
            <mxRectangle x="1950" y="-330" width="60" height="30" as="alternateBounds" />
          </mxGeometry>
        </mxCell>
        <mxCell id="s5jDc6gKKT0ccCfi1KdD-40" value="&lt;p style=&quot;margin: 0in 0in 0in 0.5in; line-height: 18.4px; font-size: 12pt; font-family: Aptos, sans-serif;&quot; class=&quot;MsoListParagraphCxSpFirst&quot;&gt;- user: User&lt;/p&gt;&lt;p style=&quot;margin: 0in 0in 0in 0.5in; line-height: 18.4px; font-size: 12pt; font-family: Aptos, sans-serif;&quot; class=&quot;MsoListParagraphCxSpMiddle&quot;&gt;- value: Float&lt;/p&gt;&lt;p style=&quot;margin: 0in 0in 8pt 0.5in; line-height: 18.4px; font-size: 12pt; font-family: Aptos, sans-serif;&quot; class=&quot;MsoListParagraphCxSpLast&quot;&gt;- label: String&lt;/p&gt;" style="text;strokeColor=none;fillColor=none;spacingLeft=4;spacingRight=4;overflow=hidden;rotatable=0;points=[[0,0.5],[1,0.5]];portConstraint=eastwest;fontSize=12;whiteSpace=wrap;html=1;align=left;" vertex="1" parent="s5jDc6gKKT0ccCfi1KdD-39">
          <mxGeometry y="26" width="458" height="73" as="geometry" />
        </mxCell>
        <mxCell id="s5jDc6gKKT0ccCfi1KdD-41" value="&lt;p style=&quot;margin: 0in 0in 0in 0.5in; line-height: 18.4px; font-size: 12pt; font-family: Aptos, sans-serif;&quot; class=&quot;MsoListParagraphCxSpFirst&quot;&gt;+ calculate(UserProfileStats, experienceCount): Float&lt;/p&gt;&lt;p style=&quot;margin: 0in 0in 8pt 0.5in; line-height: 18.4px; font-size: 12pt; font-family: Aptos, sans-serif;&quot; class=&quot;MsoListParagraphCxSpLast&quot;&gt;+ classify(): String&lt;/p&gt;" style="text;strokeColor=#000066;fillColor=none;spacingLeft=4;spacingRight=4;overflow=hidden;rotatable=0;points=[[0,0.5],[1,0.5]];portConstraint=eastwest;fontSize=12;whiteSpace=wrap;html=1;strokeWidth=2;" vertex="1" parent="s5jDc6gKKT0ccCfi1KdD-39">
          <mxGeometry y="99" width="458" height="56" as="geometry" />
        </mxCell>
        <mxCell id="s5jDc6gKKT0ccCfi1KdD-42" value="Reliability Score" style="swimlane;fontStyle=1;childLayout=stackLayout;horizontal=1;startSize=26;horizontalStack=0;resizeParent=1;resizeParentMax=0;resizeLast=0;collapsible=1;marginBottom=0;align=center;fontSize=14;fillColor=#dae8fc;strokeColor=#6c8ebf;strokeWidth=2;" vertex="1" parent="1">
          <mxGeometry x="3400" y="-495" width="275" height="165" as="geometry">
            <mxRectangle x="1950" y="-330" width="60" height="30" as="alternateBounds" />
          </mxGeometry>
        </mxCell>
        <mxCell id="s5jDc6gKKT0ccCfi1KdD-43" value="&lt;p style=&quot;margin: 0in 0in 0in 0.5in; line-height: 18.4px; font-size: 12pt; font-family: Aptos, sans-serif;&quot; class=&quot;MsoListParagraphCxSpFirst&quot;&gt;- tenant: Tenant&lt;/p&gt;&lt;p style=&quot;margin: 0in 0in 0in 0.5in; line-height: 18.4px; font-size: 12pt; font-family: Aptos, sans-serif;&quot; class=&quot;MsoListParagraphCxSpMiddle&quot;&gt;- onTimePayments: Int&lt;/p&gt;&lt;p style=&quot;margin: 0in 0in 0in 0.5in; line-height: 18.4px; font-size: 12pt; font-family: Aptos, sans-serif;&quot; class=&quot;MsoListParagraphCxSpMiddle&quot;&gt;- totalPayments: Int&lt;/p&gt;&lt;p style=&quot;margin: 0in 0in 8pt 0.5in; line-height: 18.4px; font-size: 12pt; font-family: Aptos, sans-serif;&quot; class=&quot;MsoListParagraphCxSpLast&quot;&gt;- score: Float&lt;/p&gt;" style="text;strokeColor=none;fillColor=none;spacingLeft=4;spacingRight=4;overflow=hidden;rotatable=0;points=[[0,0.5],[1,0.5]];portConstraint=eastwest;fontSize=12;whiteSpace=wrap;html=1;align=left;" vertex="1" parent="s5jDc6gKKT0ccCfi1KdD-42">
          <mxGeometry y="26" width="275" height="98" as="geometry" />
        </mxCell>
        <mxCell id="s5jDc6gKKT0ccCfi1KdD-44" value="&lt;p style=&quot;margin: 0in 0in 8pt 0.5in; line-height: 18.4px; font-size: 12pt; font-family: Aptos, sans-serif;&quot; class=&quot;MsoListParagraph&quot;&gt;+ updateScore(): void&lt;/p&gt;" style="text;strokeColor=#000066;fillColor=none;spacingLeft=4;spacingRight=4;overflow=hidden;rotatable=0;points=[[0,0.5],[1,0.5]];portConstraint=eastwest;fontSize=12;whiteSpace=wrap;html=1;strokeWidth=2;" vertex="1" parent="s5jDc6gKKT0ccCfi1KdD-42">
          <mxGeometry y="124" width="275" height="41" as="geometry" />
        </mxCell>
        <mxCell id="s5jDc6gKKT0ccCfi1KdD-45" style="edgeStyle=orthogonalEdgeStyle;rounded=0;orthogonalLoop=1;jettySize=auto;html=1;exitX=1;exitY=0.5;exitDx=0;exitDy=0;" edge="1" parent="s5jDc6gKKT0ccCfi1KdD-42" source="s5jDc6gKKT0ccCfi1KdD-43" target="s5jDc6gKKT0ccCfi1KdD-43">
          <mxGeometry relative="1" as="geometry" />
        </mxCell>
        <mxCell id="s5jDc6gKKT0ccCfi1KdD-46" value="Rating Profile" style="swimlane;fontStyle=1;childLayout=stackLayout;horizontal=1;startSize=26;horizontalStack=0;resizeParent=1;resizeParentMax=0;resizeLast=0;collapsible=1;marginBottom=0;align=center;fontSize=14;fillColor=#dae8fc;strokeColor=#6c8ebf;strokeWidth=2;" vertex="1" parent="1">
          <mxGeometry x="3310" y="-282" width="356" height="214" as="geometry">
            <mxRectangle x="1950" y="-330" width="60" height="30" as="alternateBounds" />
          </mxGeometry>
        </mxCell>
        <mxCell id="s5jDc6gKKT0ccCfi1KdD-47" value="&lt;p style=&quot;margin: 0in 0in 8pt 0.5in; line-height: 18.4px; font-size: 12pt; font-family: Aptos, sans-serif;&quot; class=&quot;MsoNormal&quot;&gt;- user: User&lt;/p&gt;&lt;p style=&quot;margin: 0in 0in 8pt 0.5in; line-height: 18.4px; font-size: 12pt; font-family: Aptos, sans-serif;&quot; class=&quot;MsoNormal&quot;&gt;- averageRating: Float&lt;/p&gt;&lt;p style=&quot;margin: 0in 0in 8pt 0.5in; line-height: 18.4px; font-size: 12pt; font-family: Aptos, sans-serif;&quot; class=&quot;MsoNormal&quot;&gt;- totalReviews: Int&lt;/p&gt;&lt;p style=&quot;margin: 0in 0in 8pt 0.5in; line-height: 18.4px; font-size: 12pt; font-family: Aptos, sans-serif;&quot; class=&quot;MsoNormal&quot;&gt;- visible: Boolean&lt;/p&gt;" style="text;strokeColor=none;fillColor=none;spacingLeft=4;spacingRight=4;overflow=hidden;rotatable=0;points=[[0,0.5],[1,0.5]];portConstraint=eastwest;fontSize=12;whiteSpace=wrap;html=1;align=left;" vertex="1" parent="s5jDc6gKKT0ccCfi1KdD-46">
          <mxGeometry y="26" width="356" height="119" as="geometry" />
        </mxCell>
        <mxCell id="s5jDc6gKKT0ccCfi1KdD-48" value="&lt;p style=&quot;margin: 0in 0in 8pt 0.5in; line-height: 18.4px; font-size: 12pt; font-family: Aptos, sans-serif;&quot; class=&quot;MsoNormal&quot;&gt;+ updateWithNewReview(Review): void&lt;/p&gt;&lt;p style=&quot;margin: 0in 0in 8pt 0.5in; line-height: 18.4px; font-size: 12pt; font-family: Aptos, sans-serif;&quot; class=&quot;MsoNormal&quot;&gt;+ calculateStats(): void&lt;/p&gt;" style="text;strokeColor=#000066;fillColor=none;spacingLeft=4;spacingRight=4;overflow=hidden;rotatable=0;points=[[0,0.5],[1,0.5]];portConstraint=eastwest;fontSize=12;whiteSpace=wrap;html=1;strokeWidth=2;" vertex="1" parent="s5jDc6gKKT0ccCfi1KdD-46">
          <mxGeometry y="145" width="356" height="69" as="geometry" />
        </mxCell>
        <mxCell id="s5jDc6gKKT0ccCfi1KdD-49" style="edgeStyle=orthogonalEdgeStyle;rounded=0;orthogonalLoop=1;jettySize=auto;html=1;exitX=1;exitY=0.5;exitDx=0;exitDy=0;" edge="1" parent="s5jDc6gKKT0ccCfi1KdD-46" source="s5jDc6gKKT0ccCfi1KdD-47" target="s5jDc6gKKT0ccCfi1KdD-47">
          <mxGeometry relative="1" as="geometry" />
        </mxCell>
        <mxCell id="s5jDc6gKKT0ccCfi1KdD-50" value="Experience" style="swimlane;fontStyle=1;childLayout=stackLayout;horizontal=1;startSize=26;horizontalStack=0;resizeParent=1;resizeParentMax=0;resizeLast=0;collapsible=1;marginBottom=0;align=center;fontSize=14;fillColor=#d5e8d4;strokeColor=#82b366;strokeWidth=2;" vertex="1" parent="1">
          <mxGeometry x="5711" y="44.5" width="344" height="241" as="geometry">
            <mxRectangle x="1950" y="-330" width="60" height="30" as="alternateBounds" />
          </mxGeometry>
        </mxCell>
        <mxCell id="s5jDc6gKKT0ccCfi1KdD-51" value="&lt;p style=&quot;margin: 0in 0in 0in 0.5in; line-height: 18.4px; font-size: 12pt; font-family: Aptos, sans-serif;&quot; class=&quot;MsoListParagraphCxSpFirst&quot;&gt;- id: UUID&lt;/p&gt;&lt;p style=&quot;margin: 0in 0in 0in 0.5in; line-height: 18.4px; font-size: 12pt; font-family: Aptos, sans-serif;&quot; class=&quot;MsoListParagraphCxSpMiddle&quot;&gt;- listing: Listing&lt;/p&gt;&lt;p style=&quot;margin: 0in 0in 0in 0.5in; line-height: 18.4px; font-size: 12pt; font-family: Aptos, sans-serif;&quot; class=&quot;MsoListParagraphCxSpMiddle&quot;&gt;- participants: List&amp;lt;User&amp;gt;&lt;/p&gt;&lt;p style=&quot;margin: 0in 0in 0in 0.5in; line-height: 18.4px; font-size: 12pt; font-family: Aptos, sans-serif;&quot; class=&quot;MsoListParagraphCxSpMiddle&quot;&gt;- startDate: Date&lt;/p&gt;&lt;p style=&quot;margin: 0in 0in 0in 0.5in; line-height: 18.4px; font-size: 12pt; font-family: Aptos, sans-serif;&quot; class=&quot;MsoListParagraphCxSpMiddle&quot;&gt;- endDate: Date&lt;/p&gt;&lt;p style=&quot;margin: 0in 0in 0in 0.5in; line-height: 18.4px; font-size: 12pt; font-family: Aptos, sans-serif;&quot; class=&quot;MsoListParagraphCxSpMiddle&quot;&gt;- type: enum { Rental, CoLiving }&lt;/p&gt;&lt;p style=&quot;margin: 0in 0in 0in 0.5in; line-height: 18.4px; font-size: 12pt; font-family: Aptos, sans-serif;&quot; class=&quot;MsoListParagraphCxSpMiddle&quot;&gt;- isCompleted: Boolean&lt;/p&gt;&lt;p style=&quot;margin: 0in 0in 8pt 0.5in; line-height: 18.4px; font-size: 12pt; font-family: Aptos, sans-serif;&quot; class=&quot;MsoListParagraphCxSpLast&quot;&gt;- rolePerUser: Map&amp;lt;User, String&amp;gt;&lt;/p&gt;" style="text;strokeColor=none;fillColor=none;spacingLeft=4;spacingRight=4;overflow=hidden;rotatable=0;points=[[0,0.5],[1,0.5]];portConstraint=eastwest;fontSize=12;whiteSpace=wrap;html=1;align=left;" vertex="1" parent="s5jDc6gKKT0ccCfi1KdD-50">
          <mxGeometry y="26" width="344" height="160" as="geometry" />
        </mxCell>
        <mxCell id="s5jDc6gKKT0ccCfi1KdD-52" value="&lt;p style=&quot;margin: 0in 0in 0in 0.5in; line-height: 18.4px; font-size: 12pt; font-family: Aptos, sans-serif;&quot; class=&quot;MsoListParagraphCxSpFirst&quot;&gt;+ isEligibleForReview()&lt;/p&gt;&lt;p style=&quot;margin: 0in 0in 8pt 0.5in; line-height: 18.4px; font-size: 12pt; font-family: Aptos, sans-serif;&quot; class=&quot;MsoListParagraphCxSpLast&quot;&gt;+ getUserExperienceCount(userId)&lt;/p&gt;" style="text;strokeColor=#006600;fillColor=none;spacingLeft=4;spacingRight=4;overflow=hidden;rotatable=0;points=[[0,0.5],[1,0.5]];portConstraint=eastwest;fontSize=12;whiteSpace=wrap;html=1;strokeWidth=2;" vertex="1" parent="s5jDc6gKKT0ccCfi1KdD-50">
          <mxGeometry y="186" width="344" height="55" as="geometry" />
        </mxCell>
        <mxCell id="s5jDc6gKKT0ccCfi1KdD-53" value="Experience History" style="swimlane;fontStyle=1;childLayout=stackLayout;horizontal=1;startSize=26;horizontalStack=0;resizeParent=1;resizeParentMax=0;resizeLast=0;collapsible=1;marginBottom=0;align=center;fontSize=14;fillColor=#dae8fc;strokeColor=#6c8ebf;strokeWidth=2;" vertex="1" parent="1">
          <mxGeometry x="6447" y="212" width="484" height="128" as="geometry">
            <mxRectangle x="1950" y="-330" width="60" height="30" as="alternateBounds" />
          </mxGeometry>
        </mxCell>
        <mxCell id="s5jDc6gKKT0ccCfi1KdD-54" value="&lt;p style=&quot;margin: 0in 0in 0in 0.5in; line-height: 18.4px; font-size: 12pt; font-family: Aptos, sans-serif;&quot; class=&quot;MsoListParagraphCxSpFirst&quot;&gt;- user: User&lt;/p&gt;&lt;p style=&quot;margin: 0in 0in 8pt 0.5in; line-height: 18.4px; font-size: 12pt; font-family: Aptos, sans-serif;&quot; class=&quot;MsoListParagraphCxSpLast&quot;&gt;- experiences: List&amp;lt;Experience&amp;gt;&lt;/p&gt;" style="text;strokeColor=none;fillColor=none;spacingLeft=4;spacingRight=4;overflow=hidden;rotatable=0;points=[[0,0.5],[1,0.5]];portConstraint=eastwest;fontSize=12;whiteSpace=wrap;html=1;align=left;" vertex="1" parent="s5jDc6gKKT0ccCfi1KdD-53">
          <mxGeometry y="26" width="484" height="51" as="geometry" />
        </mxCell>
        <mxCell id="s5jDc6gKKT0ccCfi1KdD-55" value="&lt;p style=&quot;margin: 0in 0in 0in 0.5in; line-height: 18.4px; font-size: 12pt; font-family: Aptos, sans-serif;&quot; class=&quot;MsoListParagraphCxSpFirst&quot;&gt;+ getRecentCompletedExperiences(): List&amp;lt;Experience&amp;gt;&lt;/p&gt;&lt;p style=&quot;margin: 0in 0in 8pt 0.5in; line-height: 18.4px; font-size: 12pt; font-family: Aptos, sans-serif;&quot; class=&quot;MsoListParagraphCxSpLast&quot;&gt;+ filterValidForReview(): List&amp;lt;Experience&amp;gt;&lt;/p&gt;" style="text;strokeColor=#000066;fillColor=none;spacingLeft=4;spacingRight=4;overflow=hidden;rotatable=0;points=[[0,0.5],[1,0.5]];portConstraint=eastwest;fontSize=12;whiteSpace=wrap;html=1;strokeWidth=2;" vertex="1" parent="s5jDc6gKKT0ccCfi1KdD-53">
          <mxGeometry y="77" width="484" height="51" as="geometry" />
        </mxCell>
        <mxCell id="s5jDc6gKKT0ccCfi1KdD-56" value="Search Criteria" style="swimlane;fontStyle=1;childLayout=stackLayout;horizontal=1;startSize=26;horizontalStack=0;resizeParent=1;resizeParentMax=0;resizeLast=0;collapsible=1;marginBottom=0;align=center;fontSize=14;fillColor=#dae8fc;strokeColor=#6c8ebf;strokeWidth=2;" vertex="1" parent="1">
          <mxGeometry x="5631" y="461" width="484" height="189" as="geometry">
            <mxRectangle x="1950" y="-330" width="60" height="30" as="alternateBounds" />
          </mxGeometry>
        </mxCell>
        <mxCell id="s5jDc6gKKT0ccCfi1KdD-57" value="&lt;p style=&quot;margin: 0in 0in 0in 0.5in; line-height: 18.4px; font-size: 12pt; font-family: Aptos, sans-serif;&quot; class=&quot;MsoListParagraphCxSpFirst&quot;&gt;- region: String&lt;/p&gt;&lt;p style=&quot;margin: 0in 0in 0in 0.5in; line-height: 18.4px; font-size: 12pt; font-family: Aptos, sans-serif;&quot; class=&quot;MsoListParagraphCxSpMiddle&quot;&gt;- propertyType: String&lt;/p&gt;&lt;p style=&quot;margin: 0in 0in 0in 0.5in; line-height: 18.4px; font-size: 12pt; font-family: Aptos, sans-serif;&quot; class=&quot;MsoListParagraphCxSpMiddle&quot;&gt;- allowsSharing: Boolean&lt;/p&gt;&lt;p style=&quot;margin: 0in 0in 0in 0.5in; line-height: 18.4px; font-size: 12pt; font-family: Aptos, sans-serif;&quot; class=&quot;MsoListParagraphCxSpMiddle&quot;&gt;- minPrice: Decimal&lt;/p&gt;&lt;p style=&quot;margin: 0in 0in 8pt 0.5in; line-height: 18.4px; font-size: 12pt; font-family: Aptos, sans-serif;&quot; class=&quot;MsoListParagraphCxSpLast&quot;&gt;- maxPrice: Decimal&lt;/p&gt;" style="text;strokeColor=none;fillColor=none;spacingLeft=4;spacingRight=4;overflow=hidden;rotatable=0;points=[[0,0.5],[1,0.5]];portConstraint=eastwest;fontSize=12;whiteSpace=wrap;html=1;align=left;" vertex="1" parent="s5jDc6gKKT0ccCfi1KdD-56">
          <mxGeometry y="26" width="484" height="105" as="geometry" />
        </mxCell>
        <mxCell id="s5jDc6gKKT0ccCfi1KdD-58" value="&lt;p style=&quot;margin: 0in 0in 0in 0.5in; line-height: 18.4px; font-size: 12pt; font-family: Aptos, sans-serif;&quot; class=&quot;MsoListParagraphCxSpFirst&quot;&gt;+ isValid(): Boolean&lt;/p&gt;&lt;p style=&quot;margin: 0in 0in 8pt 0.5in; line-height: 18.4px; font-size: 12pt; font-family: Aptos, sans-serif;&quot; class=&quot;MsoListParagraphCxSpLast&quot;&gt;+ match(listing: Listing): Boolean&lt;/p&gt;" style="text;strokeColor=#000066;fillColor=none;spacingLeft=4;spacingRight=4;overflow=hidden;rotatable=0;points=[[0,0.5],[1,0.5]];portConstraint=eastwest;fontSize=12;whiteSpace=wrap;html=1;strokeWidth=2;" vertex="1" parent="s5jDc6gKKT0ccCfi1KdD-56">
          <mxGeometry y="131" width="484" height="58" as="geometry" />
        </mxCell>
        <mxCell id="s5jDc6gKKT0ccCfi1KdD-59" value="" style="endArrow=diamondThin;endFill=1;endSize=24;html=1;rounded=0;entryX=1.001;entryY=0.393;entryDx=0;entryDy=0;exitX=0.75;exitY=0;exitDx=0;exitDy=0;entryPerimeter=0;" edge="1" parent="s5jDc6gKKT0ccCfi1KdD-56" source="s5jDc6gKKT0ccCfi1KdD-66">
          <mxGeometry width="160" relative="1" as="geometry">
            <mxPoint x="367" y="187.33000000000004" as="sourcePoint" />
            <mxPoint x="229" y="187.33000000000004" as="targetPoint" />
          </mxGeometry>
        </mxCell>
        <mxCell id="s5jDc6gKKT0ccCfi1KdD-60" value="Reiview" style="swimlane;fontStyle=1;childLayout=stackLayout;horizontal=1;startSize=26;horizontalStack=0;resizeParent=1;resizeParentMax=0;resizeLast=0;collapsible=1;marginBottom=0;align=center;fontSize=14;fillColor=#dae8fc;strokeColor=#6c8ebf;strokeWidth=2;" vertex="1" parent="1">
          <mxGeometry x="6277" y="533" width="484" height="258" as="geometry">
            <mxRectangle x="1950" y="-330" width="60" height="30" as="alternateBounds" />
          </mxGeometry>
        </mxCell>
        <mxCell id="s5jDc6gKKT0ccCfi1KdD-61" value="&lt;p style=&quot;margin: 0in 0in 0in 0.5in; line-height: 18.4px; font-size: 12pt; font-family: Aptos, sans-serif;&quot; class=&quot;MsoListParagraphCxSpFirst&quot;&gt;- id: UUID&lt;/p&gt;&lt;p style=&quot;margin: 0in 0in 0in 0.5in; line-height: 18.4px; font-size: 12pt; font-family: Aptos, sans-serif;&quot; class=&quot;MsoListParagraphCxSpMiddle&quot;&gt;- reviewer: User&lt;/p&gt;&lt;p style=&quot;margin: 0in 0in 0in 0.5in; line-height: 18.4px; font-size: 12pt; font-family: Aptos, sans-serif;&quot; class=&quot;MsoListParagraphCxSpMiddle&quot;&gt;- reviewedUser: User&lt;/p&gt;&lt;p style=&quot;margin: 0in 0in 0in 0.5in; line-height: 18.4px; font-size: 12pt; font-family: Aptos, sans-serif;&quot; class=&quot;MsoListParagraphCxSpMiddle&quot;&gt;- experience: Experience&lt;/p&gt;&lt;p style=&quot;margin: 0in 0in 0in 0.5in; line-height: 18.4px; font-size: 12pt; font-family: Aptos, sans-serif;&quot; class=&quot;MsoListParagraphCxSpMiddle&quot;&gt;- rating: Int (1-5)&lt;/p&gt;&lt;p style=&quot;margin: 0in 0in 0in 0.5in; line-height: 18.4px; font-size: 12pt; font-family: Aptos, sans-serif;&quot; class=&quot;MsoListParagraphCxSpMiddle&quot;&gt;- characteristics: List&amp;lt;String&amp;gt;&lt;/p&gt;&lt;p style=&quot;margin: 0in 0in 0in 0.5in; line-height: 18.4px; font-size: 12pt; font-family: Aptos, sans-serif;&quot; class=&quot;MsoListParagraphCxSpMiddle&quot;&gt;- comment: String?&lt;/p&gt;&lt;p style=&quot;margin: 0in 0in 0in 0.5in; line-height: 18.4px; font-size: 12pt; font-family: Aptos, sans-serif;&quot; class=&quot;MsoListParagraphCxSpMiddle&quot;&gt;- visibleOnProfile: Boolean&lt;/p&gt;&lt;p style=&quot;margin: 0in 0in 8pt 0.5in; line-height: 18.4px; font-size: 12pt; font-family: Aptos, sans-serif;&quot; class=&quot;MsoListParagraphCxSpLast&quot;&gt;- createdAt: DateTime&lt;/p&gt;" style="text;strokeColor=none;fillColor=none;spacingLeft=4;spacingRight=4;overflow=hidden;rotatable=0;points=[[0,0.5],[1,0.5]];portConstraint=eastwest;fontSize=12;whiteSpace=wrap;html=1;align=left;" vertex="1" parent="s5jDc6gKKT0ccCfi1KdD-60">
          <mxGeometry y="26" width="484" height="181" as="geometry" />
        </mxCell>
        <mxCell id="s5jDc6gKKT0ccCfi1KdD-62" value="&lt;p style=&quot;margin: 0in 0in 0in 0.5in; line-height: 18.4px; font-size: 12pt; font-family: Aptos, sans-serif;&quot; class=&quot;MsoListParagraphCxSpFirst&quot;&gt;+ validate(): Boolean&lt;/p&gt;&lt;p style=&quot;margin: 0in 0in 8pt 0.5in; line-height: 18.4px; font-size: 12pt; font-family: Aptos, sans-serif;&quot; class=&quot;MsoListParagraphCxSpLast&quot;&gt;+ submit(): Boolean&lt;/p&gt;" style="text;strokeColor=#000066;fillColor=none;spacingLeft=4;spacingRight=4;overflow=hidden;rotatable=0;points=[[0,0.5],[1,0.5]];portConstraint=eastwest;fontSize=12;whiteSpace=wrap;html=1;strokeWidth=2;" vertex="1" parent="s5jDc6gKKT0ccCfi1KdD-60">
          <mxGeometry y="207" width="484" height="51" as="geometry" />
        </mxCell>
        <mxCell id="s5jDc6gKKT0ccCfi1KdD-63" value="Review Form" style="swimlane;fontStyle=1;childLayout=stackLayout;horizontal=1;startSize=26;horizontalStack=0;resizeParent=1;resizeParentMax=0;resizeLast=0;collapsible=1;marginBottom=0;align=center;fontSize=14;fillColor=#dae8fc;strokeColor=#6c8ebf;strokeWidth=2;" vertex="1" parent="1">
          <mxGeometry x="6899" y="530" width="347" height="188" as="geometry">
            <mxRectangle x="1950" y="-330" width="60" height="30" as="alternateBounds" />
          </mxGeometry>
        </mxCell>
        <mxCell id="s5jDc6gKKT0ccCfi1KdD-64" value="&lt;p style=&quot;margin: 0in 0in 8pt 0.5in; line-height: 18.4px; font-size: 12pt; font-family: Aptos, sans-serif;&quot; class=&quot;MsoNormal&quot;&gt;- stars: Int&lt;/p&gt;&lt;p style=&quot;margin: 0in 0in 8pt 0.5in; line-height: 18.4px; font-size: 12pt; font-family: Aptos, sans-serif;&quot; class=&quot;MsoNormal&quot;&gt;- selectedCharacteristics: List&amp;lt;String&amp;gt;&lt;/p&gt;&lt;p style=&quot;margin: 0in 0in 8pt 0.5in; line-height: 18.4px; font-size: 12pt; font-family: Aptos, sans-serif;&quot; class=&quot;MsoNormal&quot;&gt;- comment: String?&lt;/p&gt;&lt;p style=&quot;margin: 0in 0in 8pt 0.5in; line-height: 18.4px; font-size: 12pt; font-family: Aptos, sans-serif;&quot; class=&quot;MsoNormal&quot;&gt;- visibility: Boolean&lt;/p&gt;" style="text;strokeColor=none;fillColor=none;spacingLeft=4;spacingRight=4;overflow=hidden;rotatable=0;points=[[0,0.5],[1,0.5]];portConstraint=eastwest;fontSize=12;whiteSpace=wrap;html=1;align=left;" vertex="1" parent="s5jDc6gKKT0ccCfi1KdD-63">
          <mxGeometry y="26" width="347" height="126" as="geometry" />
        </mxCell>
        <mxCell id="s5jDc6gKKT0ccCfi1KdD-65" value="&lt;p style=&quot;margin: 0in 0in 8pt 0.5in; line-height: 18.4px; font-size: 12pt; font-family: Aptos, sans-serif;&quot; class=&quot;MsoNormal&quot;&gt;+ isComplete(): Boolean&lt;/p&gt;" style="text;strokeColor=#000066;fillColor=none;spacingLeft=4;spacingRight=4;overflow=hidden;rotatable=0;points=[[0,0.5],[1,0.5]];portConstraint=eastwest;fontSize=12;whiteSpace=wrap;html=1;strokeWidth=2;" vertex="1" parent="s5jDc6gKKT0ccCfi1KdD-63">
          <mxGeometry y="152" width="347" height="36" as="geometry" />
        </mxCell>
        <mxCell id="s5jDc6gKKT0ccCfi1KdD-66" value="Search Result" style="swimlane;fontStyle=1;childLayout=stackLayout;horizontal=1;startSize=26;horizontalStack=0;resizeParent=1;resizeParentMax=0;resizeLast=0;collapsible=1;marginBottom=0;align=center;fontSize=14;fillColor=#dae8fc;strokeColor=#6c8ebf;strokeWidth=2;" vertex="1" parent="1">
          <mxGeometry x="5555.5" y="770" width="484" height="208" as="geometry">
            <mxRectangle x="1950" y="-330" width="60" height="30" as="alternateBounds" />
          </mxGeometry>
        </mxCell>
        <mxCell id="s5jDc6gKKT0ccCfi1KdD-67" value="&lt;p style=&quot;margin: 0in 0in 8pt 0.5in; line-height: 18.4px; font-size: 12pt; font-family: Aptos, sans-serif;&quot; class=&quot;MsoNormal&quot;&gt;- listings: List&amp;lt;Listing&amp;gt;&lt;/p&gt;&lt;p style=&quot;margin: 0in 0in 8pt 0.5in; line-height: 18.4px; font-size: 12pt; font-family: Aptos, sans-serif;&quot; class=&quot;MsoNormal&quot;&gt;- totalResults: Int&lt;/p&gt;&lt;p style=&quot;margin: 0in 0in 8pt 0.5in; line-height: 18.4px; font-size: 12pt; font-family: Aptos, sans-serif;&quot; class=&quot;MsoNormal&quot;&gt;- suggestions: List&amp;lt;AddressSuggestion&amp;gt;&lt;/p&gt;&lt;p style=&quot;margin: 0in 0in 8pt 0.5in; line-height: 18.4px; font-size: 12pt; font-family: Aptos, sans-serif;&quot; class=&quot;MsoNormal&quot;&gt;- locationMarkers: List&amp;lt;(latitude, longitude)&amp;gt;&lt;/p&gt;" style="text;strokeColor=none;fillColor=none;spacingLeft=4;spacingRight=4;overflow=hidden;rotatable=0;points=[[0,0.5],[1,0.5]];portConstraint=eastwest;fontSize=12;whiteSpace=wrap;html=1;align=left;" vertex="1" parent="s5jDc6gKKT0ccCfi1KdD-66">
          <mxGeometry y="26" width="484" height="119" as="geometry" />
        </mxCell>
        <mxCell id="s5jDc6gKKT0ccCfi1KdD-68" value="&lt;p style=&quot;margin: 0in 0in 8pt 0.5in; line-height: 18.4px; font-size: 12pt; font-family: Aptos, sans-serif;&quot; class=&quot;MsoNormal&quot;&gt;+ generateMarkers(): List&amp;lt;&amp;gt;&lt;/p&gt;&lt;p style=&quot;margin: 0in 0in 8pt 0.5in; line-height: 18.4px; font-size: 12pt; font-family: Aptos, sans-serif;&quot; class=&quot;MsoNormal&quot;&gt;+ sortBySuitability(): void&lt;/p&gt;" style="text;strokeColor=#000066;fillColor=none;spacingLeft=4;spacingRight=4;overflow=hidden;rotatable=0;points=[[0,0.5],[1,0.5]];portConstraint=eastwest;fontSize=12;whiteSpace=wrap;html=1;strokeWidth=2;" vertex="1" parent="s5jDc6gKKT0ccCfi1KdD-66">
          <mxGeometry y="145" width="484" height="63" as="geometry" />
        </mxCell>
        <mxCell id="s5jDc6gKKT0ccCfi1KdD-69" value="Suitability Score" style="swimlane;fontStyle=1;childLayout=stackLayout;horizontal=1;startSize=26;horizontalStack=0;resizeParent=1;resizeParentMax=0;resizeLast=0;collapsible=1;marginBottom=0;align=center;fontSize=14;fillColor=#dae8fc;strokeColor=#6c8ebf;strokeWidth=2;" vertex="1" parent="1">
          <mxGeometry x="6140" y="880" width="367" height="130" as="geometry">
            <mxRectangle x="1950" y="-330" width="60" height="30" as="alternateBounds" />
          </mxGeometry>
        </mxCell>
        <mxCell id="s5jDc6gKKT0ccCfi1KdD-70" value="&lt;p style=&quot;margin: 0in 0in 8pt 0.5in; line-height: normal; font-size: 12pt; font-family: Aptos, sans-serif;&quot; class=&quot;MsoNormal&quot;&gt;-listing: Listing&lt;/p&gt;&lt;p style=&quot;margin: 0in 0in 8pt 0.5in; line-height: normal; font-size: 12pt; font-family: Aptos, sans-serif;&quot; class=&quot;MsoNormal&quot;&gt;- score: Float&lt;/p&gt;" style="text;strokeColor=none;fillColor=none;spacingLeft=4;spacingRight=4;overflow=hidden;rotatable=0;points=[[0,0.5],[1,0.5]];portConstraint=eastwest;fontSize=12;whiteSpace=wrap;html=1;align=left;" vertex="1" parent="s5jDc6gKKT0ccCfi1KdD-69">
          <mxGeometry y="26" width="367" height="67" as="geometry" />
        </mxCell>
        <mxCell id="s5jDc6gKKT0ccCfi1KdD-71" value="&lt;p style=&quot;margin: 0in 0in 8pt 0.5in; line-height: normal; font-size: 12pt; font-family: Aptos, sans-serif;&quot; class=&quot;MsoNormal&quot;&gt;+ calculate(userPreferences, listing): Float&lt;/p&gt;" style="text;strokeColor=#000066;fillColor=none;spacingLeft=4;spacingRight=4;overflow=hidden;rotatable=0;points=[[0,0.5],[1,0.5]];portConstraint=eastwest;fontSize=12;whiteSpace=wrap;html=1;strokeWidth=2;" vertex="1" parent="s5jDc6gKKT0ccCfi1KdD-69">
          <mxGeometry y="93" width="367" height="37" as="geometry" />
        </mxCell>
        <mxCell id="s5jDc6gKKT0ccCfi1KdD-72" value="Listing" style="swimlane;fontStyle=1;childLayout=stackLayout;horizontal=1;startSize=26;horizontalStack=0;resizeParent=1;resizeParentMax=0;resizeLast=0;collapsible=1;marginBottom=0;align=center;fontSize=14;fillColor=#d5e8d4;strokeColor=#82b366;strokeWidth=2;" vertex="1" parent="1">
          <mxGeometry x="4980" y="580" width="395" height="520" as="geometry">
            <mxRectangle x="1950" y="-330" width="60" height="30" as="alternateBounds" />
          </mxGeometry>
        </mxCell>
        <mxCell id="s5jDc6gKKT0ccCfi1KdD-73" value="&lt;p style=&quot;margin: 0in 0in 0in 0.5in; line-height: 18.4px; font-size: 12pt; font-family: Aptos, sans-serif;&quot; class=&quot;MsoListParagraphCxSpFirst&quot;&gt;- id: UUID&lt;/p&gt;&lt;p style=&quot;margin: 0in 0in 0in 0.5in; line-height: 18.4px; font-size: 12pt; font-family: Aptos, sans-serif;&quot; class=&quot;MsoListParagraphCxSpMiddle&quot;&gt;- owner: Owner&lt;/p&gt;&lt;p style=&quot;margin: 0in 0in 0in 0.5in; line-height: 18.4px; font-size: 12pt; font-family: Aptos, sans-serif;&quot; class=&quot;MsoListParagraphCxSpMiddle&quot;&gt;- property: Property&lt;/p&gt;&lt;p style=&quot;margin: 0in 0in 0in 0.5in; line-height: 18.4px; font-size: 12pt; font-family: Aptos, sans-serif;&quot; class=&quot;MsoListParagraphCxSpMiddle&quot;&gt;- location: Location&lt;/p&gt;&lt;p style=&quot;margin: 0in 0in 0in 0.5in; line-height: 18.4px; font-size: 12pt; font-family: Aptos, sans-serif;&quot; class=&quot;MsoListParagraphCxSpMiddle&quot;&gt;- photos: List&amp;lt;Photo&amp;gt;&lt;/p&gt;&lt;p style=&quot;margin: 0in 0in 0in 0.5in; line-height: 18.4px; font-size: 12pt; font-family: Aptos, sans-serif;&quot; class=&quot;MsoListParagraphCxSpMiddle&quot;&gt;- price: Decimal&lt;/p&gt;&lt;p style=&quot;margin: 0in 0in 0in 0.5in; line-height: 18.4px; font-size: 12pt; font-family: Aptos, sans-serif;&quot; class=&quot;MsoListParagraphCxSpMiddle&quot;&gt;- area: Float&lt;/p&gt;&lt;p style=&quot;margin: 0in 0in 0in 0.5in; line-height: 18.4px; font-size: 12pt; font-family: Aptos, sans-serif;&quot; class=&quot;MsoListParagraphCxSpMiddle&quot;&gt;- floor: Int&lt;/p&gt;&lt;p style=&quot;margin: 0in 0in 0in 0.5in; line-height: 18.4px; font-size: 12pt; font-family: Aptos, sans-serif;&quot; class=&quot;MsoListParagraphCxSpMiddle&quot;&gt;- numberOfRooms: Int&lt;/p&gt;&lt;p style=&quot;margin: 0in 0in 0in 0.5in; line-height: 18.4px; font-size: 12pt; font-family: Aptos, sans-serif;&quot; class=&quot;MsoListParagraphCxSpMiddle&quot;&gt;- isShared: Boolean&lt;/p&gt;&lt;p style=&quot;margin: 0in 0in 0in 0.5in; line-height: 18.4px; font-size: 12pt; font-family: Aptos, sans-serif;&quot; class=&quot;MsoListParagraphCxSpMiddle&quot;&gt;- maxRoommates: Int?&lt;/p&gt;&lt;p style=&quot;margin: 0in 0in 0in 0.5in; line-height: 18.4px; font-size: 12pt; font-family: Aptos, sans-serif;&quot; class=&quot;MsoListParagraphCxSpMiddle&quot;&gt;- status: enum { Active, Rented, Inactive }&lt;/p&gt;&lt;p style=&quot;margin: 0in 0in 8pt 0.5in; line-height: 18.4px; font-size: 12pt; font-family: Aptos, sans-serif;&quot; class=&quot;MsoListParagraphCxSpLast&quot;&gt;- createdAt: DateTime&lt;/p&gt;" style="text;strokeColor=none;fillColor=none;spacingLeft=4;spacingRight=4;overflow=hidden;rotatable=0;points=[[0,0.5],[1,0.5]];portConstraint=eastwest;fontSize=12;whiteSpace=wrap;html=1;align=left;" vertex="1" parent="s5jDc6gKKT0ccCfi1KdD-72">
          <mxGeometry y="26" width="395" height="257" as="geometry" />
        </mxCell>
        <mxCell id="s5jDc6gKKT0ccCfi1KdD-74" value="&lt;p style=&quot;margin: 0in 0in 0in 0.5in; line-height: 18.4px; font-size: 12pt; font-family: Aptos, sans-serif;&quot; class=&quot;MsoListParagraphCxSpFirst&quot;&gt;+ validateRoommateCount(): Boolean&lt;/p&gt;&lt;p style=&quot;margin: 0in 0in 0in 0.5in; line-height: 18.4px; font-size: 12pt; font-family: Aptos, sans-serif;&quot; class=&quot;MsoListParagraphCxSpMiddle&quot;&gt;+ attachPhotos(List&amp;lt;Photo&amp;gt;): void&lt;/p&gt;&lt;p style=&quot;margin: 0in 0in 0in 0.5in; line-height: 18.4px; font-size: 12pt; font-family: Aptos, sans-serif;&quot; class=&quot;MsoListParagraphCxSpMiddle&quot;&gt;+ publish(): Boolean&lt;/p&gt;&lt;p style=&quot;margin: 0in 0in 0in 0.5in; line-height: 18.4px; font-size: 12pt; font-family: Aptos, sans-serif;&quot; class=&quot;MsoListParagraphCxSpMiddle&quot;&gt;+ setLocation(Location): void&lt;/p&gt;&lt;p style=&quot;margin: 0in 0in 0in 0.5in; line-height: 18.4px; font-size: 12pt; font-family: Aptos, sans-serif;&quot; class=&quot;MsoListParagraphCxSpMiddle&quot;&gt;+ isDuplicateLocation(Location): Boolean&lt;/p&gt;&lt;p style=&quot;margin: 0in 0in 0in 0.5in; line-height: 18.4px; font-size: 12pt; font-family: Aptos, sans-serif;&quot; class=&quot;MsoListParagraphCxSpMiddle&quot;&gt;+ isMatch(SearchCriteria): Boolean&lt;/p&gt;&lt;p style=&quot;margin: 0in 0in 0in 0.5in; line-height: 18.4px; font-size: 12pt; font-family: Aptos, sans-serif;&quot; class=&quot;MsoListParagraphCxSpMiddle&quot;&gt;+ getDetails(): Listing&lt;/p&gt;&lt;p style=&quot;margin: 0in 0in 0in 0.5in; line-height: 18.4px; font-size: 12pt; font-family: Aptos, sans-serif;&quot; class=&quot;MsoListParagraphCxSpMiddle&quot;&gt;+ hasInterestFrom(User): Boolean&lt;/p&gt;&lt;p style=&quot;margin: 0in 0in 0in 0.5in; line-height: 18.4px; font-size: 12pt; font-family: Aptos, sans-serif;&quot; class=&quot;MsoListParagraphCxSpMiddle&quot;&gt;+ isValidTenantCount(): Boolean&lt;/p&gt;&lt;p style=&quot;margin: 0in 0in 0in 0.5in; line-height: 18.4px; font-size: 12pt; font-family: Aptos, sans-serif;&quot; class=&quot;MsoListParagraphCxSpMiddle&quot;&gt;+ markAsRented(): void&lt;/p&gt;&lt;p style=&quot;margin: 0in 0in 0in 0.5in; line-height: 18.4px; font-size: 12pt; font-family: Aptos, sans-serif;&quot; class=&quot;MsoListParagraphCxSpMiddle&quot;&gt;+ removeRelatedInterests(): void&lt;/p&gt;&lt;p style=&quot;margin: 0in 0in 8pt 0.5in; line-height: 18.4px; font-size: 12pt; font-family: Aptos, sans-serif;&quot; class=&quot;MsoListParagraphCxSpLast&quot;&gt;+ markAsUnavailable(): void&lt;/p&gt;" style="text;strokeColor=#006600;fillColor=none;spacingLeft=4;spacingRight=4;overflow=hidden;rotatable=0;points=[[0,0.5],[1,0.5]];portConstraint=eastwest;fontSize=12;whiteSpace=wrap;html=1;strokeWidth=2;" vertex="1" parent="s5jDc6gKKT0ccCfi1KdD-72">
          <mxGeometry y="283" width="395" height="237" as="geometry" />
        </mxCell>
        <mxCell id="s5jDc6gKKT0ccCfi1KdD-75" value="Account Verification" style="swimlane;fontStyle=1;childLayout=stackLayout;horizontal=1;startSize=26;horizontalStack=0;resizeParent=1;resizeParentMax=0;resizeLast=0;collapsible=1;marginBottom=0;align=center;fontSize=14;fillColor=#d5e8d4;strokeColor=#82b366;strokeWidth=2;" vertex="1" parent="1">
          <mxGeometry x="3845" y="-339" width="344" height="295" as="geometry">
            <mxRectangle x="1950" y="-330" width="60" height="30" as="alternateBounds" />
          </mxGeometry>
        </mxCell>
        <mxCell id="s5jDc6gKKT0ccCfi1KdD-76" value="&lt;p style=&quot;margin: 0in 0in 0in 0.5in; line-height: 18.4px; font-size: 12pt; font-family: Aptos, sans-serif;&quot; class=&quot;MsoListParagraphCxSpFirst&quot;&gt;- id: UUID&lt;/p&gt;&lt;p style=&quot;margin: 0in 0in 0in 0.5in; line-height: 18.4px; font-size: 12pt; font-family: Aptos, sans-serif;&quot; class=&quot;MsoListParagraphCxSpMiddle&quot;&gt;- user: User&lt;/p&gt;&lt;p style=&quot;margin: 0in 0in 0in 0.5in; line-height: 18.4px; font-size: 12pt; font-family: Aptos, sans-serif;&quot; class=&quot;MsoListParagraphCxSpMiddle&quot;&gt;- status: enum { Pending, Verified, Rejected }&lt;/p&gt;&lt;p style=&quot;margin: 0in 0in 0in 0.5in; line-height: 18.4px; font-size: 12pt; font-family: Aptos, sans-serif;&quot; class=&quot;MsoListParagraphCxSpMiddle&quot;&gt;- verifiedAt: DateTime&lt;/p&gt;&lt;p style=&quot;margin: 0in 0in 0in 0.5in; line-height: 18.4px; font-size: 12pt; font-family: Aptos, sans-serif;&quot; class=&quot;MsoListParagraphCxSpMiddle&quot;&gt;- emailVerified: Boolean&lt;/p&gt;&lt;p style=&quot;margin: 0in 0in 0in 0.5in; line-height: 18.4px; font-size: 12pt; font-family: Aptos, sans-serif;&quot; class=&quot;MsoListParagraphCxSpMiddle&quot;&gt;- phoneVerified: Boolean&lt;/p&gt;&lt;p style=&quot;margin: 0in 0in 8pt 0.5in; line-height: 18.4px; font-size: 12pt; font-family: Aptos, sans-serif;&quot; class=&quot;MsoListParagraphCxSpLast&quot;&gt;- identityCheck: IdentityCheck&lt;/p&gt;" style="text;strokeColor=none;fillColor=none;spacingLeft=4;spacingRight=4;overflow=hidden;rotatable=0;points=[[0,0.5],[1,0.5]];portConstraint=eastwest;fontSize=12;whiteSpace=wrap;html=1;align=left;" vertex="1" parent="s5jDc6gKKT0ccCfi1KdD-75">
          <mxGeometry y="26" width="344" height="166" as="geometry" />
        </mxCell>
        <mxCell id="s5jDc6gKKT0ccCfi1KdD-77" value="&lt;p style=&quot;margin: 0in 0in 0in 0.5in; line-height: 18.4px; font-size: 12pt; font-family: Aptos, sans-serif;&quot; class=&quot;MsoListParagraphCxSpFirst&quot;&gt;+ isVerified(): Boolean&lt;/p&gt;&lt;p style=&quot;margin: 0in 0in 0in 0.5in; line-height: 18.4px; font-size: 12pt; font-family: Aptos, sans-serif;&quot; class=&quot;MsoListParagraphCxSpMiddle&quot;&gt;+ checkVerificationStatus(userId)&lt;/p&gt;&lt;p style=&quot;margin: 0in 0in 0in 0.5in; line-height: 18.4px; font-size: 12pt; font-family: Aptos, sans-serif;&quot; class=&quot;MsoListParagraphCxSpMiddle&quot;&gt;+ checkEmail(): Boolean&lt;/p&gt;&lt;p style=&quot;margin: 0in 0in 0in 0.5in; line-height: 18.4px; font-size: 12pt; font-family: Aptos, sans-serif;&quot; class=&quot;MsoListParagraphCxSpMiddle&quot;&gt;+ checkPhone(): Boolean&lt;/p&gt;&lt;p style=&quot;margin: 0in 0in 8pt 0.5in; line-height: 18.4px; font-size: 12pt; font-family: Aptos, sans-serif;&quot; class=&quot;MsoListParagraphCxSpLast&quot;&gt;+ runFullVerification(): Boolean&lt;/p&gt;" style="text;strokeColor=#006600;fillColor=none;spacingLeft=4;spacingRight=4;overflow=hidden;rotatable=0;points=[[0,0.5],[1,0.5]];portConstraint=eastwest;fontSize=12;whiteSpace=wrap;html=1;strokeWidth=2;" vertex="1" parent="s5jDc6gKKT0ccCfi1KdD-75">
          <mxGeometry y="192" width="344" height="103" as="geometry" />
        </mxCell>
        <mxCell id="s5jDc6gKKT0ccCfi1KdD-78" value="Identity Provider" style="swimlane;fontStyle=1;childLayout=stackLayout;horizontal=1;startSize=26;horizontalStack=0;resizeParent=1;resizeParentMax=0;resizeLast=0;collapsible=1;marginBottom=0;align=center;fontSize=14;fillColor=#dae8fc;strokeColor=#6c8ebf;strokeWidth=2;" vertex="1" parent="1">
          <mxGeometry x="3222" y="380" width="268" height="99" as="geometry">
            <mxRectangle x="1950" y="-330" width="60" height="30" as="alternateBounds" />
          </mxGeometry>
        </mxCell>
        <mxCell id="s5jDc6gKKT0ccCfi1KdD-79" value="&lt;p style=&quot;margin: 0in 0in 0in 0.5in; line-height: 18.4px; font-size: 12pt; font-family: Aptos, sans-serif;&quot; class=&quot;MsoListParagraphCxSpFirst&quot;&gt;&lt;br&gt;&lt;/p&gt;" style="text;strokeColor=none;fillColor=none;spacingLeft=4;spacingRight=4;overflow=hidden;rotatable=0;points=[[0,0.5],[1,0.5]];portConstraint=eastwest;fontSize=12;whiteSpace=wrap;html=1;align=left;" vertex="1" parent="s5jDc6gKKT0ccCfi1KdD-78">
          <mxGeometry y="26" width="268" height="36" as="geometry" />
        </mxCell>
        <mxCell id="s5jDc6gKKT0ccCfi1KdD-80" value="&lt;p style=&quot;margin: 0in 0in 8pt 0.5in; line-height: normal; font-size: 12pt; font-family: Aptos, sans-serif;&quot; class=&quot;MsoListParagraph&quot;&gt;+ verifyDocument(userId)&lt;/p&gt;" style="text;strokeColor=#000066;fillColor=none;spacingLeft=4;spacingRight=4;overflow=hidden;rotatable=0;points=[[0,0.5],[1,0.5]];portConstraint=eastwest;fontSize=12;whiteSpace=wrap;html=1;strokeWidth=2;" vertex="1" parent="s5jDc6gKKT0ccCfi1KdD-78">
          <mxGeometry y="62" width="268" height="37" as="geometry" />
        </mxCell>
        <mxCell id="s5jDc6gKKT0ccCfi1KdD-81" style="edgeStyle=orthogonalEdgeStyle;rounded=0;orthogonalLoop=1;jettySize=auto;html=1;" edge="1" parent="1" source="s5jDc6gKKT0ccCfi1KdD-82" target="s5jDc6gKKT0ccCfi1KdD-78">
          <mxGeometry relative="1" as="geometry" />
        </mxCell>
        <mxCell id="s5jDc6gKKT0ccCfi1KdD-82" value="Identity Check" style="swimlane;fontStyle=1;childLayout=stackLayout;horizontal=1;startSize=26;horizontalStack=0;resizeParent=1;resizeParentMax=0;resizeLast=0;collapsible=1;marginBottom=0;align=center;fontSize=14;fillColor=#dae8fc;strokeColor=#6c8ebf;strokeWidth=2;" vertex="1" parent="1">
          <mxGeometry x="3024" y="114" width="466" height="176" as="geometry">
            <mxRectangle x="1950" y="-330" width="60" height="30" as="alternateBounds" />
          </mxGeometry>
        </mxCell>
        <mxCell id="s5jDc6gKKT0ccCfi1KdD-83" value="&lt;p style=&quot;margin: 0in 0in 0in 0.5in; line-height: 18.4px; font-size: 12pt; font-family: Aptos, sans-serif;&quot; class=&quot;MsoListParagraphCxSpFirst&quot;&gt;- user: User&lt;/p&gt;&lt;p style=&quot;margin: 0in 0in 0in 0.5in; line-height: 18.4px; font-size: 12pt; font-family: Aptos, sans-serif;&quot; class=&quot;MsoListParagraphCxSpMiddle&quot;&gt;- documentType: String&lt;/p&gt;&lt;p style=&quot;margin: 0in 0in 0in 0.5in; line-height: 18.4px; font-size: 12pt; font-family: Aptos, sans-serif;&quot; class=&quot;MsoListParagraphCxSpMiddle&quot;&gt;- documentSubmitted: Boolean&lt;/p&gt;&lt;p style=&quot;margin: 0in 0in 8pt 0.5in; line-height: 18.4px; font-size: 12pt; font-family: Aptos, sans-serif;&quot; class=&quot;MsoListParagraphCxSpLast&quot;&gt;- result: VerificationResult&lt;/p&gt;" style="text;strokeColor=none;fillColor=none;spacingLeft=4;spacingRight=4;overflow=hidden;rotatable=0;points=[[0,0.5],[1,0.5]];portConstraint=eastwest;fontSize=12;whiteSpace=wrap;html=1;align=left;" vertex="1" parent="s5jDc6gKKT0ccCfi1KdD-82">
          <mxGeometry y="26" width="466" height="93" as="geometry" />
        </mxCell>
        <mxCell id="s5jDc6gKKT0ccCfi1KdD-84" value="&lt;p style=&quot;margin: 0in 0in 0in 0.5in; line-height: 18.4px; font-size: 12pt; font-family: Aptos, sans-serif;&quot; class=&quot;MsoListParagraphCxSpFirst&quot;&gt;+ requestVerificationFromProvider(): VerificationResult&lt;/p&gt;&lt;p style=&quot;margin: 0in 0in 8pt 0.5in; line-height: 18.4px; font-size: 12pt; font-family: Aptos, sans-serif;&quot; class=&quot;MsoListParagraphCxSpLast&quot;&gt;+ sendToProvider(): VerificationResult&lt;/p&gt;" style="text;strokeColor=#000066;fillColor=none;spacingLeft=4;spacingRight=4;overflow=hidden;rotatable=0;points=[[0,0.5],[1,0.5]];portConstraint=eastwest;fontSize=12;whiteSpace=wrap;html=1;strokeWidth=2;" vertex="1" parent="s5jDc6gKKT0ccCfi1KdD-82">
          <mxGeometry y="119" width="466" height="57" as="geometry" />
        </mxCell>
        <mxCell id="s5jDc6gKKT0ccCfi1KdD-85" value="Property" style="swimlane;fontStyle=1;childLayout=stackLayout;horizontal=1;startSize=26;horizontalStack=0;resizeParent=1;resizeParentMax=0;resizeLast=0;collapsible=1;marginBottom=0;align=center;fontSize=14;fillColor=#dae8fc;strokeColor=#6c8ebf;strokeWidth=2;" vertex="1" parent="1">
          <mxGeometry x="4740" y="1280" width="478" height="262" as="geometry">
            <mxRectangle x="1950" y="-330" width="60" height="30" as="alternateBounds" />
          </mxGeometry>
        </mxCell>
        <mxCell id="s5jDc6gKKT0ccCfi1KdD-86" value="&lt;p style=&quot;margin: 0in 0in 8pt 0.5in; line-height: normal; font-size: 12pt; font-family: Aptos, sans-serif;&quot; class=&quot;MsoNormal&quot;&gt;- id: UUID&lt;/p&gt;&lt;p style=&quot;margin: 0in 0in 8pt 0.5in; line-height: normal; font-size: 12pt; font-family: Aptos, sans-serif;&quot; class=&quot;MsoNormal&quot;&gt;- type: enum { Apartment, Studio, House, etc. }&lt;/p&gt;&lt;p style=&quot;margin: 0in 0in 8pt 0.5in; line-height: normal; font-size: 12pt; font-family: Aptos, sans-serif;&quot; class=&quot;MsoNormal&quot;&gt;- yearBuilt: Int&lt;/p&gt;&lt;p style=&quot;margin: 0in 0in 8pt 0.5in; line-height: normal; font-size: 12pt; font-family: Aptos, sans-serif;&quot; class=&quot;MsoNormal&quot;&gt;- heatingType: String&lt;/p&gt;&lt;p style=&quot;margin: 0in 0in 8pt 0.5in; line-height: normal; font-size: 12pt; font-family: Aptos, sans-serif;&quot; class=&quot;MsoNormal&quot;&gt;- energyClass: String&lt;/p&gt;&lt;p style=&quot;margin: 0in 0in 8pt 0.5in; line-height: normal; font-size: 12pt; font-family: Aptos, sans-serif;&quot; class=&quot;MsoNormal&quot;&gt;- allowsSharing: Boolean&lt;/p&gt;" style="text;strokeColor=none;fillColor=none;spacingLeft=4;spacingRight=4;overflow=hidden;rotatable=0;points=[[0,0.5],[1,0.5]];portConstraint=eastwest;fontSize=12;whiteSpace=wrap;html=1;align=left;" vertex="1" parent="s5jDc6gKKT0ccCfi1KdD-85">
          <mxGeometry y="26" width="478" height="178" as="geometry" />
        </mxCell>
        <mxCell id="s5jDc6gKKT0ccCfi1KdD-87" value="&lt;p style=&quot;margin: 0in 0in 8pt 0.5in; line-height: normal; font-size: 12pt; font-family: Aptos, sans-serif;&quot; class=&quot;MsoNormal&quot;&gt;+ isCompatibleWithRooms(roomCount,maxRoommates)&lt;/p&gt;" style="text;strokeColor=#000066;fillColor=none;spacingLeft=4;spacingRight=4;overflow=hidden;rotatable=0;points=[[0,0.5],[1,0.5]];portConstraint=eastwest;fontSize=12;whiteSpace=wrap;html=1;strokeWidth=2;" vertex="1" parent="s5jDc6gKKT0ccCfi1KdD-85">
          <mxGeometry y="204" width="478" height="58" as="geometry" />
        </mxCell>
        <mxCell id="s5jDc6gKKT0ccCfi1KdD-88" value="Photo" style="swimlane;fontStyle=1;childLayout=stackLayout;horizontal=1;startSize=26;horizontalStack=0;resizeParent=1;resizeParentMax=0;resizeLast=0;collapsible=1;marginBottom=0;align=center;fontSize=14;fillColor=#dae8fc;strokeColor=#6c8ebf;strokeWidth=2;" vertex="1" parent="1">
          <mxGeometry x="4410" y="1620" width="484" height="189" as="geometry">
            <mxRectangle x="1950" y="-330" width="60" height="30" as="alternateBounds" />
          </mxGeometry>
        </mxCell>
        <mxCell id="s5jDc6gKKT0ccCfi1KdD-89" value="&lt;p style=&quot;margin: 0in 0in 0in 0.5in; line-height: 18.4px; font-size: 12pt; font-family: Aptos, sans-serif;&quot; class=&quot;MsoListParagraphCxSpFirst&quot;&gt;- id: UUID&lt;/p&gt;&lt;p style=&quot;margin: 0in 0in 0in 0.5in; line-height: 18.4px; font-size: 12pt; font-family: Aptos, sans-serif;&quot; class=&quot;MsoListParagraphCxSpMiddle&quot;&gt;- fileName: String&lt;/p&gt;&lt;p style=&quot;margin: 0in 0in 0in 0.5in; line-height: 18.4px; font-size: 12pt; font-family: Aptos, sans-serif;&quot; class=&quot;MsoListParagraphCxSpMiddle&quot;&gt;- fileType: String&lt;/p&gt;&lt;p style=&quot;margin: 0in 0in 0in 0.5in; line-height: 18.4px; font-size: 12pt; font-family: Aptos, sans-serif;&quot; class=&quot;MsoListParagraphCxSpMiddle&quot;&gt;- fileSize: Int&lt;/p&gt;&lt;p style=&quot;margin: 0in 0in 8pt 0.5in; line-height: 18.4px; font-size: 12pt; font-family: Aptos, sans-serif;&quot; class=&quot;MsoListParagraphCxSpLast&quot;&gt;- url: String&lt;/p&gt;" style="text;strokeColor=none;fillColor=none;spacingLeft=4;spacingRight=4;overflow=hidden;rotatable=0;points=[[0,0.5],[1,0.5]];portConstraint=eastwest;fontSize=12;whiteSpace=wrap;html=1;align=left;" vertex="1" parent="s5jDc6gKKT0ccCfi1KdD-88">
          <mxGeometry y="26" width="484" height="105" as="geometry" />
        </mxCell>
        <mxCell id="s5jDc6gKKT0ccCfi1KdD-90" value="&lt;p style=&quot;margin: 0in 0in 0in 0.5in; line-height: 18.4px; font-size: 12pt; font-family: Aptos, sans-serif;&quot; class=&quot;MsoListParagraphCxSpFirst&quot;&gt;+ isValidFormat(): Boolean&lt;/p&gt;&lt;p style=&quot;margin: 0in 0in 8pt 0.5in; line-height: 18.4px; font-size: 12pt; font-family: Aptos, sans-serif;&quot; class=&quot;MsoListParagraphCxSpLast&quot;&gt;+ isUnderSizeLimit(): Boolean&lt;/p&gt;" style="text;strokeColor=#000066;fillColor=none;spacingLeft=4;spacingRight=4;overflow=hidden;rotatable=0;points=[[0,0.5],[1,0.5]];portConstraint=eastwest;fontSize=12;whiteSpace=wrap;html=1;strokeWidth=2;" vertex="1" parent="s5jDc6gKKT0ccCfi1KdD-88">
          <mxGeometry y="131" width="484" height="58" as="geometry" />
        </mxCell>
        <mxCell id="s5jDc6gKKT0ccCfi1KdD-91" value="Location" style="swimlane;fontStyle=1;childLayout=stackLayout;horizontal=1;startSize=26;horizontalStack=0;resizeParent=1;resizeParentMax=0;resizeLast=0;collapsible=1;marginBottom=0;align=center;fontSize=14;fillColor=#d5e8d4;strokeColor=#82b366;strokeWidth=2;" vertex="1" parent="1">
          <mxGeometry x="5417" y="1210" width="508" height="292" as="geometry">
            <mxRectangle x="1950" y="-330" width="60" height="30" as="alternateBounds" />
          </mxGeometry>
        </mxCell>
        <mxCell id="s5jDc6gKKT0ccCfi1KdD-92" value="&lt;p style=&quot;margin: 0in 0in 0in 0.5in; line-height: 18.4px; font-size: 12pt; font-family: Aptos, sans-serif;&quot; class=&quot;MsoListParagraphCxSpFirst&quot;&gt;- id: UUID&lt;/p&gt;&lt;p style=&quot;margin: 0in 0in 0in 0.5in; line-height: 18.4px; font-size: 12pt; font-family: Aptos, sans-serif;&quot; class=&quot;MsoListParagraphCxSpMiddle&quot;&gt;- address: String&lt;/p&gt;&lt;p style=&quot;margin: 0in 0in 0in 0.5in; line-height: 18.4px; font-size: 12pt; font-family: Aptos, sans-serif;&quot; class=&quot;MsoListParagraphCxSpMiddle&quot;&gt;- city: String&lt;/p&gt;&lt;p style=&quot;margin: 0in 0in 0in 0.5in; line-height: 18.4px; font-size: 12pt; font-family: Aptos, sans-serif;&quot; class=&quot;MsoListParagraphCxSpMiddle&quot;&gt;- coordinates: (latitude: Float, longitude: Float)&lt;/p&gt;&lt;p style=&quot;margin: 0in 0in 0in 0.5in; line-height: 18.4px; font-size: 12pt; font-family: Aptos, sans-serif;&quot; class=&quot;MsoListParagraphCxSpMiddle&quot;&gt;- latitude: Float&lt;/p&gt;&lt;p style=&quot;margin: 0in 0in 8pt 0.5in; line-height: 18.4px; font-size: 12pt; font-family: Aptos, sans-serif;&quot; class=&quot;MsoListParagraphCxSpLast&quot;&gt;- longitude: Float&lt;/p&gt;" style="text;strokeColor=none;fillColor=none;spacingLeft=4;spacingRight=4;overflow=hidden;rotatable=0;points=[[0,0.5],[1,0.5]];portConstraint=eastwest;fontSize=12;whiteSpace=wrap;html=1;align=left;" vertex="1" parent="s5jDc6gKKT0ccCfi1KdD-91">
          <mxGeometry y="26" width="508" height="136" as="geometry" />
        </mxCell>
        <mxCell id="s5jDc6gKKT0ccCfi1KdD-93" value="&lt;p style=&quot;margin: 0in 0in 0in 0.5in; line-height: 18.4px; font-size: 12pt; font-family: Aptos, sans-serif;&quot; class=&quot;MsoListParagraphCxSpFirst&quot;&gt;+ validateCoordinates(): Boolean&lt;/p&gt;&lt;p style=&quot;margin: 0in 0in 0in 0.5in; line-height: 18.4px; font-size: 12pt; font-family: Aptos, sans-serif;&quot; class=&quot;MsoListParagraphCxSpMiddle&quot;&gt;+ fetchFromMapService(String): Location&lt;/p&gt;&lt;p style=&quot;margin: 0in 0in 0in 0.5in; line-height: 18.4px; font-size: 12pt; font-family: Aptos, sans-serif;&quot; class=&quot;MsoListParagraphCxSpMiddle&quot;&gt;+ isWithinRadiusOf(otherLocation, radiusInMeters)&lt;/p&gt;&lt;p style=&quot;margin: 0in 0in 0in 0.5in; line-height: 18.4px; font-size: 12pt; font-family: Aptos, sans-serif;&quot; class=&quot;MsoListParagraphCxSpMiddle&quot;&gt;+ setFromCoordinates(address, latitude, longitude)&lt;/p&gt;&lt;p style=&quot;margin: 0in 0in 0in 0.5in; line-height: 18.4px; font-size: 12pt; font-family: Aptos, sans-serif;&quot; class=&quot;MsoListParagraphCxSpMiddle&quot;&gt;+ validateWithMapService(): Boolean&lt;/p&gt;&lt;p style=&quot;margin: 0in 0in 8pt 0.5in; line-height: 18.4px; font-size: 12pt; font-family: Aptos, sans-serif;&quot; class=&quot;MsoListParagraphCxSpLast&quot;&gt;+ isCloseTo(other: Location, radius: Float): Boolean&lt;/p&gt;" style="text;strokeColor=#006600;fillColor=none;spacingLeft=4;spacingRight=4;overflow=hidden;rotatable=0;points=[[0,0.5],[1,0.5]];portConstraint=eastwest;fontSize=12;whiteSpace=wrap;html=1;strokeWidth=2;" vertex="1" parent="s5jDc6gKKT0ccCfi1KdD-91">
          <mxGeometry y="162" width="508" height="130" as="geometry" />
        </mxCell>
        <mxCell id="s5jDc6gKKT0ccCfi1KdD-94" value="Rental Interest" style="swimlane;fontStyle=1;childLayout=stackLayout;horizontal=1;startSize=26;horizontalStack=0;resizeParent=1;resizeParentMax=0;resizeLast=0;collapsible=1;marginBottom=0;align=center;fontSize=14;fillColor=#d5e8d4;strokeColor=#82b366;strokeWidth=2;" vertex="1" parent="1">
          <mxGeometry x="6020" y="1140" width="508" height="332" as="geometry">
            <mxRectangle x="1950" y="-330" width="60" height="30" as="alternateBounds" />
          </mxGeometry>
        </mxCell>
        <mxCell id="s5jDc6gKKT0ccCfi1KdD-95" value="&lt;p style=&quot;margin: 0in 0in 8pt 0.5in; line-height: 18.4px; font-size: 12pt; font-family: Aptos, sans-serif;&quot; class=&quot;MsoNormal&quot;&gt;- id: UUID&lt;/p&gt;&lt;p style=&quot;margin: 0in 0in 8pt 0.5in; line-height: 18.4px; font-size: 12pt; font-family: Aptos, sans-serif;&quot; class=&quot;MsoNormal&quot;&gt;- listing: Listing&lt;/p&gt;&lt;p style=&quot;margin: 0in 0in 8pt 0.5in; line-height: 18.4px; font-size: 12pt; font-family: Aptos, sans-serif;&quot; class=&quot;MsoNormal&quot;&gt;- interestedTenant: Tenant&lt;/p&gt;&lt;p style=&quot;margin: 0in 0in 8pt 0.5in; line-height: 18.4px; font-size: 12pt; font-family: Aptos, sans-serif;&quot; class=&quot;MsoNormal&quot;&gt;- preferredSlots: List&amp;lt;TimeSlot&amp;gt;&lt;/p&gt;&lt;p style=&quot;margin: 0in 0in 8pt 0.5in; line-height: 18.4px; font-size: 12pt; font-family: Aptos, sans-serif;&quot; class=&quot;MsoNormal&quot;&gt;- finalAppointment: Appointment&lt;/p&gt;&lt;p style=&quot;margin: 0in 0in 8pt 0.5in; line-height: 18.4px; font-size: 12pt; font-family: Aptos, sans-serif;&quot; class=&quot;MsoNormal&quot;&gt;- createdAt: DateTime&lt;/p&gt;" style="text;strokeColor=none;fillColor=none;spacingLeft=4;spacingRight=4;overflow=hidden;rotatable=0;points=[[0,0.5],[1,0.5]];portConstraint=eastwest;fontSize=12;whiteSpace=wrap;html=1;align=left;" vertex="1" parent="s5jDc6gKKT0ccCfi1KdD-94">
          <mxGeometry y="26" width="508" height="182" as="geometry" />
        </mxCell>
        <mxCell id="s5jDc6gKKT0ccCfi1KdD-96" value="&lt;p style=&quot;margin: 0in 0in 8pt 0.5in; line-height: 18.4px; font-size: 12pt; font-family: Aptos, sans-serif;&quot; class=&quot;MsoNormal&quot;&gt;+ getInterestedTenants(Listing)&lt;/p&gt;&lt;p style=&quot;margin: 0in 0in 8pt 0.5in; line-height: 18.4px; font-size: 12pt; font-family: Aptos, sans-serif;&quot; class=&quot;MsoNormal&quot;&gt;+ isDuplicate(): Boolean&lt;/p&gt;&lt;p style=&quot;margin: 0in 0in 8pt 0.5in; line-height: 18.4px; font-size: 12pt; font-family: Aptos, sans-serif;&quot; class=&quot;MsoNormal&quot;&gt;+ save(): void&lt;/p&gt;&lt;p style=&quot;margin: 0in 0in 8pt 0.5in; line-height: 18.4px; font-size: 12pt; font-family: Aptos, sans-serif;&quot; class=&quot;MsoNormal&quot;&gt;+ createAppointment(TimeSlot)&lt;/p&gt;" style="text;strokeColor=#006600;fillColor=none;spacingLeft=4;spacingRight=4;overflow=hidden;rotatable=0;points=[[0,0.5],[1,0.5]];portConstraint=eastwest;fontSize=12;whiteSpace=wrap;html=1;strokeWidth=2;" vertex="1" parent="s5jDc6gKKT0ccCfi1KdD-94">
          <mxGeometry y="208" width="508" height="124" as="geometry" />
        </mxCell>
        <mxCell id="s5jDc6gKKT0ccCfi1KdD-97" value="Map Service" style="swimlane;fontStyle=1;childLayout=stackLayout;horizontal=1;startSize=26;horizontalStack=0;resizeParent=1;resizeParentMax=0;resizeLast=0;collapsible=1;marginBottom=0;align=center;fontSize=14;fillColor=#dae8fc;strokeColor=#6c8ebf;strokeWidth=2;" vertex="1" parent="1">
          <mxGeometry x="6610" y="910" width="416" height="311" as="geometry">
            <mxRectangle x="1950" y="-330" width="60" height="30" as="alternateBounds" />
          </mxGeometry>
        </mxCell>
        <mxCell id="s5jDc6gKKT0ccCfi1KdD-98" value="&lt;p style=&quot;margin: 0in 0in 8pt 0.5in; line-height: normal; font-size: 12pt; font-family: Aptos, sans-serif;&quot; class=&quot;MsoNormal&quot;&gt;&lt;br&gt;&lt;/p&gt;" style="text;strokeColor=none;fillColor=none;spacingLeft=4;spacingRight=4;overflow=hidden;rotatable=0;points=[[0,0.5],[1,0.5]];portConstraint=eastwest;fontSize=12;whiteSpace=wrap;html=1;align=left;" vertex="1" parent="s5jDc6gKKT0ccCfi1KdD-97">
          <mxGeometry y="26" width="416" height="24" as="geometry" />
        </mxCell>
        <mxCell id="s5jDc6gKKT0ccCfi1KdD-99" value="&lt;p style=&quot;margin: 0in 0in 8pt 0.5in; line-height: normal; font-size: 12pt; font-family: Aptos, sans-serif;&quot; class=&quot;MsoNormal&quot;&gt;+ suggestAddress(): List&amp;lt;AddressSuggestion&amp;gt;&lt;/p&gt;&lt;p style=&quot;margin: 0in 0in 8pt 0.5in; line-height: normal; font-size: 12pt; font-family: Aptos, sans-serif;&quot; class=&quot;MsoNormal&quot;&gt;+ getCoordinates(): (latitude, longitude)&lt;/p&gt;&lt;p style=&quot;margin: 0in 0in 8pt 0.5in; line-height: normal; font-size: 12pt; font-family: Aptos, sans-serif;&quot; class=&quot;MsoNormal&quot;&gt;+ getAddressSuggestions()&lt;/p&gt;&lt;p style=&quot;margin: 0in 0in 8pt 0.5in; line-height: normal; font-size: 12pt; font-family: Aptos, sans-serif;&quot; class=&quot;MsoNormal&quot;&gt;+ getCoordinatesForAddress()&lt;/p&gt;&lt;p style=&quot;margin: 0in 0in 8pt 0.5in; line-height: normal; font-size: 12pt; font-family: Aptos, sans-serif;&quot; class=&quot;MsoNormal&quot;&gt;+ renderMapMarker(latitude, longitude):&lt;/p&gt;&lt;p style=&quot;margin: 0in 0in 8pt 0.5in; line-height: normal; font-size: 12pt; font-family: Aptos, sans-serif;&quot; class=&quot;MsoNormal&quot;&gt;+ getMapMarkers(List&amp;lt;Listing&amp;gt;)&lt;/p&gt;&lt;p style=&quot;margin: 0in 0in 8pt 0.5in; line-height: normal; font-size: 12pt; font-family: Aptos, sans-serif;&quot; class=&quot;MsoNormal&quot;&gt;+ searchRegionSuggestions(String)&lt;/p&gt;&lt;p style=&quot;margin: 0in 0in 8pt 0.5in; line-height: normal; font-size: 12pt; font-family: Aptos, sans-serif;&quot; class=&quot;MsoNormal&quot;&gt;+ getDirections(from,to):&lt;/p&gt;&lt;p style=&quot;margin: 0in 0in 8pt 0.5in; line-height: normal; font-size: 12pt; font-family: Aptos, sans-serif;&quot; class=&quot;MsoNormal&quot;&gt;+ requestCurrentLocation(): Location&lt;/p&gt;" style="text;strokeColor=#000066;fillColor=none;spacingLeft=4;spacingRight=4;overflow=hidden;rotatable=0;points=[[0,0.5],[1,0.5]];portConstraint=eastwest;fontSize=12;whiteSpace=wrap;html=1;strokeWidth=2;" vertex="1" parent="s5jDc6gKKT0ccCfi1KdD-97">
          <mxGeometry y="50" width="416" height="261" as="geometry" />
        </mxCell>
        <mxCell id="s5jDc6gKKT0ccCfi1KdD-100" value="User Availability" style="swimlane;fontStyle=1;childLayout=stackLayout;horizontal=1;startSize=26;horizontalStack=0;resizeParent=1;resizeParentMax=0;resizeLast=0;collapsible=1;marginBottom=0;align=center;fontSize=14;fillColor=#dae8fc;strokeColor=#6c8ebf;strokeWidth=2;" vertex="1" parent="1">
          <mxGeometry x="6459" y="1899" width="486" height="129" as="geometry">
            <mxRectangle x="1950" y="-330" width="60" height="30" as="alternateBounds" />
          </mxGeometry>
        </mxCell>
        <mxCell id="s5jDc6gKKT0ccCfi1KdD-101" value="&lt;p style=&quot;margin: 0in 0in 0in 0.5in; line-height: normal; font-size: 12pt; font-family: Aptos, sans-serif;&quot; class=&quot;MsoListParagraphCxSpFirst&quot;&gt;- user: User&lt;/p&gt;&lt;p style=&quot;margin: 0in 0in 8pt 0.5in; line-height: normal; font-size: 12pt; font-family: Aptos, sans-serif;&quot; class=&quot;MsoListParagraphCxSpLast&quot;&gt;- timeSlots: List&amp;lt;TimeSlot&amp;gt;&lt;/p&gt;" style="text;strokeColor=none;fillColor=none;spacingLeft=4;spacingRight=4;overflow=hidden;rotatable=0;points=[[0,0.5],[1,0.5]];portConstraint=eastwest;fontSize=12;whiteSpace=wrap;html=1;align=left;" vertex="1" parent="s5jDc6gKKT0ccCfi1KdD-100">
          <mxGeometry y="26" width="486" height="50" as="geometry" />
        </mxCell>
        <mxCell id="s5jDc6gKKT0ccCfi1KdD-102" value="&lt;p style=&quot;margin: 0in 0in 0in 0.5in; line-height: normal; font-size: 12pt; font-family: Aptos, sans-serif;&quot; class=&quot;MsoListParagraphCxSpFirst&quot;&gt;+ getCommonSlots(other: UserAvailability): List&amp;lt;TimeSlot&amp;gt;&lt;/p&gt;&lt;p style=&quot;margin: 0in 0in 8pt 0.5in; line-height: normal; font-size: 12pt; font-family: Aptos, sans-serif;&quot; class=&quot;MsoListParagraphCxSpLast&quot;&gt;+ addSlots(slots: List&amp;lt;TimeSlot&amp;gt;): void&lt;/p&gt;" style="text;strokeColor=#000066;fillColor=none;spacingLeft=4;spacingRight=4;overflow=hidden;rotatable=0;points=[[0,0.5],[1,0.5]];portConstraint=eastwest;fontSize=12;whiteSpace=wrap;html=1;strokeWidth=2;" vertex="1" parent="s5jDc6gKKT0ccCfi1KdD-100">
          <mxGeometry y="76" width="486" height="53" as="geometry" />
        </mxCell>
        <mxCell id="s5jDc6gKKT0ccCfi1KdD-103" value="Payment Receipt" style="swimlane;fontStyle=1;childLayout=stackLayout;horizontal=1;startSize=26;horizontalStack=0;resizeParent=1;resizeParentMax=0;resizeLast=0;collapsible=1;marginBottom=0;align=center;fontSize=14;fillColor=#dae8fc;strokeColor=#6c8ebf;strokeWidth=2;" vertex="1" parent="1">
          <mxGeometry x="4760" y="2390" width="315" height="148" as="geometry">
            <mxRectangle x="1950" y="-330" width="60" height="30" as="alternateBounds" />
          </mxGeometry>
        </mxCell>
        <mxCell id="s5jDc6gKKT0ccCfi1KdD-104" value="&lt;p style=&quot;margin: 0in 0in 0in 0.5in; line-height: 18.4px; font-size: 12pt; font-family: Aptos, sans-serif;&quot; class=&quot;MsoListParagraphCxSpFirst&quot;&gt;- id: UUID&lt;/p&gt;&lt;p style=&quot;margin: 0in 0in 0in 0.5in; line-height: 18.4px; font-size: 12pt; font-family: Aptos, sans-serif;&quot; class=&quot;MsoListParagraphCxSpMiddle&quot;&gt;- transaction: Transaction&lt;/p&gt;&lt;p style=&quot;margin: 0in 0in 0in 0.5in; line-height: 18.4px; font-size: 12pt; font-family: Aptos, sans-serif;&quot; class=&quot;MsoListParagraphCxSpMiddle&quot;&gt;- filePath: String&lt;/p&gt;&lt;p style=&quot;margin: 0in 0in 8pt 0.5in; line-height: 18.4px; font-size: 12pt; font-family: Aptos, sans-serif;&quot; class=&quot;MsoListParagraphCxSpLast&quot;&gt;- generatedAt: DateTime&lt;/p&gt;" style="text;strokeColor=none;fillColor=none;spacingLeft=4;spacingRight=4;overflow=hidden;rotatable=0;points=[[0,0.5],[1,0.5]];portConstraint=eastwest;fontSize=12;whiteSpace=wrap;html=1;align=left;" vertex="1" parent="s5jDc6gKKT0ccCfi1KdD-103">
          <mxGeometry y="26" width="315" height="87" as="geometry" />
        </mxCell>
        <mxCell id="s5jDc6gKKT0ccCfi1KdD-105" value="&lt;p style=&quot;margin: 0in 0in 8pt 0.5in; line-height: 18.4px; font-size: 12pt; font-family: Aptos, sans-serif;&quot; class=&quot;MsoListParagraph&quot;&gt;+ generate(): PaymentReceipt&lt;/p&gt;" style="text;strokeColor=#000066;fillColor=none;spacingLeft=4;spacingRight=4;overflow=hidden;rotatable=0;points=[[0,0.5],[1,0.5]];portConstraint=eastwest;fontSize=12;whiteSpace=wrap;html=1;strokeWidth=2;" vertex="1" parent="s5jDc6gKKT0ccCfi1KdD-103">
          <mxGeometry y="113" width="315" height="35" as="geometry" />
        </mxCell>
        <mxCell id="s5jDc6gKKT0ccCfi1KdD-106" style="edgeStyle=orthogonalEdgeStyle;rounded=0;orthogonalLoop=1;jettySize=auto;html=1;" edge="1" parent="1" source="s5jDc6gKKT0ccCfi1KdD-107" target="s5jDc6gKKT0ccCfi1KdD-103">
          <mxGeometry relative="1" as="geometry" />
        </mxCell>
        <mxCell id="s5jDc6gKKT0ccCfi1KdD-107" value="Transaction" style="swimlane;fontStyle=1;childLayout=stackLayout;horizontal=1;startSize=26;horizontalStack=0;resizeParent=1;resizeParentMax=0;resizeLast=0;collapsible=1;marginBottom=0;align=center;fontSize=14;fillColor=#dae8fc;strokeColor=#6c8ebf;strokeWidth=2;" vertex="1" parent="1">
          <mxGeometry x="4760" y="2150" width="486" height="168" as="geometry">
            <mxRectangle x="1950" y="-330" width="60" height="30" as="alternateBounds" />
          </mxGeometry>
        </mxCell>
        <mxCell id="s5jDc6gKKT0ccCfi1KdD-108" value="&lt;p style=&quot;margin: 0in 0in 0in 0.5in; line-height: 18.4px; font-size: 12pt; font-family: Aptos, sans-serif;&quot; class=&quot;MsoListParagraphCxSpFirst&quot;&gt;- id: UUID&lt;/p&gt;&lt;p style=&quot;margin: 0in 0in 0in 0.5in; line-height: 18.4px; font-size: 12pt; font-family: Aptos, sans-serif;&quot; class=&quot;MsoListParagraphCxSpMiddle&quot;&gt;- amount: Decimal&lt;/p&gt;&lt;p style=&quot;margin: 0in 0in 0in 0.5in; line-height: 18.4px; font-size: 12pt; font-family: Aptos, sans-serif;&quot; class=&quot;MsoListParagraphCxSpMiddle&quot;&gt;- status: enum { Completed, Failed }&lt;/p&gt;&lt;p style=&quot;margin: 0in 0in 0in 0.5in; line-height: 18.4px; font-size: 12pt; font-family: Aptos, sans-serif;&quot; class=&quot;MsoListParagraphCxSpMiddle&quot;&gt;- relatedTo: enum { TopUp, RentPayment }&lt;/p&gt;&lt;p style=&quot;margin: 0in 0in 8pt 0.5in; line-height: 18.4px; font-size: 12pt; font-family: Aptos, sans-serif;&quot; class=&quot;MsoListParagraphCxSpLast&quot;&gt;- createdAt: DateTime&lt;/p&gt;" style="text;strokeColor=none;fillColor=none;spacingLeft=4;spacingRight=4;overflow=hidden;rotatable=0;points=[[0,0.5],[1,0.5]];portConstraint=eastwest;fontSize=12;whiteSpace=wrap;html=1;align=left;" vertex="1" parent="s5jDc6gKKT0ccCfi1KdD-107">
          <mxGeometry y="26" width="486" height="107" as="geometry" />
        </mxCell>
        <mxCell id="s5jDc6gKKT0ccCfi1KdD-109" value="&lt;p style=&quot;margin: 0in 0in 8pt 0.5in; line-height: 18.4px; font-size: 12pt; font-family: Aptos, sans-serif;&quot; class=&quot;MsoListParagraph&quot;&gt;&lt;span lang=&quot;EL&quot;&gt;+ finalize(): void&lt;/span&gt;&lt;/p&gt;" style="text;strokeColor=#000066;fillColor=none;spacingLeft=4;spacingRight=4;overflow=hidden;rotatable=0;points=[[0,0.5],[1,0.5]];portConstraint=eastwest;fontSize=12;whiteSpace=wrap;html=1;strokeWidth=2;" vertex="1" parent="s5jDc6gKKT0ccCfi1KdD-107">
          <mxGeometry y="133" width="486" height="35" as="geometry" />
        </mxCell>
        <mxCell id="s5jDc6gKKT0ccCfi1KdD-110" style="edgeStyle=orthogonalEdgeStyle;rounded=0;orthogonalLoop=1;jettySize=auto;html=1;" edge="1" parent="1" source="s5jDc6gKKT0ccCfi1KdD-111" target="s5jDc6gKKT0ccCfi1KdD-107">
          <mxGeometry relative="1" as="geometry">
            <Array as="points">
              <mxPoint x="5240" y="2100" />
              <mxPoint x="5003" y="2100" />
            </Array>
          </mxGeometry>
        </mxCell>
        <mxCell id="s5jDc6gKKT0ccCfi1KdD-111" value="Rent Payment" style="swimlane;fontStyle=1;childLayout=stackLayout;horizontal=1;startSize=26;horizontalStack=0;resizeParent=1;resizeParentMax=0;resizeLast=0;collapsible=1;marginBottom=0;align=center;fontSize=14;fillColor=#d5e8d4;strokeColor=#82b366;strokeWidth=2;" vertex="1" parent="1">
          <mxGeometry x="5091" y="1730" width="508" height="245" as="geometry">
            <mxRectangle x="1950" y="-330" width="60" height="30" as="alternateBounds" />
          </mxGeometry>
        </mxCell>
        <mxCell id="s5jDc6gKKT0ccCfi1KdD-112" value="&lt;p style=&quot;margin: 0in 0in 0in 0.5in; line-height: 18.4px; font-size: 12pt; font-family: Aptos, sans-serif;&quot; class=&quot;MsoListParagraphCxSpFirst&quot;&gt;- id: UUID&lt;/p&gt;&lt;p style=&quot;margin: 0in 0in 0in 0.5in; line-height: 18.4px; font-size: 12pt; font-family: Aptos, sans-serif;&quot; class=&quot;MsoListParagraphCxSpMiddle&quot;&gt;- month: Date&lt;/p&gt;&lt;p style=&quot;margin: 0in 0in 0in 0.5in; line-height: 18.4px; font-size: 12pt; font-family: Aptos, sans-serif;&quot; class=&quot;MsoListParagraphCxSpMiddle&quot;&gt;- amount: Decimal&lt;/p&gt;&lt;p style=&quot;margin: 0in 0in 0in 0.5in; line-height: 18.4px; font-size: 12pt; font-family: Aptos, sans-serif;&quot; class=&quot;MsoListParagraphCxSpMiddle&quot;&gt;- status: enum { Pending, Paid, Overdue }&lt;/p&gt;&lt;p style=&quot;margin: 0in 0in 0in 0.5in; line-height: 18.4px; font-size: 12pt; font-family: Aptos, sans-serif;&quot; class=&quot;MsoListParagraphCxSpMiddle&quot;&gt;- transaction: Transaction&lt;/p&gt;&lt;p style=&quot;margin: 0in 0in 0in 0.5in; line-height: 18.4px; font-size: 12pt; font-family: Aptos, sans-serif;&quot; class=&quot;MsoListParagraphCxSpMiddle&quot;&gt;- dueDate: Date&lt;/p&gt;&lt;p style=&quot;margin: 0in 0in 8pt 0.5in; line-height: 18.4px; font-size: 12pt; font-family: Aptos, sans-serif;&quot; class=&quot;MsoListParagraphCxSpLast&quot;&gt;- paymentDate: Date&lt;/p&gt;" style="text;strokeColor=none;fillColor=none;spacingLeft=4;spacingRight=4;overflow=hidden;rotatable=0;points=[[0,0.5],[1,0.5]];portConstraint=eastwest;fontSize=12;whiteSpace=wrap;html=1;align=left;" vertex="1" parent="s5jDc6gKKT0ccCfi1KdD-111">
          <mxGeometry y="26" width="508" height="145" as="geometry" />
        </mxCell>
        <mxCell id="s5jDc6gKKT0ccCfi1KdD-113" value="&lt;p style=&quot;margin: 0in 0in 0in 0.5in; line-height: 18.4px; font-size: 12pt; font-family: Aptos, sans-serif;&quot; class=&quot;MsoListParagraphCxSpFirst&quot;&gt;+ markAsPaid(): void&lt;/p&gt;&lt;p style=&quot;margin: 0in 0in 0in 0.5in; line-height: 18.4px; font-size: 12pt; font-family: Aptos, sans-serif;&quot; class=&quot;MsoListParagraphCxSpMiddle&quot;&gt;+ isDue(): Boolean&lt;/p&gt;&lt;p style=&quot;margin: 0in 0in 8pt 0.5in; line-height: 18.4px; font-size: 12pt; font-family: Aptos, sans-serif;&quot; class=&quot;MsoListParagraphCxSpLast&quot;&gt;+ wasPaidOnTime(): Boolean&lt;/p&gt;" style="text;strokeColor=#006600;fillColor=none;spacingLeft=4;spacingRight=4;overflow=hidden;rotatable=0;points=[[0,0.5],[1,0.5]];portConstraint=eastwest;fontSize=12;whiteSpace=wrap;html=1;strokeWidth=2;" vertex="1" parent="s5jDc6gKKT0ccCfi1KdD-111">
          <mxGeometry y="171" width="508" height="74" as="geometry" />
        </mxCell>
        <mxCell id="s5jDc6gKKT0ccCfi1KdD-114" value="Wallet" style="swimlane;fontStyle=1;childLayout=stackLayout;horizontal=1;startSize=26;horizontalStack=0;resizeParent=1;resizeParentMax=0;resizeLast=0;collapsible=1;marginBottom=0;align=center;fontSize=14;fillColor=#dae8fc;strokeColor=#6c8ebf;strokeWidth=2;" vertex="1" parent="1">
          <mxGeometry x="5360" y="2113.5" width="430" height="280" as="geometry">
            <mxRectangle x="1950" y="-330" width="60" height="30" as="alternateBounds" />
          </mxGeometry>
        </mxCell>
        <mxCell id="s5jDc6gKKT0ccCfi1KdD-115" value="&lt;p style=&quot;margin: 0in 0in 0in 0.5in; line-height: 18.4px; font-size: 12pt; font-family: Aptos, sans-serif;&quot; class=&quot;MsoListParagraphCxSpFirst&quot;&gt;- id: UUID&lt;/p&gt;&lt;p style=&quot;margin: 0in 0in 0in 0.5in; line-height: 18.4px; font-size: 12pt; font-family: Aptos, sans-serif;&quot; class=&quot;MsoListParagraphCxSpMiddle&quot;&gt;- user: User&lt;/p&gt;&lt;p style=&quot;margin: 0in 0in 0in 0.5in; line-height: 18.4px; font-size: 12pt; font-family: Aptos, sans-serif;&quot; class=&quot;MsoListParagraphCxSpMiddle&quot;&gt;- balance: Decimal&lt;/p&gt;&lt;p style=&quot;margin: 0in 0in 0in 0.5in; line-height: 18.4px; font-size: 12pt; font-family: Aptos, sans-serif;&quot; class=&quot;MsoListParagraphCxSpMiddle&quot;&gt;- defaultPaymentMethod: PaymentMethod&lt;/p&gt;&lt;p style=&quot;margin: 0in 0in 8pt 0.5in; line-height: 18.4px; font-size: 12pt; font-family: Aptos, sans-serif;&quot; class=&quot;MsoListParagraphCxSpLast&quot;&gt;- paymentMethods: List&amp;lt;PaymentMethod&amp;gt;&lt;/p&gt;" style="text;strokeColor=none;fillColor=none;spacingLeft=4;spacingRight=4;overflow=hidden;rotatable=0;points=[[0,0.5],[1,0.5]];portConstraint=eastwest;fontSize=12;whiteSpace=wrap;html=1;align=left;" vertex="1" parent="s5jDc6gKKT0ccCfi1KdD-114">
          <mxGeometry y="26" width="430" height="110" as="geometry" />
        </mxCell>
        <mxCell id="s5jDc6gKKT0ccCfi1KdD-116" value="&lt;p style=&quot;margin: 0in 0in 0in 0.5in; line-height: 18.4px; font-size: 12pt; font-family: Aptos, sans-serif;&quot; class=&quot;MsoListParagraphCxSpFirst&quot;&gt;+ hasSufficientBalance(amount): Boolean&lt;/p&gt;&lt;p style=&quot;margin: 0in 0in 0in 0.5in; line-height: 18.4px; font-size: 12pt; font-family: Aptos, sans-serif;&quot; class=&quot;MsoListParagraphCxSpMiddle&quot;&gt;+ deduct(amount): void&lt;/p&gt;&lt;p style=&quot;margin: 0in 0in 0in 0.5in; line-height: 18.4px; font-size: 12pt; font-family: Aptos, sans-serif;&quot; class=&quot;MsoListParagraphCxSpMiddle&quot;&gt;+ addFunds(amount): void&lt;/p&gt;&lt;p style=&quot;margin: 0in 0in 0in 0.5in; line-height: 18.4px; font-size: 12pt; font-family: Aptos, sans-serif;&quot; class=&quot;MsoListParagraphCxSpMiddle&quot;&gt;+ getBalance(): Decimal&lt;/p&gt;&lt;p style=&quot;margin: 0in 0in 0in 0.5in; line-height: 18.4px; font-size: 12pt; font-family: Aptos, sans-serif;&quot; class=&quot;MsoListParagraphCxSpMiddle&quot;&gt;+ hasValidMethod(): Boolean&lt;/p&gt;&lt;p style=&quot;margin: 0in 0in 0in 0.5in; line-height: 18.4px; font-size: 12pt; font-family: Aptos, sans-serif;&quot; class=&quot;MsoListParagraphCxSpMiddle&quot;&gt;+ addPaymentMethod(method): void&lt;/p&gt;&lt;p style=&quot;margin: 0in 0in 8pt 0.5in; line-height: 18.4px; font-size: 12pt; font-family: Aptos, sans-serif;&quot; class=&quot;MsoListParagraphCxSpLast&quot;&gt;+ getActiveMethods(): List&amp;lt;PaymentMethod&amp;gt;&lt;/p&gt;" style="text;strokeColor=#000066;fillColor=none;spacingLeft=4;spacingRight=4;overflow=hidden;rotatable=0;points=[[0,0.5],[1,0.5]];portConstraint=eastwest;fontSize=12;whiteSpace=wrap;html=1;strokeWidth=2;" vertex="1" parent="s5jDc6gKKT0ccCfi1KdD-114">
          <mxGeometry y="136" width="430" height="144" as="geometry" />
        </mxCell>
        <mxCell id="s5jDc6gKKT0ccCfi1KdD-117" value="Payment Method" style="swimlane;fontStyle=1;childLayout=stackLayout;horizontal=1;startSize=26;horizontalStack=0;resizeParent=1;resizeParentMax=0;resizeLast=0;collapsible=1;marginBottom=0;align=center;fontSize=14;fillColor=#d5e8d4;strokeColor=#82b366;strokeWidth=2;" vertex="1" parent="1">
          <mxGeometry x="5830" y="1809" width="508" height="178" as="geometry">
            <mxRectangle x="1950" y="-330" width="60" height="30" as="alternateBounds" />
          </mxGeometry>
        </mxCell>
        <mxCell id="s5jDc6gKKT0ccCfi1KdD-118" value="&lt;p style=&quot;margin: 0in 0in 0in 0.5in; line-height: 18.4px; font-size: 12pt; font-family: Aptos, sans-serif;&quot; class=&quot;MsoListParagraphCxSpFirst&quot;&gt;- id: UUID&lt;/p&gt;&lt;p style=&quot;margin: 0in 0in 0in 0.5in; line-height: 18.4px; font-size: 12pt; font-family: Aptos, sans-serif;&quot; class=&quot;MsoListParagraphCxSpMiddle&quot;&gt;- type: enum { Card, BankAccount }&lt;/p&gt;&lt;p style=&quot;margin: 0in 0in 0in 0.5in; line-height: 18.4px; font-size: 12pt; font-family: Aptos, sans-serif;&quot; class=&quot;MsoListParagraphCxSpMiddle&quot;&gt;- providerReference: String&lt;/p&gt;&lt;p style=&quot;margin: 0in 0in 0in 0.5in; line-height: 18.4px; font-size: 12pt; font-family: Aptos, sans-serif;&quot; class=&quot;MsoListParagraphCxSpMiddle&quot;&gt;- isActive: Boolean&lt;/p&gt;&lt;p style=&quot;margin: 0in 0in 8pt 0.5in; line-height: 18.4px; font-size: 12pt; font-family: Aptos, sans-serif;&quot; class=&quot;MsoListParagraphCxSpLast&quot;&gt;- cardDetails: CardDetails&lt;/p&gt;" style="text;strokeColor=none;fillColor=none;spacingLeft=4;spacingRight=4;overflow=hidden;rotatable=0;points=[[0,0.5],[1,0.5]];portConstraint=eastwest;fontSize=12;whiteSpace=wrap;html=1;align=left;" vertex="1" parent="s5jDc6gKKT0ccCfi1KdD-117">
          <mxGeometry y="26" width="508" height="113" as="geometry" />
        </mxCell>
        <mxCell id="s5jDc6gKKT0ccCfi1KdD-119" value="&lt;p style=&quot;margin: 0in 0in 8pt 0.5in; line-height: 18.4px; font-size: 12pt; font-family: Aptos, sans-serif;&quot; class=&quot;MsoListParagraph&quot;&gt;+ validateWithProvider(): PaymentAuthorization&lt;/p&gt;" style="text;strokeColor=#006600;fillColor=none;spacingLeft=4;spacingRight=4;overflow=hidden;rotatable=0;points=[[0,0.5],[1,0.5]];portConstraint=eastwest;fontSize=12;whiteSpace=wrap;html=1;strokeWidth=2;" vertex="1" parent="s5jDc6gKKT0ccCfi1KdD-117">
          <mxGeometry y="139" width="508" height="39" as="geometry" />
        </mxCell>
        <mxCell id="s5jDc6gKKT0ccCfi1KdD-120" style="edgeStyle=orthogonalEdgeStyle;rounded=0;orthogonalLoop=1;jettySize=auto;html=1;dashed=1;" edge="1" parent="1" source="s5jDc6gKKT0ccCfi1KdD-121" target="s5jDc6gKKT0ccCfi1KdD-116">
          <mxGeometry relative="1" as="geometry" />
        </mxCell>
        <mxCell id="s5jDc6gKKT0ccCfi1KdD-121" value="Payment Form" style="swimlane;fontStyle=1;childLayout=stackLayout;horizontal=1;startSize=26;horizontalStack=0;resizeParent=1;resizeParentMax=0;resizeLast=0;collapsible=1;marginBottom=0;align=center;fontSize=14;fillColor=#dae8fc;strokeColor=#6c8ebf;strokeWidth=2;" vertex="1" parent="1">
          <mxGeometry x="6039.5" y="2133" width="486" height="241" as="geometry">
            <mxRectangle x="1950" y="-330" width="60" height="30" as="alternateBounds" />
          </mxGeometry>
        </mxCell>
        <mxCell id="s5jDc6gKKT0ccCfi1KdD-122" value="&lt;p style=&quot;margin: 0in 0in 0in 0.25in; line-height: 18.4px; font-size: 12pt; font-family: Aptos, sans-serif;&quot; class=&quot;MsoListParagraphCxSpFirst&quot;&gt;- amount: Decimal&lt;/p&gt;&lt;p style=&quot;margin: 0in 0in 0in 0.25in; line-height: 18.4px; font-size: 12pt; font-family: Aptos, sans-serif;&quot; class=&quot;MsoListParagraphCxSpMiddle&quot;&gt;- selectedMethod: PaymentMethod&lt;/p&gt;&lt;p style=&quot;margin: 0in 0in 0in 0.25in; line-height: 18.4px; font-size: 12pt; font-family: Aptos, sans-serif;&quot; class=&quot;MsoListParagraphCxSpMiddle&quot;&gt;- cardNumber: String&lt;/p&gt;&lt;p style=&quot;margin: 0in 0in 0in 0.25in; line-height: 18.4px; font-size: 12pt; font-family: Aptos, sans-serif;&quot; class=&quot;MsoListParagraphCxSpMiddle&quot;&gt;- holderName: String&lt;/p&gt;&lt;p style=&quot;margin: 0in 0in 0in 0.25in; line-height: 18.4px; font-size: 12pt; font-family: Aptos, sans-serif;&quot; class=&quot;MsoListParagraphCxSpMiddle&quot;&gt;- expiryDate: Date&lt;/p&gt;&lt;p style=&quot;margin: 0in 0in 8pt 0.25in; line-height: 18.4px; font-size: 12pt; font-family: Aptos, sans-serif;&quot; class=&quot;MsoListParagraphCxSpLast&quot;&gt;- cvv: String&lt;/p&gt;" style="text;strokeColor=none;fillColor=none;spacingLeft=4;spacingRight=4;overflow=hidden;rotatable=0;points=[[0,0.5],[1,0.5]];portConstraint=eastwest;fontSize=12;whiteSpace=wrap;html=1;align=left;" vertex="1" parent="s5jDc6gKKT0ccCfi1KdD-121">
          <mxGeometry y="26" width="486" height="126" as="geometry" />
        </mxCell>
        <mxCell id="s5jDc6gKKT0ccCfi1KdD-123" value="&lt;p style=&quot;margin: 0in 0in 0in 0.25in; line-height: 18.4px; font-size: 12pt; font-family: Aptos, sans-serif;&quot; class=&quot;MsoListParagraphCxSpFirst&quot;&gt;+ validate(): Boolean&lt;/p&gt;&lt;p style=&quot;margin: 0in 0in 0in 0.25in; line-height: 18.4px; font-size: 12pt; font-family: Aptos, sans-serif;&quot; class=&quot;MsoListParagraphCxSpMiddle&quot;&gt;+ isValid(): Boolean&lt;/p&gt;&lt;p style=&quot;margin: 0in 0in 0in 0.25in; line-height: 18.4px; font-size: 12pt; font-family: Aptos, sans-serif;&quot; class=&quot;MsoListParagraphCxSpMiddle&quot;&gt;+ isComplete(): Boolean&lt;/p&gt;&lt;p style=&quot;margin: 0in 0in 8pt 0.25in; line-height: 18.4px; font-size: 12pt; font-family: Aptos, sans-serif;&quot; class=&quot;MsoListParagraphCxSpLast&quot;&gt;+ toCardDetails(): CardDetails&lt;/p&gt;" style="text;strokeColor=#000066;fillColor=none;spacingLeft=4;spacingRight=4;overflow=hidden;rotatable=0;points=[[0,0.5],[1,0.5]];portConstraint=eastwest;fontSize=12;whiteSpace=wrap;html=1;strokeWidth=2;" vertex="1" parent="s5jDc6gKKT0ccCfi1KdD-121">
          <mxGeometry y="152" width="486" height="89" as="geometry" />
        </mxCell>
        <mxCell id="s5jDc6gKKT0ccCfi1KdD-124" value="Card Details" style="swimlane;fontStyle=1;childLayout=stackLayout;horizontal=1;startSize=26;horizontalStack=0;resizeParent=1;resizeParentMax=0;resizeLast=0;collapsible=1;marginBottom=0;align=center;fontSize=14;fillColor=#dae8fc;strokeColor=#6c8ebf;strokeWidth=2;" vertex="1" parent="1">
          <mxGeometry x="6640" y="2130" width="314" height="147" as="geometry">
            <mxRectangle x="1950" y="-330" width="60" height="30" as="alternateBounds" />
          </mxGeometry>
        </mxCell>
        <mxCell id="s5jDc6gKKT0ccCfi1KdD-125" value="&lt;p style=&quot;margin: 0in 0in 0in 0.5in; line-height: 18.4px; font-size: 12pt; font-family: Aptos, sans-serif;&quot; class=&quot;MsoListParagraphCxSpFirst&quot;&gt;- cardNumber: String&lt;/p&gt;&lt;p style=&quot;margin: 0in 0in 0in 0.5in; line-height: 18.4px; font-size: 12pt; font-family: Aptos, sans-serif;&quot; class=&quot;MsoListParagraphCxSpMiddle&quot;&gt;- holderName: String&lt;/p&gt;&lt;p style=&quot;margin: 0in 0in 0in 0.5in; line-height: 18.4px; font-size: 12pt; font-family: Aptos, sans-serif;&quot; class=&quot;MsoListParagraphCxSpMiddle&quot;&gt;- expiryDate: Date&lt;/p&gt;&lt;p style=&quot;margin: 0in 0in 8pt 0.5in; line-height: 18.4px; font-size: 12pt; font-family: Aptos, sans-serif;&quot; class=&quot;MsoListParagraphCxSpLast&quot;&gt;&lt;span lang=&quot;EL&quot;&gt;- cvv: String&lt;/span&gt;&lt;/p&gt;" style="text;strokeColor=none;fillColor=none;spacingLeft=4;spacingRight=4;overflow=hidden;rotatable=0;points=[[0,0.5],[1,0.5]];portConstraint=eastwest;fontSize=12;whiteSpace=wrap;html=1;align=left;" vertex="1" parent="s5jDc6gKKT0ccCfi1KdD-124">
          <mxGeometry y="26" width="314" height="91" as="geometry" />
        </mxCell>
        <mxCell id="s5jDc6gKKT0ccCfi1KdD-126" value="&lt;p style=&quot;margin: 0in 0in 8pt 0.5in; line-height: 18.4px; font-size: 12pt; font-family: Aptos, sans-serif;&quot; class=&quot;MsoListParagraph&quot;&gt;&lt;span lang=&quot;EL&quot;&gt;+ isValid(): Boolean&lt;/span&gt;&lt;/p&gt;" style="text;strokeColor=#000066;fillColor=none;spacingLeft=4;spacingRight=4;overflow=hidden;rotatable=0;points=[[0,0.5],[1,0.5]];portConstraint=eastwest;fontSize=12;whiteSpace=wrap;html=1;strokeWidth=2;" vertex="1" parent="s5jDc6gKKT0ccCfi1KdD-124">
          <mxGeometry y="117" width="314" height="30" as="geometry" />
        </mxCell>
        <mxCell id="s5jDc6gKKT0ccCfi1KdD-127" value="Payment Authorization" style="swimlane;fontStyle=1;childLayout=stackLayout;horizontal=1;startSize=26;horizontalStack=0;resizeParent=1;resizeParentMax=0;resizeLast=0;collapsible=1;marginBottom=0;align=center;fontSize=14;fillColor=#dae8fc;strokeColor=#6c8ebf;strokeWidth=2;" vertex="1" parent="1">
          <mxGeometry x="6055" y="2460" width="486" height="181" as="geometry">
            <mxRectangle x="1950" y="-330" width="60" height="30" as="alternateBounds" />
          </mxGeometry>
        </mxCell>
        <mxCell id="s5jDc6gKKT0ccCfi1KdD-128" value="&lt;p style=&quot;margin: 0in 0in 0in 0.5in; line-height: 18.4px; font-size: 12pt; font-family: Aptos, sans-serif;&quot; class=&quot;MsoListParagraphCxSpFirst&quot;&gt;- status: enum { Success, Failed }&lt;/p&gt;&lt;p style=&quot;margin: 0in 0in 0in 0.5in; line-height: 18.4px; font-size: 12pt; font-family: Aptos, sans-serif;&quot; class=&quot;MsoListParagraphCxSpMiddle&quot;&gt;- authorizedAt: DateTime&lt;/p&gt;&lt;p style=&quot;margin: 0in 0in 0in 0.5in; line-height: 18.4px; font-size: 12pt; font-family: Aptos, sans-serif;&quot; class=&quot;MsoListParagraphCxSpMiddle&quot;&gt;- success: Boolean&lt;/p&gt;&lt;p style=&quot;margin: 0in 0in 0in 0.5in; line-height: 18.4px; font-size: 12pt; font-family: Aptos, sans-serif;&quot; class=&quot;MsoListParagraphCxSpMiddle&quot;&gt;- timestamp: DateTime&lt;/p&gt;&lt;p style=&quot;margin: 0in 0in 8pt 0.5in; line-height: 18.4px; font-size: 12pt; font-family: Aptos, sans-serif;&quot; class=&quot;MsoListParagraphCxSpLast&quot;&gt;- providerMessage: String&lt;/p&gt;" style="text;strokeColor=none;fillColor=none;spacingLeft=4;spacingRight=4;overflow=hidden;rotatable=0;points=[[0,0.5],[1,0.5]];portConstraint=eastwest;fontSize=12;whiteSpace=wrap;html=1;align=left;" vertex="1" parent="s5jDc6gKKT0ccCfi1KdD-127">
          <mxGeometry y="26" width="486" height="111" as="geometry" />
        </mxCell>
        <mxCell id="s5jDc6gKKT0ccCfi1KdD-129" value="&lt;p style=&quot;margin: 0in 0in 8pt 0.5in; line-height: 18.4px; font-size: 12pt; font-family: Aptos, sans-serif;&quot; class=&quot;MsoListParagraph&quot;&gt;+ authorize(amount: Decimal, method: PaymentMethod)&lt;/p&gt;" style="text;strokeColor=#000066;fillColor=none;spacingLeft=4;spacingRight=4;overflow=hidden;rotatable=0;points=[[0,0.5],[1,0.5]];portConstraint=eastwest;fontSize=12;whiteSpace=wrap;html=1;strokeWidth=2;" vertex="1" parent="s5jDc6gKKT0ccCfi1KdD-127">
          <mxGeometry y="137" width="486" height="44" as="geometry" />
        </mxCell>
        <mxCell id="s5jDc6gKKT0ccCfi1KdD-130" value="Rental Initiation Request" style="swimlane;fontStyle=1;childLayout=stackLayout;horizontal=1;startSize=26;horizontalStack=0;resizeParent=1;resizeParentMax=0;resizeLast=0;collapsible=1;marginBottom=0;align=center;fontSize=14;fillColor=#d5e8d4;strokeColor=#82b366;strokeWidth=2;" vertex="1" parent="1">
          <mxGeometry x="4382" y="547" width="460" height="363" as="geometry">
            <mxRectangle x="1950" y="-330" width="60" height="30" as="alternateBounds" />
          </mxGeometry>
        </mxCell>
        <mxCell id="s5jDc6gKKT0ccCfi1KdD-131" value="&lt;p style=&quot;margin: 0in 0in 0in 0.5in; line-height: 18.4px; font-size: 12pt; font-family: Aptos, sans-serif;&quot; class=&quot;MsoListParagraphCxSpFirst&quot;&gt;- id: UUID&lt;/p&gt;&lt;p style=&quot;margin: 0in 0in 0in 0.5in; line-height: 18.4px; font-size: 12pt; font-family: Aptos, sans-serif;&quot; class=&quot;MsoListParagraphCxSpMiddle&quot;&gt;- listing: Listing&lt;/p&gt;&lt;p style=&quot;margin: 0in 0in 0in 0.5in; line-height: 18.4px; font-size: 12pt; font-family: Aptos, sans-serif;&quot; class=&quot;MsoListParagraphCxSpMiddle&quot;&gt;- tenants: List&amp;lt;Tenant&amp;gt;&lt;/p&gt;&lt;p style=&quot;margin: 0in 0in 0in 0.5in; line-height: 18.4px; font-size: 12pt; font-family: Aptos, sans-serif;&quot; class=&quot;MsoListParagraphCxSpMiddle&quot;&gt;- terms: RentalTerms&lt;/p&gt;&lt;p style=&quot;margin: 0in 0in 0in 0.5in; line-height: 18.4px; font-size: 12pt; font-family: Aptos, sans-serif;&quot; class=&quot;MsoListParagraphCxSpMiddle&quot;&gt;- createdBy: Owner&lt;/p&gt;&lt;p style=&quot;margin: 0in 0in 0in 0.5in; line-height: 18.4px; font-size: 12pt; font-family: Aptos, sans-serif;&quot; class=&quot;MsoListParagraphCxSpMiddle&quot;&gt;- status: enum { Pending, Accepted, Rejected }&lt;/p&gt;&lt;p style=&quot;margin: 0in 0in 0in 0.5in; line-height: 18.4px; font-size: 12pt; font-family: Aptos, sans-serif;&quot; class=&quot;MsoListParagraphCxSpMiddle&quot;&gt;- createdAt: DateTime&lt;/p&gt;&lt;p style=&quot;margin: 0in 0in 8pt 0.5in; line-height: 18.4px; font-size: 12pt; font-family: Aptos, sans-serif;&quot; class=&quot;MsoListParagraphCxSpLast&quot;&gt;- submittedDocuments: List&amp;lt;SubmittedDocument&amp;gt;&lt;/p&gt;" style="text;strokeColor=none;fillColor=none;spacingLeft=4;spacingRight=4;overflow=hidden;rotatable=0;points=[[0,0.5],[1,0.5]];portConstraint=eastwest;fontSize=12;whiteSpace=wrap;html=1;align=left;" vertex="1" parent="s5jDc6gKKT0ccCfi1KdD-130">
          <mxGeometry y="26" width="460" height="165" as="geometry" />
        </mxCell>
        <mxCell id="s5jDc6gKKT0ccCfi1KdD-132" value="&lt;p style=&quot;margin: 0in 0in 0in 0.5in; line-height: 18.4px; font-size: 12pt; font-family: Aptos, sans-serif;&quot; class=&quot;MsoListParagraphCxSpFirst&quot;&gt;- id: UUID&lt;/p&gt;&lt;p style=&quot;margin: 0in 0in 0in 0.5in; line-height: 18.4px; font-size: 12pt; font-family: Aptos, sans-serif;&quot; class=&quot;MsoListParagraphCxSpMiddle&quot;&gt;- listing: Listing&lt;/p&gt;&lt;p style=&quot;margin: 0in 0in 0in 0.5in; line-height: 18.4px; font-size: 12pt; font-family: Aptos, sans-serif;&quot; class=&quot;MsoListParagraphCxSpMiddle&quot;&gt;- tenants: List&amp;lt;Tenant&amp;gt;&lt;/p&gt;&lt;p style=&quot;margin: 0in 0in 0in 0.5in; line-height: 18.4px; font-size: 12pt; font-family: Aptos, sans-serif;&quot; class=&quot;MsoListParagraphCxSpMiddle&quot;&gt;- terms: RentalTerms&lt;/p&gt;&lt;p style=&quot;margin: 0in 0in 0in 0.5in; line-height: 18.4px; font-size: 12pt; font-family: Aptos, sans-serif;&quot; class=&quot;MsoListParagraphCxSpMiddle&quot;&gt;- createdBy: Owner&lt;/p&gt;&lt;p style=&quot;margin: 0in 0in 0in 0.5in; line-height: 18.4px; font-size: 12pt; font-family: Aptos, sans-serif;&quot; class=&quot;MsoListParagraphCxSpMiddle&quot;&gt;- status: enum { Pending, Accepted, Rejected }&lt;/p&gt;&lt;p style=&quot;margin: 0in 0in 0in 0.5in; line-height: 18.4px; font-size: 12pt; font-family: Aptos, sans-serif;&quot; class=&quot;MsoListParagraphCxSpMiddle&quot;&gt;- createdAt: DateTime&lt;/p&gt;&lt;p style=&quot;margin: 0in 0in 8pt 0.5in; line-height: 18.4px; font-size: 12pt; font-family: Aptos, sans-serif;&quot; class=&quot;MsoListParagraphCxSpLast&quot;&gt;- submittedDocuments: List&amp;lt;SubmittedDocument&amp;gt;&lt;/p&gt;" style="text;strokeColor=#006600;fillColor=none;spacingLeft=4;spacingRight=4;overflow=hidden;rotatable=0;points=[[0,0.5],[1,0.5]];portConstraint=eastwest;fontSize=12;whiteSpace=wrap;html=1;strokeWidth=2;" vertex="1" parent="s5jDc6gKKT0ccCfi1KdD-130">
          <mxGeometry y="191" width="460" height="172" as="geometry" />
        </mxCell>
        <mxCell id="s5jDc6gKKT0ccCfi1KdD-133" value="Rental Terms" style="swimlane;fontStyle=1;childLayout=stackLayout;horizontal=1;startSize=26;horizontalStack=0;resizeParent=1;resizeParentMax=0;resizeLast=0;collapsible=1;marginBottom=0;align=center;fontSize=14;fillColor=#dae8fc;strokeColor=#6c8ebf;strokeWidth=2;" vertex="1" parent="1">
          <mxGeometry x="4604" y="1045" width="238" height="134" as="geometry">
            <mxRectangle x="1950" y="-330" width="60" height="30" as="alternateBounds" />
          </mxGeometry>
        </mxCell>
        <mxCell id="s5jDc6gKKT0ccCfi1KdD-134" value="&lt;p style=&quot;margin: 0in 0in 0in 0.5in; line-height: 18.4px; font-size: 12pt; font-family: Aptos, sans-serif;&quot; class=&quot;MsoListParagraphCxSpFirst&quot;&gt;- rentAmount: Decimal&lt;/p&gt;&lt;p style=&quot;margin: 0in 0in 0in 0.5in; line-height: 18.4px; font-size: 12pt; font-family: Aptos, sans-serif;&quot; class=&quot;MsoListParagraphCxSpMiddle&quot;&gt;- durationInMonths: Int&lt;/p&gt;&lt;p style=&quot;margin: 0in 0in 8pt 0.5in; line-height: 18.4px; font-size: 12pt; font-family: Aptos, sans-serif;&quot; class=&quot;MsoListParagraphCxSpLast&quot;&gt;- deposit: Decimal&lt;/p&gt;" style="text;strokeColor=none;fillColor=none;spacingLeft=4;spacingRight=4;overflow=hidden;rotatable=0;points=[[0,0.5],[1,0.5]];portConstraint=eastwest;fontSize=12;whiteSpace=wrap;html=1;align=left;" vertex="1" parent="s5jDc6gKKT0ccCfi1KdD-133">
          <mxGeometry y="26" width="238" height="71" as="geometry" />
        </mxCell>
        <mxCell id="s5jDc6gKKT0ccCfi1KdD-135" value="&lt;p style=&quot;margin: 0in 0in 8pt 0.5in; line-height: 18.4px; font-size: 12pt; font-family: Aptos, sans-serif;&quot; class=&quot;MsoListParagraph&quot;&gt;+ isValid(): Boolean&lt;/p&gt;" style="text;strokeColor=#000066;fillColor=none;spacingLeft=4;spacingRight=4;overflow=hidden;rotatable=0;points=[[0,0.5],[1,0.5]];portConstraint=eastwest;fontSize=12;whiteSpace=wrap;html=1;strokeWidth=2;" vertex="1" parent="s5jDc6gKKT0ccCfi1KdD-133">
          <mxGeometry y="97" width="238" height="37" as="geometry" />
        </mxCell>
        <mxCell id="s5jDc6gKKT0ccCfi1KdD-136" value="Rental Contract" style="swimlane;fontStyle=1;childLayout=stackLayout;horizontal=1;startSize=26;horizontalStack=0;resizeParent=1;resizeParentMax=0;resizeLast=0;collapsible=1;marginBottom=0;align=center;fontSize=14;fillColor=#dae8fc;strokeColor=#6c8ebf;strokeWidth=2;" vertex="1" parent="1">
          <mxGeometry x="3834" y="710" width="390" height="639" as="geometry">
            <mxRectangle x="1950" y="-330" width="60" height="30" as="alternateBounds" />
          </mxGeometry>
        </mxCell>
        <mxCell id="s5jDc6gKKT0ccCfi1KdD-137" value="&lt;p style=&quot;margin: 0in 0in 8pt 0.5in; line-height: 18.4px; font-size: 12pt; font-family: Aptos, sans-serif;&quot; class=&quot;MsoNormal&quot;&gt;- id: UUID&lt;/p&gt;&lt;p style=&quot;margin: 0in 0in 8pt 0.5in; line-height: 18.4px; font-size: 12pt; font-family: Aptos, sans-serif;&quot; class=&quot;MsoNormal&quot;&gt;- tenant: Tenant&lt;/p&gt;&lt;p style=&quot;margin: 0in 0in 8pt 0.5in; line-height: 18.4px; font-size: 12pt; font-family: Aptos, sans-serif;&quot; class=&quot;MsoNormal&quot;&gt;- owner: Owner&lt;/p&gt;&lt;p style=&quot;margin: 0in 0in 8pt 0.5in; line-height: 18.4px; font-size: 12pt; font-family: Aptos, sans-serif;&quot; class=&quot;MsoNormal&quot;&gt;- monthlyAmount: Decimal&lt;/p&gt;&lt;p style=&quot;margin: 0in 0in 8pt 0.5in; line-height: 18.4px; font-size: 12pt; font-family: Aptos, sans-serif;&quot; class=&quot;MsoNormal&quot;&gt;- startDate: Date&lt;/p&gt;&lt;p style=&quot;margin: 0in 0in 8pt 0.5in; line-height: 18.4px; font-size: 12pt; font-family: Aptos, sans-serif;&quot; class=&quot;MsoNormal&quot;&gt;- endDate: Date&lt;/p&gt;&lt;p style=&quot;margin: 0in 0in 8pt 0.5in; line-height: 18.4px; font-size: 12pt; font-family: Aptos, sans-serif;&quot; class=&quot;MsoNormal&quot;&gt;- rentPayments: List&amp;lt;RentPayment&amp;gt;&lt;/p&gt;&lt;p style=&quot;margin: 0in 0in 8pt 0.5in; line-height: 18.4px; font-size: 12pt; font-family: Aptos, sans-serif;&quot; class=&quot;MsoNormal&quot;&gt;- terms: RentalTerms&lt;/p&gt;&lt;p style=&quot;margin: 0in 0in 8pt 0.5in; line-height: 18.4px; font-size: 12pt; font-family: Aptos, sans-serif;&quot; class=&quot;MsoNormal&quot;&gt;- participants: List&amp;lt;User&amp;gt;&lt;/p&gt;&lt;p style=&quot;margin: 0in 0in 8pt 0.5in; line-height: 18.4px; font-size: 12pt; font-family: Aptos, sans-serif;&quot; class=&quot;MsoNormal&quot;&gt;- listing: Listing&lt;/p&gt;&lt;p style=&quot;margin: 0in 0in 8pt 0.5in; line-height: 18.4px; font-size: 12pt; font-family: Aptos, sans-serif;&quot; class=&quot;MsoNormal&quot;&gt;- contractPDF: ContractPDF&lt;/p&gt;" style="text;strokeColor=none;fillColor=none;spacingLeft=4;spacingRight=4;overflow=hidden;rotatable=0;points=[[0,0.5],[1,0.5]];portConstraint=eastwest;fontSize=12;whiteSpace=wrap;html=1;align=left;" vertex="1" parent="s5jDc6gKKT0ccCfi1KdD-136">
          <mxGeometry y="26" width="390" height="338" as="geometry" />
        </mxCell>
        <mxCell id="s5jDc6gKKT0ccCfi1KdD-138" value="&lt;p style=&quot;margin: 0in 0in 8pt 0.5in; line-height: 18.4px; font-size: 12pt; font-family: Aptos, sans-serif;&quot; class=&quot;MsoNormal&quot;&gt;+ isActive(): Boolean&lt;/p&gt;&lt;p style=&quot;margin: 0in 0in 8pt 0.5in; line-height: 18.4px; font-size: 12pt; font-family: Aptos, sans-serif;&quot; class=&quot;MsoNormal&quot;&gt;+ getCurrentDue(): RentPayment&lt;/p&gt;&lt;p style=&quot;margin: 0in 0in 8pt 0.5in; line-height: 18.4px; font-size: 12pt; font-family: Aptos, sans-serif;&quot; class=&quot;MsoNormal&quot;&gt;+ registerPayment(payment: RentPayment)&lt;/p&gt;&lt;p style=&quot;margin: 0in 0in 8pt 0.5in; line-height: 18.4px; font-size: 12pt; font-family: Aptos, sans-serif;&quot; class=&quot;MsoNormal&quot;&gt;+ finalizeIfAllAccepted(): void&lt;/p&gt;&lt;p style=&quot;margin: 0in 0in 8pt 0.5in; line-height: 18.4px; font-size: 12pt; font-family: Aptos, sans-serif;&quot; class=&quot;MsoNormal&quot;&gt;+ generatePDF(): ContractPDF&lt;/p&gt;&lt;p style=&quot;margin: 0in 0in 8pt 0.5in; line-height: 18.4px; font-size: 12pt; font-family: Aptos, sans-serif;&quot; class=&quot;MsoNormal&quot;&gt;+ activate(): void&lt;/p&gt;&lt;p style=&quot;margin: 0in 0in 8pt 0.5in; line-height: 18.4px; font-size: 12pt; font-family: Aptos, sans-serif;&quot; class=&quot;MsoNormal&quot;&gt;+ hasEnded(currentDate: Date): Boolean&lt;/p&gt;&lt;p style=&quot;margin: 0in 0in 8pt 0.5in; line-height: 18.4px; font-size: 12pt; font-family: Aptos, sans-serif;&quot; class=&quot;MsoNormal&quot;&gt;+ completeContract(): void&lt;/p&gt;&lt;p style=&quot;margin: 0in 0in 8pt 0.5in; line-height: 18.4px; font-size: 12pt; font-family: Aptos, sans-serif;&quot; class=&quot;MsoNormal&quot;&gt;+ getChat(): Chat?&lt;/p&gt;" style="text;strokeColor=#000066;fillColor=none;spacingLeft=4;spacingRight=4;overflow=hidden;rotatable=0;points=[[0,0.5],[1,0.5]];portConstraint=eastwest;fontSize=12;whiteSpace=wrap;html=1;strokeWidth=2;" vertex="1" parent="s5jDc6gKKT0ccCfi1KdD-136">
          <mxGeometry y="364" width="390" height="275" as="geometry" />
        </mxCell>
        <mxCell id="s5jDc6gKKT0ccCfi1KdD-139" value="Contact PDF" style="swimlane;fontStyle=1;childLayout=stackLayout;horizontal=1;startSize=26;horizontalStack=0;resizeParent=1;resizeParentMax=0;resizeLast=0;collapsible=1;marginBottom=0;align=center;fontSize=14;fillColor=#dae8fc;strokeColor=#6c8ebf;strokeWidth=2;" vertex="1" parent="1">
          <mxGeometry x="3790" y="1440" width="478" height="156" as="geometry">
            <mxRectangle x="1950" y="-330" width="60" height="30" as="alternateBounds" />
          </mxGeometry>
        </mxCell>
        <mxCell id="s5jDc6gKKT0ccCfi1KdD-140" value="&lt;p style=&quot;margin: 0in 0in 0in 0.5in; line-height: 18.4px; font-size: 12pt; font-family: Aptos, sans-serif;&quot; class=&quot;MsoListParagraphCxSpFirst&quot;&gt;- filePath: String&lt;/p&gt;&lt;p style=&quot;margin: 0in 0in 8pt 0.5in; line-height: 18.4px; font-size: 12pt; font-family: Aptos, sans-serif;&quot; class=&quot;MsoListParagraphCxSpLast&quot;&gt;- generatedAt: DateTime&lt;/p&gt;" style="text;strokeColor=none;fillColor=none;spacingLeft=4;spacingRight=4;overflow=hidden;rotatable=0;points=[[0,0.5],[1,0.5]];portConstraint=eastwest;fontSize=12;whiteSpace=wrap;html=1;align=left;" vertex="1" parent="s5jDc6gKKT0ccCfi1KdD-139">
          <mxGeometry y="26" width="478" height="52" as="geometry" />
        </mxCell>
        <mxCell id="s5jDc6gKKT0ccCfi1KdD-141" value="&lt;p style=&quot;margin: 0in 0in 0in 0.5in; line-height: 18.4px; font-size: 12pt; font-family: Aptos, sans-serif;&quot; class=&quot;MsoListParagraphCxSpFirst&quot;&gt;+ generateFrom(contract: RentalContract): ContractPDF&lt;/p&gt;&lt;p style=&quot;margin: 0in 0in 8pt 0.5in; line-height: 18.4px; font-size: 12pt; font-family: Aptos, sans-serif;&quot; class=&quot;MsoListParagraphCxSpLast&quot;&gt;+ export(): void&lt;/p&gt;" style="text;strokeColor=#000066;fillColor=none;spacingLeft=4;spacingRight=4;overflow=hidden;rotatable=0;points=[[0,0.5],[1,0.5]];portConstraint=eastwest;fontSize=12;whiteSpace=wrap;html=1;strokeWidth=2;" vertex="1" parent="s5jDc6gKKT0ccCfi1KdD-139">
          <mxGeometry y="78" width="478" height="78" as="geometry" />
        </mxCell>
        <mxCell id="s5jDc6gKKT0ccCfi1KdD-142" value="Sumitted Document" style="swimlane;fontStyle=1;childLayout=stackLayout;horizontal=1;startSize=26;horizontalStack=0;resizeParent=1;resizeParentMax=0;resizeLast=0;collapsible=1;marginBottom=0;align=center;fontSize=14;fillColor=#dae8fc;strokeColor=#6c8ebf;strokeWidth=2;" vertex="1" parent="1">
          <mxGeometry x="3050" y="562" width="466" height="229" as="geometry">
            <mxRectangle x="1950" y="-330" width="60" height="30" as="alternateBounds" />
          </mxGeometry>
        </mxCell>
        <mxCell id="s5jDc6gKKT0ccCfi1KdD-143" value="&lt;p style=&quot;margin: 0in 0in 0in 0.5in; line-height: 18.4px; font-size: 12pt; font-family: Aptos, sans-serif;&quot; class=&quot;MsoListParagraphCxSpFirst&quot;&gt;- id: UUID&lt;/p&gt;&lt;p style=&quot;margin: 0in 0in 0in 0.5in; line-height: 18.4px; font-size: 12pt; font-family: Aptos, sans-serif;&quot; class=&quot;MsoListParagraphCxSpMiddle&quot;&gt;- type: enum { ID, TaxNumber, IncomeProof }&lt;/p&gt;&lt;p style=&quot;margin: 0in 0in 0in 0.5in; line-height: 18.4px; font-size: 12pt; font-family: Aptos, sans-serif;&quot; class=&quot;MsoListParagraphCxSpMiddle&quot;&gt;- fileName: String&lt;/p&gt;&lt;p style=&quot;margin: 0in 0in 0in 0.5in; line-height: 18.4px; font-size: 12pt; font-family: Aptos, sans-serif;&quot; class=&quot;MsoListParagraphCxSpMiddle&quot;&gt;- fileSize: Int&lt;/p&gt;&lt;p style=&quot;margin: 0in 0in 0in 0.5in; line-height: 18.4px; font-size: 12pt; font-family: Aptos, sans-serif;&quot; class=&quot;MsoListParagraphCxSpMiddle&quot;&gt;- fileType: String&lt;/p&gt;&lt;p style=&quot;margin: 0in 0in 0in 0.5in; line-height: 18.4px; font-size: 12pt; font-family: Aptos, sans-serif;&quot; class=&quot;MsoListParagraphCxSpMiddle&quot;&gt;- orderIndex: Int&lt;/p&gt;&lt;p style=&quot;margin: 0in 0in 8pt 0.5in; line-height: 18.4px; font-size: 12pt; font-family: Aptos, sans-serif;&quot; class=&quot;MsoListParagraphCxSpLast&quot;&gt;- status: enum { Uploaded, Validated, Failed }&lt;/p&gt;" style="text;strokeColor=none;fillColor=none;spacingLeft=4;spacingRight=4;overflow=hidden;rotatable=0;points=[[0,0.5],[1,0.5]];portConstraint=eastwest;fontSize=12;whiteSpace=wrap;html=1;align=left;" vertex="1" parent="s5jDc6gKKT0ccCfi1KdD-142">
          <mxGeometry y="26" width="466" height="146" as="geometry" />
        </mxCell>
        <mxCell id="s5jDc6gKKT0ccCfi1KdD-144" value="&lt;p style=&quot;margin: 0in 0in 0in 0.5in; line-height: 18.4px; font-size: 12pt; font-family: Aptos, sans-serif;&quot; class=&quot;MsoListParagraphCxSpFirst&quot;&gt;+ validateFormat(): Boolean&lt;/p&gt;&lt;p style=&quot;margin: 0in 0in 8pt 0.5in; line-height: 18.4px; font-size: 12pt; font-family: Aptos, sans-serif;&quot; class=&quot;MsoListParagraphCxSpLast&quot;&gt;+ isVerified(): Boolean&lt;/p&gt;" style="text;strokeColor=#000066;fillColor=none;spacingLeft=4;spacingRight=4;overflow=hidden;rotatable=0;points=[[0,0.5],[1,0.5]];portConstraint=eastwest;fontSize=12;whiteSpace=wrap;html=1;strokeWidth=2;" vertex="1" parent="s5jDc6gKKT0ccCfi1KdD-142">
          <mxGeometry y="172" width="466" height="57" as="geometry" />
        </mxCell>
        <mxCell id="s5jDc6gKKT0ccCfi1KdD-145" value="Top Up Transaction" style="swimlane;fontStyle=1;childLayout=stackLayout;horizontal=1;startSize=26;horizontalStack=0;resizeParent=1;resizeParentMax=0;resizeLast=0;collapsible=1;marginBottom=0;align=center;fontSize=14;fillColor=#d5e8d4;strokeColor=#82b366;strokeWidth=2;" vertex="1" parent="1">
          <mxGeometry x="3699" y="1746" width="508" height="229" as="geometry">
            <mxRectangle x="1950" y="-330" width="60" height="30" as="alternateBounds" />
          </mxGeometry>
        </mxCell>
        <mxCell id="s5jDc6gKKT0ccCfi1KdD-146" value="&lt;p style=&quot;margin: 0in 0in 0in 0.5in; line-height: 18.4px; font-size: 12pt; font-family: Aptos, sans-serif;&quot; class=&quot;MsoListParagraphCxSpFirst&quot;&gt;- id: UUID&lt;/p&gt;&lt;p style=&quot;margin: 0in 0in 0in 0.5in; line-height: 18.4px; font-size: 12pt; font-family: Aptos, sans-serif;&quot; class=&quot;MsoListParagraphCxSpMiddle&quot;&gt;- user: User&lt;/p&gt;&lt;p style=&quot;margin: 0in 0in 0in 0.5in; line-height: 18.4px; font-size: 12pt; font-family: Aptos, sans-serif;&quot; class=&quot;MsoListParagraphCxSpMiddle&quot;&gt;- amount: Decimal&lt;/p&gt;&lt;p style=&quot;margin: 0in 0in 0in 0.5in; line-height: 18.4px; font-size: 12pt; font-family: Aptos, sans-serif;&quot; class=&quot;MsoListParagraphCxSpMiddle&quot;&gt;- method: PaymentMethod&lt;/p&gt;&lt;p style=&quot;margin: 0in 0in 0in 0.5in; line-height: 18.4px; font-size: 12pt; font-family: Aptos, sans-serif;&quot; class=&quot;MsoListParagraphCxSpMiddle&quot;&gt;- status: enum { Pending, Success, Failed }&lt;/p&gt;&lt;p style=&quot;margin: 0in 0in 8pt 0.5in; line-height: 18.4px; font-size: 12pt; font-family: Aptos, sans-serif;&quot; class=&quot;MsoListParagraphCxSpLast&quot;&gt;- timestamp: DateTime&lt;/p&gt;" style="text;strokeColor=none;fillColor=none;spacingLeft=4;spacingRight=4;overflow=hidden;rotatable=0;points=[[0,0.5],[1,0.5]];portConstraint=eastwest;fontSize=12;whiteSpace=wrap;html=1;align=left;" vertex="1" parent="s5jDc6gKKT0ccCfi1KdD-145">
          <mxGeometry y="26" width="508" height="145" as="geometry" />
        </mxCell>
        <mxCell id="s5jDc6gKKT0ccCfi1KdD-147" value="&lt;p style=&quot;margin: 0in 0in 0in 0.5in; line-height: 18.4px; font-size: 12pt; font-family: Aptos, sans-serif;&quot; class=&quot;MsoListParagraphCxSpFirst&quot;&gt;+ submit(): PaymentAuthorization&lt;/p&gt;&lt;p style=&quot;margin: 0in 0in 8pt 0.5in; line-height: 18.4px; font-size: 12pt; font-family: Aptos, sans-serif;&quot; class=&quot;MsoListParagraphCxSpLast&quot;&gt;+ finalize(): void&lt;/p&gt;" style="text;strokeColor=#006600;fillColor=none;spacingLeft=4;spacingRight=4;overflow=hidden;rotatable=0;points=[[0,0.5],[1,0.5]];portConstraint=eastwest;fontSize=12;whiteSpace=wrap;html=1;strokeWidth=2;" vertex="1" parent="s5jDc6gKKT0ccCfi1KdD-145">
          <mxGeometry y="171" width="508" height="58" as="geometry" />
        </mxCell>
        <mxCell id="s5jDc6gKKT0ccCfi1KdD-148" value="Appointment" style="swimlane;fontStyle=1;childLayout=stackLayout;horizontal=1;startSize=26;horizontalStack=0;resizeParent=1;resizeParentMax=0;resizeLast=0;collapsible=1;marginBottom=0;align=center;fontSize=14;fillColor=#d5e8d4;strokeColor=#82b366;strokeWidth=2;" vertex="1" parent="1">
          <mxGeometry x="3234" y="990" width="508" height="279" as="geometry">
            <mxRectangle x="1950" y="-330" width="60" height="30" as="alternateBounds" />
          </mxGeometry>
        </mxCell>
        <mxCell id="s5jDc6gKKT0ccCfi1KdD-149" value="&lt;p style=&quot;margin: 0in 0in 0in 0.5in; line-height: 18.4px; font-size: 12pt; font-family: Aptos, sans-serif;&quot; class=&quot;MsoListParagraphCxSpFirst&quot;&gt;- id: UUID&lt;/p&gt;&lt;p style=&quot;margin: 0in 0in 0in 0.5in; line-height: 18.4px; font-size: 12pt; font-family: Aptos, sans-serif;&quot; class=&quot;MsoListParagraphCxSpMiddle&quot;&gt;- listing: Listing&lt;/p&gt;&lt;p style=&quot;margin: 0in 0in 0in 0.5in; line-height: 18.4px; font-size: 12pt; font-family: Aptos, sans-serif;&quot; class=&quot;MsoListParagraphCxSpMiddle&quot;&gt;- tenant: Tenant&lt;/p&gt;&lt;p style=&quot;margin: 0in 0in 0in 0.5in; line-height: 18.4px; font-size: 12pt; font-family: Aptos, sans-serif;&quot; class=&quot;MsoListParagraphCxSpMiddle&quot;&gt;- owner: Owner&lt;/p&gt;&lt;p style=&quot;margin: 0in 0in 0in 0.5in; line-height: 18.4px; font-size: 12pt; font-family: Aptos, sans-serif;&quot; class=&quot;MsoListParagraphCxSpMiddle&quot;&gt;- scheduledAt: DateTime&lt;/p&gt;&lt;p style=&quot;margin: 0in 0in 0in 0.5in; line-height: 18.4px; font-size: 12pt; font-family: Aptos, sans-serif;&quot; class=&quot;MsoListParagraphCxSpMiddle&quot;&gt;- isConfirmed: Boolean&lt;/p&gt;&lt;p style=&quot;margin: 0in 0in 0in 0.5in; line-height: 18.4px; font-size: 12pt; font-family: Aptos, sans-serif;&quot; class=&quot;MsoListParagraphCxSpMiddle&quot;&gt;- status: enum { Scheduled, Visited }&lt;/p&gt;&lt;p style=&quot;margin: 0in 0in 8pt 0.5in; line-height: 18.4px; font-size: 12pt; font-family: Aptos, sans-serif;&quot; class=&quot;MsoListParagraphCxSpLast&quot;&gt;- confirmedArrival: Boolean&lt;/p&gt;" style="text;strokeColor=none;fillColor=none;spacingLeft=4;spacingRight=4;overflow=hidden;rotatable=0;points=[[0,0.5],[1,0.5]];portConstraint=eastwest;fontSize=12;whiteSpace=wrap;html=1;align=left;" vertex="1" parent="s5jDc6gKKT0ccCfi1KdD-148">
          <mxGeometry y="26" width="508" height="166" as="geometry" />
        </mxCell>
        <mxCell id="s5jDc6gKKT0ccCfi1KdD-150" value="&lt;p style=&quot;margin: 0in 0in 0in 0.5in; line-height: 18.4px; font-size: 12pt; font-family: Aptos, sans-serif;&quot; class=&quot;MsoListParagraphCxSpFirst&quot;&gt;+ confirm(): void&lt;/p&gt;&lt;p style=&quot;margin: 0in 0in 0in 0.5in; line-height: 18.4px; font-size: 12pt; font-family: Aptos, sans-serif;&quot; class=&quot;MsoListParagraphCxSpMiddle&quot;&gt;+ toEmailContent(): String&lt;/p&gt;&lt;p style=&quot;margin: 0in 0in 0in 0.5in; line-height: 18.4px; font-size: 12pt; font-family: Aptos, sans-serif;&quot; class=&quot;MsoListParagraphCxSpMiddle&quot;&gt;+ getDetails()&lt;/p&gt;&lt;p style=&quot;margin: 0in 0in 8pt 0.5in; line-height: 18.4px; font-size: 12pt; font-family: Aptos, sans-serif;&quot; class=&quot;MsoListParagraphCxSpLast&quot;&gt;+ markVisited(): void&lt;/p&gt;" style="text;strokeColor=#006600;fillColor=none;spacingLeft=4;spacingRight=4;overflow=hidden;rotatable=0;points=[[0,0.5],[1,0.5]];portConstraint=eastwest;fontSize=12;whiteSpace=wrap;html=1;strokeWidth=2;" vertex="1" parent="s5jDc6gKKT0ccCfi1KdD-148">
          <mxGeometry y="192" width="508" height="87" as="geometry" />
        </mxCell>
        <mxCell id="s5jDc6gKKT0ccCfi1KdD-151" value="Payment Provider" style="swimlane;fontStyle=1;childLayout=stackLayout;horizontal=1;startSize=26;horizontalStack=0;resizeParent=1;resizeParentMax=0;resizeLast=0;collapsible=1;marginBottom=0;align=center;fontSize=14;fillColor=#dae8fc;strokeColor=#6c8ebf;strokeWidth=2;" vertex="1" parent="1">
          <mxGeometry x="5128" y="2525.5" width="486" height="194" as="geometry">
            <mxRectangle x="1950" y="-330" width="60" height="30" as="alternateBounds" />
          </mxGeometry>
        </mxCell>
        <mxCell id="s5jDc6gKKT0ccCfi1KdD-152" value="&lt;p style=&quot;margin: 0in 0in 0in 0.5in; line-height: 18.4px; font-size: 12pt; font-family: Aptos, sans-serif;&quot; class=&quot;MsoListParagraphCxSpFirst&quot;&gt;&lt;br&gt;&lt;/p&gt;" style="text;strokeColor=none;fillColor=none;spacingLeft=4;spacingRight=4;overflow=hidden;rotatable=0;points=[[0,0.5],[1,0.5]];portConstraint=eastwest;fontSize=12;whiteSpace=wrap;html=1;align=left;" vertex="1" parent="s5jDc6gKKT0ccCfi1KdD-151">
          <mxGeometry y="26" width="486" height="36" as="geometry" />
        </mxCell>
        <mxCell id="s5jDc6gKKT0ccCfi1KdD-153" value="&lt;p style=&quot;margin: 0in 0in 0in 0.5in; line-height: normal; font-size: 12pt; font-family: Aptos, sans-serif;&quot; class=&quot;MsoListParagraphCxSpFirst&quot;&gt;&lt;b&gt;&amp;nbsp;&lt;/b&gt;&lt;/p&gt;&lt;p style=&quot;margin: 0in 0in 0in 0.5in; line-height: normal; font-size: 12pt; font-family: Aptos, sans-serif;&quot; class=&quot;MsoListParagraphCxSpMiddle&quot;&gt;+ processPayment(amount, method):&lt;/p&gt;&lt;p style=&quot;margin: 0in 0in 0in 0.5in; line-height: normal; font-size: 12pt; font-family: Aptos, sans-serif;&quot; class=&quot;MsoListParagraphCxSpMiddle&quot;&gt;&amp;nbsp;&lt;/p&gt;&lt;p style=&quot;margin: 0in 0in 0in 0.5in; line-height: normal; font-size: 12pt; font-family: Aptos, sans-serif;&quot; class=&quot;MsoListParagraphCxSpMiddle&quot;&gt;+ authorizeTopUp(amount, method)&lt;/p&gt;&lt;p style=&quot;margin: 0in 0in 0in 0.5in; line-height: normal; font-size: 12pt; font-family: Aptos, sans-serif;&quot; class=&quot;MsoListParagraphCxSpMiddle&quot;&gt;&amp;nbsp;&lt;/p&gt;&lt;p style=&quot;margin: 0in 0in 8pt 0.5in; line-height: normal; font-size: 12pt; font-family: Aptos, sans-serif;&quot; class=&quot;MsoListParagraphCxSpLast&quot;&gt;+ verifyCard(CardDetails)&lt;/p&gt;" style="text;strokeColor=#000066;fillColor=none;spacingLeft=4;spacingRight=4;overflow=hidden;rotatable=0;points=[[0,0.5],[1,0.5]];portConstraint=eastwest;fontSize=12;whiteSpace=wrap;html=1;strokeWidth=2;" vertex="1" parent="s5jDc6gKKT0ccCfi1KdD-151">
          <mxGeometry y="62" width="486" height="132" as="geometry" />
        </mxCell>
        <mxCell id="s5jDc6gKKT0ccCfi1KdD-154" value="&lt;h1&gt;&lt;b&gt;Domain Model v0.2&lt;/b&gt;&lt;/h1&gt;" style="text;whiteSpace=wrap;html=1;" vertex="1" parent="1">
          <mxGeometry x="4569" y="-852" width="281.85" height="83" as="geometry" />
        </mxCell>
        <mxCell id="s5jDc6gKKT0ccCfi1KdD-155" value="" style="endArrow=diamondThin;endFill=1;endSize=24;html=1;rounded=0;entryX=1.001;entryY=0.393;entryDx=0;entryDy=0;exitX=0;exitY=0.59;exitDx=0;exitDy=0;entryPerimeter=0;exitPerimeter=0;" edge="1" parent="1" source="s5jDc6gKKT0ccCfi1KdD-64" target="s5jDc6gKKT0ccCfi1KdD-61">
          <mxGeometry width="160" relative="1" as="geometry">
            <mxPoint x="6901" y="631.5" as="sourcePoint" />
            <mxPoint x="6821" y="631.5" as="targetPoint" />
          </mxGeometry>
        </mxCell>
        <mxCell id="s5jDc6gKKT0ccCfi1KdD-156" value="" style="endArrow=diamondThin;endFill=0;endSize=24;html=1;rounded=0;entryX=0.657;entryY=1.061;entryDx=0;entryDy=0;exitX=0.282;exitY=-0.008;exitDx=0;exitDy=0;exitPerimeter=0;entryPerimeter=0;" edge="1" parent="1" source="s5jDc6gKKT0ccCfi1KdD-60" target="s5jDc6gKKT0ccCfi1KdD-52">
          <mxGeometry width="160" relative="1" as="geometry">
            <mxPoint x="6225" y="409" as="sourcePoint" />
            <mxPoint x="6130.08" y="289" as="targetPoint" />
            <Array as="points">
              <mxPoint x="6413" y="359" />
              <mxPoint x="6130" y="359" />
            </Array>
          </mxGeometry>
        </mxCell>
        <mxCell id="s5jDc6gKKT0ccCfi1KdD-157" value="" style="endArrow=diamondThin;endFill=0;endSize=24;html=1;rounded=0;entryX=1.001;entryY=0.858;entryDx=0;entryDy=0;exitX=0;exitY=0.5;exitDx=0;exitDy=0;entryPerimeter=0;" edge="1" parent="1" source="s5jDc6gKKT0ccCfi1KdD-54" target="s5jDc6gKKT0ccCfi1KdD-51">
          <mxGeometry width="160" relative="1" as="geometry">
            <mxPoint x="6553" y="460" as="sourcePoint" />
            <mxPoint x="6270.08" y="218" as="targetPoint" />
            <Array as="points">
              <mxPoint x="6300" y="264" />
              <mxPoint x="6300" y="211" />
            </Array>
          </mxGeometry>
        </mxCell>
        <mxCell id="s5jDc6gKKT0ccCfi1KdD-158" value="" style="endArrow=blockThin;html=1;rounded=0;endFill=0;" edge="1" parent="1">
          <mxGeometry width="50" height="50" relative="1" as="geometry">
            <mxPoint x="5532" y="-635.56" as="sourcePoint" />
            <mxPoint x="5672" y="-636" as="targetPoint" />
            <Array as="points">
              <mxPoint x="5562" y="-635.56" />
              <mxPoint x="5592" y="-635.56" />
            </Array>
          </mxGeometry>
        </mxCell>
        <mxCell id="s5jDc6gKKT0ccCfi1KdD-159" value="" style="endArrow=blockThin;html=1;rounded=0;endFill=0;entryX=0;entryY=0.5;entryDx=0;entryDy=0;" edge="1" parent="1" target="s5jDc6gKKT0ccCfi1KdD-25">
          <mxGeometry width="50" height="50" relative="1" as="geometry">
            <mxPoint x="5532" y="-559.56" as="sourcePoint" />
            <mxPoint x="5672" y="-560" as="targetPoint" />
            <Array as="points">
              <mxPoint x="5562" y="-559.56" />
              <mxPoint x="5592" y="-559.56" />
            </Array>
          </mxGeometry>
        </mxCell>
        <mxCell id="s5jDc6gKKT0ccCfi1KdD-160" value="" style="endArrow=none;html=1;rounded=0;exitX=1.006;exitY=0.051;exitDx=0;exitDy=0;exitPerimeter=0;entryX=-0.003;entryY=0.188;entryDx=0;entryDy=0;entryPerimeter=0;" edge="1" parent="1" source="s5jDc6gKKT0ccCfi1KdD-2" target="s5jDc6gKKT0ccCfi1KdD-28">
          <mxGeometry width="50" height="50" relative="1" as="geometry">
            <mxPoint x="5660" y="-150" as="sourcePoint" />
            <mxPoint x="5710" y="-200" as="targetPoint" />
          </mxGeometry>
        </mxCell>
        <mxCell id="s5jDc6gKKT0ccCfi1KdD-161" value="" style="endArrow=diamondThin;endFill=0;endSize=24;html=1;rounded=0;entryX=0.993;entryY=0.309;entryDx=0;entryDy=0;entryPerimeter=0;exitX=-0.005;exitY=0.796;exitDx=0;exitDy=0;exitPerimeter=0;" edge="1" parent="1" source="s5jDc6gKKT0ccCfi1KdD-22" target="s5jDc6gKKT0ccCfi1KdD-3">
          <mxGeometry width="160" relative="1" as="geometry">
            <mxPoint x="5600" y="-170" as="sourcePoint" />
            <mxPoint x="5760" y="-170" as="targetPoint" />
          </mxGeometry>
        </mxCell>
        <mxCell id="s5jDc6gKKT0ccCfi1KdD-162" value="" style="endArrow=diamondThin;endFill=0;endSize=24;html=1;rounded=0;entryX=0.993;entryY=0.309;entryDx=0;entryDy=0;entryPerimeter=0;exitX=0.299;exitY=0.017;exitDx=0;exitDy=0;exitPerimeter=0;" edge="1" parent="1" source="s5jDc6gKKT0ccCfi1KdD-50">
          <mxGeometry width="160" relative="1" as="geometry">
            <mxPoint x="5060" y="-180" as="sourcePoint" />
            <mxPoint x="4912" y="-187" as="targetPoint" />
            <Array as="points">
              <mxPoint x="5640" y="-130" />
            </Array>
          </mxGeometry>
        </mxCell>
        <mxCell id="s5jDc6gKKT0ccCfi1KdD-163" value="" style="endArrow=diamondThin;endFill=1;endSize=24;html=1;rounded=0;entryX=1.001;entryY=0.393;entryDx=0;entryDy=0;exitX=0.164;exitY=-0.021;exitDx=0;exitDy=0;entryPerimeter=0;exitPerimeter=0;" edge="1" parent="1" source="s5jDc6gKKT0ccCfi1KdD-69">
          <mxGeometry width="160" relative="1" as="geometry">
            <mxPoint x="6089" y="770" as="sourcePoint" />
            <mxPoint x="6030" y="648.33" as="targetPoint" />
          </mxGeometry>
        </mxCell>
        <mxCell id="s5jDc6gKKT0ccCfi1KdD-164" value="" style="endArrow=diamondThin;endFill=0;endSize=24;html=1;rounded=0;entryX=0.954;entryY=1.002;entryDx=0;entryDy=0;entryPerimeter=0;exitX=0;exitY=0.25;exitDx=0;exitDy=0;" edge="1" parent="1" source="s5jDc6gKKT0ccCfi1KdD-56" target="s5jDc6gKKT0ccCfi1KdD-3">
          <mxGeometry width="160" relative="1" as="geometry">
            <mxPoint x="5622" y="216" as="sourcePoint" />
            <mxPoint x="4720" y="-20" as="targetPoint" />
            <Array as="points">
              <mxPoint x="5050" y="390" />
            </Array>
          </mxGeometry>
        </mxCell>
        <mxCell id="s5jDc6gKKT0ccCfi1KdD-165" style="edgeStyle=orthogonalEdgeStyle;rounded=0;orthogonalLoop=1;jettySize=auto;html=1;entryX=1.008;entryY=0.974;entryDx=0;entryDy=0;entryPerimeter=0;" edge="1" parent="1" source="s5jDc6gKKT0ccCfi1KdD-67" target="s5jDc6gKKT0ccCfi1KdD-73">
          <mxGeometry relative="1" as="geometry" />
        </mxCell>
        <mxCell id="s5jDc6gKKT0ccCfi1KdD-166" style="edgeStyle=orthogonalEdgeStyle;rounded=0;orthogonalLoop=1;jettySize=auto;html=1;dashed=1;" edge="1" parent="1" source="s5jDc6gKKT0ccCfi1KdD-66" target="s5jDc6gKKT0ccCfi1KdD-99">
          <mxGeometry relative="1" as="geometry">
            <Array as="points">
              <mxPoint x="5798" y="1050" />
            </Array>
          </mxGeometry>
        </mxCell>
        <mxCell id="s5jDc6gKKT0ccCfi1KdD-167" value="" style="endArrow=diamondThin;endFill=1;endSize=24;html=1;rounded=0;entryX=0.799;entryY=1.006;entryDx=0;entryDy=0;entryPerimeter=0;exitX=0.152;exitY=0.003;exitDx=0;exitDy=0;exitPerimeter=0;" edge="1" parent="1" source="s5jDc6gKKT0ccCfi1KdD-72" target="s5jDc6gKKT0ccCfi1KdD-3">
          <mxGeometry width="160" relative="1" as="geometry">
            <mxPoint x="5530" y="460" as="sourcePoint" />
            <mxPoint x="5690" y="460" as="targetPoint" />
          </mxGeometry>
        </mxCell>
        <mxCell id="s5jDc6gKKT0ccCfi1KdD-168" value="" style="endArrow=block;dashed=1;endFill=0;endSize=12;html=1;rounded=0;entryX=1.012;entryY=0.802;entryDx=0;entryDy=0;entryPerimeter=0;" edge="1" parent="1" source="s5jDc6gKKT0ccCfi1KdD-8" target="s5jDc6gKKT0ccCfi1KdD-3">
          <mxGeometry width="160" relative="1" as="geometry">
            <mxPoint x="5530" y="150" as="sourcePoint" />
            <mxPoint x="5690" y="150" as="targetPoint" />
          </mxGeometry>
        </mxCell>
        <mxCell id="s5jDc6gKKT0ccCfi1KdD-169" value="" style="endArrow=block;dashed=1;endFill=0;endSize=12;html=1;rounded=0;entryX=0.33;entryY=1.006;entryDx=0;entryDy=0;entryPerimeter=0;" edge="1" parent="1" target="s5jDc6gKKT0ccCfi1KdD-3">
          <mxGeometry width="160" relative="1" as="geometry">
            <mxPoint x="4420" y="200" as="sourcePoint" />
            <mxPoint x="4250" y="158" as="targetPoint" />
          </mxGeometry>
        </mxCell>
        <mxCell id="s5jDc6gKKT0ccCfi1KdD-170" value="" style="endArrow=none;html=1;rounded=0;exitX=0.659;exitY=-0.011;exitDx=0;exitDy=0;exitPerimeter=0;entryX=-0.009;entryY=0.29;entryDx=0;entryDy=0;entryPerimeter=0;" edge="1" parent="1" source="s5jDc6gKKT0ccCfi1KdD-130" target="s5jDc6gKKT0ccCfi1KdD-9">
          <mxGeometry width="50" height="50" relative="1" as="geometry">
            <mxPoint x="5170" y="290" as="sourcePoint" />
            <mxPoint x="5220" y="240" as="targetPoint" />
          </mxGeometry>
        </mxCell>
        <mxCell id="s5jDc6gKKT0ccCfi1KdD-171" style="edgeStyle=orthogonalEdgeStyle;rounded=0;orthogonalLoop=1;jettySize=auto;html=1;entryX=1.001;entryY=0.759;entryDx=0;entryDy=0;entryPerimeter=0;" edge="1" parent="1" source="s5jDc6gKKT0ccCfi1KdD-94" target="s5jDc6gKKT0ccCfi1KdD-74">
          <mxGeometry relative="1" as="geometry">
            <Array as="points">
              <mxPoint x="6274" y="1090" />
              <mxPoint x="5375" y="1090" />
            </Array>
          </mxGeometry>
        </mxCell>
        <mxCell id="s5jDc6gKKT0ccCfi1KdD-172" style="edgeStyle=orthogonalEdgeStyle;rounded=0;orthogonalLoop=1;jettySize=auto;html=1;entryX=0.92;entryY=0.003;entryDx=0;entryDy=0;entryPerimeter=0;" edge="1" parent="1" source="s5jDc6gKKT0ccCfi1KdD-72" target="s5jDc6gKKT0ccCfi1KdD-85">
          <mxGeometry relative="1" as="geometry">
            <Array as="points">
              <mxPoint x="5080" y="1190" />
              <mxPoint x="5180" y="1190" />
            </Array>
          </mxGeometry>
        </mxCell>
        <mxCell id="s5jDc6gKKT0ccCfi1KdD-173" style="edgeStyle=orthogonalEdgeStyle;rounded=0;orthogonalLoop=1;jettySize=auto;html=1;" edge="1" parent="1" source="s5jDc6gKKT0ccCfi1KdD-86" target="s5jDc6gKKT0ccCfi1KdD-93">
          <mxGeometry relative="1" as="geometry" />
        </mxCell>
        <mxCell id="s5jDc6gKKT0ccCfi1KdD-174" value="" style="endArrow=diamondThin;endFill=1;endSize=24;html=1;rounded=0;entryX=0.002;entryY=0.424;entryDx=0;entryDy=0;entryPerimeter=0;exitX=0.5;exitY=0;exitDx=0;exitDy=0;" edge="1" parent="1" source="s5jDc6gKKT0ccCfi1KdD-88" target="s5jDc6gKKT0ccCfi1KdD-86">
          <mxGeometry width="160" relative="1" as="geometry">
            <mxPoint x="4820" y="1460" as="sourcePoint" />
            <mxPoint x="4980" y="1460" as="targetPoint" />
          </mxGeometry>
        </mxCell>
        <mxCell id="s5jDc6gKKT0ccCfi1KdD-175" value="" style="endArrow=diamondThin;endFill=1;endSize=24;html=1;rounded=0;exitX=0.75;exitY=0;exitDx=0;exitDy=0;" edge="1" parent="1" source="s5jDc6gKKT0ccCfi1KdD-133" target="s5jDc6gKKT0ccCfi1KdD-132">
          <mxGeometry width="160" relative="1" as="geometry">
            <mxPoint x="4950" y="990" as="sourcePoint" />
            <mxPoint x="5110" y="990" as="targetPoint" />
          </mxGeometry>
        </mxCell>
        <mxCell id="s5jDc6gKKT0ccCfi1KdD-176" value="" style="endArrow=diamondThin;endFill=1;endSize=24;html=1;rounded=0;entryX=0.826;entryY=0.974;entryDx=0;entryDy=0;entryPerimeter=0;" edge="1" parent="1" source="s5jDc6gKKT0ccCfi1KdD-10" target="s5jDc6gKKT0ccCfi1KdD-16">
          <mxGeometry width="160" relative="1" as="geometry">
            <mxPoint x="4138" y="915" as="sourcePoint" />
            <mxPoint x="4033" y="780" as="targetPoint" />
          </mxGeometry>
        </mxCell>
        <mxCell id="s5jDc6gKKT0ccCfi1KdD-177" value="" style="endArrow=diamondThin;endFill=1;endSize=24;html=1;rounded=0;entryX=0.826;entryY=0.974;entryDx=0;entryDy=0;entryPerimeter=0;" edge="1" parent="1" source="s5jDc6gKKT0ccCfi1KdD-130">
          <mxGeometry width="160" relative="1" as="geometry">
            <mxPoint x="4460" y="562.5" as="sourcePoint" />
            <mxPoint x="4472" y="420.5" as="targetPoint" />
          </mxGeometry>
        </mxCell>
        <mxCell id="s5jDc6gKKT0ccCfi1KdD-178" style="edgeStyle=orthogonalEdgeStyle;rounded=0;orthogonalLoop=1;jettySize=auto;html=1;" edge="1" parent="1" source="s5jDc6gKKT0ccCfi1KdD-15" target="s5jDc6gKKT0ccCfi1KdD-137">
          <mxGeometry relative="1" as="geometry">
            <Array as="points">
              <mxPoint x="3640" y="156" />
              <mxPoint x="3640" y="905" />
            </Array>
          </mxGeometry>
        </mxCell>
        <mxCell id="s5jDc6gKKT0ccCfi1KdD-179" value="" style="endArrow=none;html=1;rounded=0;entryX=0;entryY=0.5;entryDx=0;entryDy=0;" edge="1" parent="1" target="s5jDc6gKKT0ccCfi1KdD-3">
          <mxGeometry width="50" height="50" relative="1" as="geometry">
            <mxPoint x="4190" y="-226" as="sourcePoint" />
            <mxPoint x="4340" y="-160" as="targetPoint" />
          </mxGeometry>
        </mxCell>
        <mxCell id="s5jDc6gKKT0ccCfi1KdD-180" value="" style="endArrow=diamondThin;endFill=0;endSize=24;html=1;rounded=0;entryX=0.002;entryY=0.093;entryDx=0;entryDy=0;entryPerimeter=0;exitX=0.999;exitY=0.164;exitDx=0;exitDy=0;exitPerimeter=0;" edge="1" parent="1" source="s5jDc6gKKT0ccCfi1KdD-37" target="s5jDc6gKKT0ccCfi1KdD-2">
          <mxGeometry width="160" relative="1" as="geometry">
            <mxPoint x="3630" y="-230" as="sourcePoint" />
            <mxPoint x="3790" y="-230" as="targetPoint" />
          </mxGeometry>
        </mxCell>
        <mxCell id="s5jDc6gKKT0ccCfi1KdD-181" value="" style="endArrow=diamondThin;endFill=1;endSize=24;html=1;rounded=0;entryX=-0.002;entryY=0.193;entryDx=0;entryDy=0;entryPerimeter=0;" edge="1" parent="1" source="s5jDc6gKKT0ccCfi1KdD-40" target="s5jDc6gKKT0ccCfi1KdD-37">
          <mxGeometry width="160" relative="1" as="geometry">
            <mxPoint x="3590" y="-380" as="sourcePoint" />
            <mxPoint x="3750" y="-380" as="targetPoint" />
          </mxGeometry>
        </mxCell>
        <mxCell id="s5jDc6gKKT0ccCfi1KdD-182" value="" style="endArrow=diamondThin;endFill=1;endSize=24;html=1;rounded=0;entryX=-0.01;entryY=0.938;entryDx=0;entryDy=0;entryPerimeter=0;" edge="1" parent="1" source="s5jDc6gKKT0ccCfi1KdD-43" target="s5jDc6gKKT0ccCfi1KdD-37">
          <mxGeometry width="160" relative="1" as="geometry">
            <mxPoint x="3799" y="-508" as="sourcePoint" />
            <mxPoint x="3880" y="-510" as="targetPoint" />
          </mxGeometry>
        </mxCell>
        <mxCell id="s5jDc6gKKT0ccCfi1KdD-183" value="" style="endArrow=diamondThin;endFill=1;endSize=24;html=1;rounded=0;entryX=-0.004;entryY=0.796;entryDx=0;entryDy=0;entryPerimeter=0;exitX=1.004;exitY=0.637;exitDx=0;exitDy=0;exitPerimeter=0;" edge="1" parent="1" source="s5jDc6gKKT0ccCfi1KdD-47" target="s5jDc6gKKT0ccCfi1KdD-38">
          <mxGeometry width="160" relative="1" as="geometry">
            <mxPoint x="3700" y="-393.5" as="sourcePoint" />
            <mxPoint x="3905" y="-447.5" as="targetPoint" />
          </mxGeometry>
        </mxCell>
        <mxCell id="s5jDc6gKKT0ccCfi1KdD-184" value="" style="endArrow=diamondThin;endFill=1;endSize=24;html=1;rounded=0;entryX=-0.004;entryY=0.796;entryDx=0;entryDy=0;entryPerimeter=0;" edge="1" parent="1" source="s5jDc6gKKT0ccCfi1KdD-82">
          <mxGeometry width="160" relative="1" as="geometry">
            <mxPoint x="3634" y="159.5" as="sourcePoint" />
            <mxPoint x="3845" y="-129.5" as="targetPoint" />
          </mxGeometry>
        </mxCell>
        <mxCell id="s5jDc6gKKT0ccCfi1KdD-185" value="" style="endArrow=diamondThin;endFill=1;endSize=24;html=1;rounded=0;entryX=0.158;entryY=1.008;entryDx=0;entryDy=0;entryPerimeter=0;exitX=0.333;exitY=0.013;exitDx=0;exitDy=0;exitPerimeter=0;" edge="1" parent="1" source="s5jDc6gKKT0ccCfi1KdD-142" target="s5jDc6gKKT0ccCfi1KdD-84">
          <mxGeometry width="160" relative="1" as="geometry">
            <mxPoint x="3300" y="520" as="sourcePoint" />
            <mxPoint x="3460" y="520" as="targetPoint" />
          </mxGeometry>
        </mxCell>
        <mxCell id="s5jDc6gKKT0ccCfi1KdD-186" value="" style="endArrow=diamondThin;endFill=1;endSize=24;html=1;rounded=0;entryX=0.497;entryY=1.001;entryDx=0;entryDy=0;entryPerimeter=0;exitX=0.5;exitY=0;exitDx=0;exitDy=0;" edge="1" parent="1" source="s5jDc6gKKT0ccCfi1KdD-139" target="s5jDc6gKKT0ccCfi1KdD-138">
          <mxGeometry width="160" relative="1" as="geometry">
            <mxPoint x="3550" y="1270" as="sourcePoint" />
            <mxPoint x="3710" y="1270" as="targetPoint" />
          </mxGeometry>
        </mxCell>
        <mxCell id="s5jDc6gKKT0ccCfi1KdD-187" style="edgeStyle=orthogonalEdgeStyle;rounded=0;orthogonalLoop=1;jettySize=auto;html=1;entryX=-0.001;entryY=0.414;entryDx=0;entryDy=0;entryPerimeter=0;" edge="1" parent="1" source="s5jDc6gKKT0ccCfi1KdD-137" target="s5jDc6gKKT0ccCfi1KdD-132">
          <mxGeometry relative="1" as="geometry" />
        </mxCell>
        <mxCell id="s5jDc6gKKT0ccCfi1KdD-188" style="edgeStyle=orthogonalEdgeStyle;rounded=0;orthogonalLoop=1;jettySize=auto;html=1;entryX=1;entryY=0.5;entryDx=0;entryDy=0;" edge="1" parent="1" source="s5jDc6gKKT0ccCfi1KdD-112" target="s5jDc6gKKT0ccCfi1KdD-138">
          <mxGeometry relative="1" as="geometry">
            <Array as="points">
              <mxPoint x="4340" y="1870" />
              <mxPoint x="4340" y="1211" />
            </Array>
          </mxGeometry>
        </mxCell>
        <mxCell id="s5jDc6gKKT0ccCfi1KdD-189" style="edgeStyle=orthogonalEdgeStyle;rounded=0;orthogonalLoop=1;jettySize=auto;html=1;exitX=0.5;exitY=1.017;exitDx=0;exitDy=0;exitPerimeter=0;" edge="1" parent="1" source="s5jDc6gKKT0ccCfi1KdD-147">
          <mxGeometry relative="1" as="geometry">
            <mxPoint x="3953" y="1990" as="sourcePoint" />
            <mxPoint x="5575" y="2110" as="targetPoint" />
            <Array as="points">
              <mxPoint x="3953" y="2050" />
              <mxPoint x="5575" y="2050" />
            </Array>
          </mxGeometry>
        </mxCell>
        <mxCell id="s5jDc6gKKT0ccCfi1KdD-190" style="edgeStyle=orthogonalEdgeStyle;rounded=0;orthogonalLoop=1;jettySize=auto;html=1;entryX=0.802;entryY=0.001;entryDx=0;entryDy=0;entryPerimeter=0;" edge="1" parent="1" source="s5jDc6gKKT0ccCfi1KdD-112" target="s5jDc6gKKT0ccCfi1KdD-114">
          <mxGeometry relative="1" as="geometry" />
        </mxCell>
        <mxCell id="s5jDc6gKKT0ccCfi1KdD-191" style="edgeStyle=orthogonalEdgeStyle;rounded=0;orthogonalLoop=1;jettySize=auto;html=1;entryX=0;entryY=0.732;entryDx=0;entryDy=0;entryPerimeter=0;exitX=0.671;exitY=1.034;exitDx=0;exitDy=0;exitPerimeter=0;" edge="1" parent="1" source="s5jDc6gKKT0ccCfi1KdD-147" target="s5jDc6gKKT0ccCfi1KdD-108">
          <mxGeometry relative="1" as="geometry">
            <mxPoint x="4040" y="2000" as="sourcePoint" />
            <Array as="points">
              <mxPoint x="4040" y="2254" />
            </Array>
          </mxGeometry>
        </mxCell>
        <mxCell id="s5jDc6gKKT0ccCfi1KdD-192" value="" style="endArrow=diamondThin;endFill=0;endSize=24;html=1;rounded=0;entryX=0.276;entryY=1;entryDx=0;entryDy=0;entryPerimeter=0;exitX=1;exitY=0.5;exitDx=0;exitDy=0;" edge="1" parent="1" source="s5jDc6gKKT0ccCfi1KdD-115" target="s5jDc6gKKT0ccCfi1KdD-119">
          <mxGeometry width="160" relative="1" as="geometry">
            <mxPoint x="5720" y="1840" as="sourcePoint" />
            <mxPoint x="5880" y="1840" as="targetPoint" />
          </mxGeometry>
        </mxCell>
        <mxCell id="s5jDc6gKKT0ccCfi1KdD-193" value="" style="endArrow=diamondThin;endFill=1;endSize=24;html=1;rounded=0;entryX=1;entryY=0.5;entryDx=0;entryDy=0;" edge="1" parent="1" source="s5jDc6gKKT0ccCfi1KdD-125" target="s5jDc6gKKT0ccCfi1KdD-122">
          <mxGeometry width="160" relative="1" as="geometry">
            <mxPoint x="5540" y="1980" as="sourcePoint" />
            <mxPoint x="5700" y="1980" as="targetPoint" />
          </mxGeometry>
        </mxCell>
        <mxCell id="s5jDc6gKKT0ccCfi1KdD-194" style="edgeStyle=orthogonalEdgeStyle;rounded=0;orthogonalLoop=1;jettySize=auto;html=1;entryX=0.56;entryY=0.029;entryDx=0;entryDy=0;entryPerimeter=0;" edge="1" parent="1" source="s5jDc6gKKT0ccCfi1KdD-121" target="s5jDc6gKKT0ccCfi1KdD-127">
          <mxGeometry relative="1" as="geometry" />
        </mxCell>
        <mxCell id="s5jDc6gKKT0ccCfi1KdD-195" style="edgeStyle=orthogonalEdgeStyle;rounded=0;orthogonalLoop=1;jettySize=auto;html=1;dashed=1;" edge="1" parent="1" source="s5jDc6gKKT0ccCfi1KdD-128" target="s5jDc6gKKT0ccCfi1KdD-153">
          <mxGeometry relative="1" as="geometry" />
        </mxCell>
        <mxCell id="s5jDc6gKKT0ccCfi1KdD-196" style="edgeStyle=orthogonalEdgeStyle;rounded=0;orthogonalLoop=1;jettySize=auto;html=1;entryX=0.66;entryY=-0.002;entryDx=0;entryDy=0;entryPerimeter=0;" edge="1" parent="1" source="s5jDc6gKKT0ccCfi1KdD-94" target="s5jDc6gKKT0ccCfi1KdD-1">
          <mxGeometry relative="1" as="geometry">
            <Array as="points">
              <mxPoint x="7400" y="1306" />
              <mxPoint x="7400" y="-900" />
              <mxPoint x="4767" y="-900" />
            </Array>
          </mxGeometry>
        </mxCell>
        <mxCell id="s5jDc6gKKT0ccCfi1KdD-197" style="edgeStyle=orthogonalEdgeStyle;rounded=0;orthogonalLoop=1;jettySize=auto;html=1;" edge="1" parent="1" target="s5jDc6gKKT0ccCfi1KdD-2">
          <mxGeometry relative="1" as="geometry">
            <mxPoint x="5340" y="1720" as="sourcePoint" />
            <Array as="points">
              <mxPoint x="5345" y="1620" />
              <mxPoint x="7490" y="1620" />
              <mxPoint x="7490" y="-860" />
              <mxPoint x="4840" y="-860" />
            </Array>
          </mxGeometry>
        </mxCell>
        <mxCell id="s5jDc6gKKT0ccCfi1KdD-198" style="edgeStyle=orthogonalEdgeStyle;rounded=0;orthogonalLoop=1;jettySize=auto;html=1;entryX=0.465;entryY=-0.01;entryDx=0;entryDy=0;entryPerimeter=0;" edge="1" parent="1" source="s5jDc6gKKT0ccCfi1KdD-94" target="s5jDc6gKKT0ccCfi1KdD-100">
          <mxGeometry relative="1" as="geometry" />
        </mxCell>
      </root>
    </mxGraphModel>
  </diagram>
</mxfile>
